<?xml version="1.0" encoding="UTF-8"?>
<svg fill="#FFFFFF" width="100pt" height="100pt" version="1.1" viewBox="0 0 100 100" xmlns="http://www.w3.org/2000/svg">
 <g>
  <path d="m86.398 83.512h-6.9609l-10.711-7.8984c-0.26953-0.19922-0.64062-0.19922-0.91406-0.003906l-4.9609 3.6172-11.426-14c-0.14844-0.17969-0.36719-0.28516-0.59766-0.28516s-0.44922 0.10547-0.59766 0.28516l-6.7734 8.3008-4.7305-3.8047c-0.30859-0.24609-0.75391-0.22266-1.0312 0.058594l-6.4688 6.4844-3.6172-2.25c-0.32812-0.20312-0.75781-0.13281-1.0039 0.16406l-7.6484 9.332h-5.8164c-0.68359 0-1.2344 0.55469-1.2344 1.2344 0 0.68359 0.55078 1.2344 1.2344 1.2344h73.258c0.68359 0 1.2344-0.55469 1.2344-1.2344 0-0.67969-0.55469-1.2344-1.2344-1.2344zm-59.031-7.8281l3.5625 2.2148c0.30469 0.1875 0.69922 0.14453 0.95312-0.10938l6.4102-6.4297 4.1836 3.3633-2.5508 3.125c-0.26953 0.32812-0.22266 0.81641 0.10938 1.0859 0.32812 0.26953 0.81641 0.22266 1.0859-0.10938l3.0195-3.6992c0.007813-0.011719 0.023437-0.015625 0.03125-0.027344 0.007813-0.011718 0.011719-0.023437 0.015625-0.03125l6.6328-8.1289 11.289 13.836c0.25781 0.31641 0.72266 0.37891 1.0547 0.13672l5.0938-3.7148 8.5703 6.3203-55.875-0.003906z"/>
  <path d="m87.016 35.57h-2.4688c-0.59766 0-1.0781 0.48438-1.0781 1.0781 0 0.59766 0.48438 1.0781 1.0781 1.0781h2.4688c0.59766 0 1.0781-0.48437 1.0781-1.0781s-0.48438-1.0781-1.0781-1.0781z"/>
  <path d="m72.633 37.73h5.2969c0.59766 0 1.0781-0.48438 1.0781-1.0781 0-0.59766-0.48437-1.0781-1.0781-1.0781h-5.2969c-0.59766 0-1.0781 0.48438-1.0781 1.0781-0.003907 0.59375 0.48047 1.0781 1.0781 1.0781z"/>
  <path d="m48.801 37.73h5.2969c0.59766 0 1.0781-0.48438 1.0781-1.0781 0-0.59766-0.48438-1.0781-1.0781-1.0781h-5.2969c-0.59766 0-1.0781 0.48438-1.0781 1.0781s0.48047 1.0781 1.0781 1.0781z"/>
  <path d="m60.719 35.57c-0.59766 0-1.0781 0.48438-1.0781 1.0781 0 0.59766 0.48438 1.0781 1.0781 1.0781h5.293c0.59766 0 1.0781-0.48437 1.0781-1.0781 0-0.59766-0.48438-1.0781-1.0781-1.0781z"/>
  <path d="m36.887 37.73h5.293c0.59766 0 1.0781-0.48438 1.0781-1.0781 0-0.59766-0.48437-1.0781-1.0781-1.0781h-5.293c-0.59766 0-1.0781 0.48438-1.0781 1.0781s0.48047 1.0781 1.0781 1.0781z"/>
  <path d="m24.973 37.73h5.2969c0.59766 0 1.0781-0.48438 1.0781-1.0781 0-0.59766-0.48438-1.0781-1.0781-1.0781h-5.2969c-0.59766 0-1.0781 0.48438-1.0781 1.0781s0.48047 1.0781 1.0781 1.0781z"/>
  <path d="m15.887 37.73h2.4688c0.59766 0 1.0781-0.48438 1.0781-1.0781 0-0.59766-0.48438-1.0781-1.0781-1.0781h-2.4688c-0.59766 0-1.0781 0.48438-1.0781 1.0781-0.003906 0.59375 0.48047 1.0781 1.0781 1.0781z"/>
  <path d="m58.266 48.211l3.9492-3.9492v30.352c0 0.68359 0.55078 1.2344 1.2344 1.2344 0.68359 0 1.2344-0.55469 1.2344-1.2344l0.003906-30.352 3.9492 3.9492c0.24219 0.24219 0.55859 0.36328 0.87109 0.36328 0.31641 0 0.63281-0.12109 0.87109-0.36328 0.48047-0.48047 0.48047-1.2656 0-1.7461l-6.0586-6.0586c-0.11328-0.11328-0.25-0.20312-0.40234-0.26953-0.30078-0.125-0.64062-0.125-0.94141 0-0.15234 0.0625-0.28906 0.15234-0.40234 0.26953l-6.0586 6.0586c-0.48047 0.48047-0.48047 1.2656 0 1.7461 0.48828 0.48437 1.2695 0.48437 1.75 0z"/>
  <path d="m62.578 32.793c0.11328 0.11328 0.25 0.20312 0.40234 0.26953 0.15234 0.0625 0.3125 0.09375 0.47266 0.09375s0.32031-0.03125 0.47266-0.09375c0.15234-0.0625 0.28906-0.15234 0.40234-0.26953l6.0586-6.0586c0.48047-0.48047 0.48047-1.2656 0-1.7461s-1.2656-0.48047-1.7461 0l-3.9492 3.9492-0.003906-13.684c0-0.68359-0.55078-1.2344-1.2344-1.2344s-1.2344 0.55469-1.2344 1.2344v13.688l-3.9492-3.9492c-0.48047-0.48047-1.2656-0.48047-1.7461 0-0.48047 0.48047-0.48047 1.2656 0 1.7461z"/>
 </g>
</svg>
