<?xml version="1.0" encoding="utf-8"?>
<svg fill="#FFFFFF" width="100pt" height="100pt" version="1.1" viewBox="0 52.588 100 47.412" xmlns="http://www.w3.org/2000/svg">
  <defs>
    <view id="view-1">
      <title>View 1</title>
    </view>
  </defs>
  <g>
    <path d="m86.398 83.512h-6.9609l-10.711-7.8984c-0.26953-0.19922-0.64062-0.19922-0.91406-0.003906l-4.9609 3.6172-11.426-14c-0.14844-0.17969-0.36719-0.28516-0.59766-0.28516s-0.44922 0.10547-0.59766 0.28516l-6.7734 8.3008-4.7305-3.8047c-0.30859-0.24609-0.75391-0.22266-1.0312 0.058594l-6.4688 6.4844-3.6172-2.25c-0.32812-0.20312-0.75781-0.13281-1.0039 0.16406l-7.6484 9.332h-5.8164c-0.68359 0-1.2344 0.55469-1.2344 1.2344 0 0.68359 0.55078 1.2344 1.2344 1.2344h73.258c0.68359 0 1.2344-0.55469 1.2344-1.2344 0-0.67969-0.55469-1.2344-1.2344-1.2344zm-59.031-7.8281l3.5625 2.2148c0.30469 0.1875 0.69922 0.14453 0.95312-0.10938l6.4102-6.4297 4.1836 3.3633-2.5508 3.125c-0.26953 0.32812-0.22266 0.81641 0.10938 1.0859 0.32812 0.26953 0.81641 0.22266 1.0859-0.10938l3.0195-3.6992c0.007813-0.011719 0.023437-0.015625 0.03125-0.027344 0.007813-0.011718 0.011719-0.023437 0.015625-0.03125l6.6328-8.1289 11.289 13.836c0.25781 0.31641 0.72266 0.37891 1.0547 0.13672l5.0938-3.7148 8.5703 6.3203-55.875-0.003906z"/>
  </g>
</svg>