<?xml version="1.0" encoding="UTF-8"?>
<svg fill="#FFFFFF" width="100pt" height="100pt" version="1.1" viewBox="0 0 100 100" xmlns="http://www.w3.org/2000/svg">
 <path d="m7.8125 6.0039c-1.0312 0.09375-1.8164 0.96484-1.8125 2v12-0.003906c0 1.1055 0.89453 2 2 2h5v20h-5c-1.1055 0-2 0.89844-2 2v12c0 1.1055 0.89453 2 2 2h5v20h-5c-1.1055 0-2 0.89453-2 2v12c0 1.1055 0.89453 2 2 2h12c1.1055 0 2-0.89453 2-2v-4h20v4c0 1.1055 0.89453 2 2 2h12c1.1055 0 2-0.89453 2-2v-4h20v4c0 1.1055 0.89453 2 2 2h12c1.1055 0 2-0.89453 2-2v-12c0-1.1055-0.89453-2-2-2h-5v-20h5c1.1055 0 2-0.89453 2-2v-12c0-1.1016-0.89453-2-2-2h-5v-20h5c1.1055 0 2-0.89453 2-2v-12 0.003906c0.003906-1.0352-0.78125-1.9062-1.8125-2-0.0625-0.003906-0.125-0.003906-0.1875 0h-12c-1.1055 0-2 0.89453-2 2v4h-20v-4c0-1.1055-0.89453-2-2-2h-12c-0.0625-0.003906-0.125-0.003906-0.1875 0-1.0312 0.09375-1.8164 0.96484-1.8125 2v4h-20v-4c0-1.1055-0.89453-2-2-2h-12c-0.0625-0.003906-0.125-0.003906-0.1875 0zm2.1875 4h8v8h-8zm36 0h8v8h-8zm36 0h8v8h-8zm-60 6h20v4-0.003906c0 1.1055 0.89453 2 2 2h12c1.1055 0 2-0.89453 2-2v-4h20v4c0 1.1055 0.89453 2 2 2h3v20h-3c-1.1055 0-2 0.89844-2 2v12c0 1.1055 0.89453 2 2 2h3v20h-3c-1.1055 0-2 0.89453-2 2v4h-20v-4c0-1.1055-0.89453-2-2-2h-12c-1.1055 0-2 0.89453-2 2v4h-20v-4c0-1.1055-0.89453-2-2-2h-3v-20h3c1.1055 0 2-0.89453 2-2v-12c0-1.1016-0.89453-2-2-2h-3v-20h3c1.1055 0 2-0.89453 2-2v-4zm-12 30h8v8h-8zm72 0h8v8h-8zm-72 36h8v8h-8zm36 0h8v8h-8zm36 0h8v8h-8z"/>
</svg>
