<?xml version="1.0" encoding="UTF-8"?>
<svg fill="#FFFFFF" width="100pt" height="100pt" version="1.1" viewBox="0 0 100 100" xmlns="http://www.w3.org/2000/svg">
 <path d="m88.891 77.777v-55.555c6.1328 0 11.109-4.9727 11.109-11.113 0-6.1328-4.9766-11.109-11.109-11.109-6.1406 0-11.113 4.9766-11.113 11.109h-55.555c0-6.1328-4.9727-11.109-11.113-11.109-6.1367 0-11.109 4.9766-11.109 11.109 0 6.1406 4.9727 11.113 11.109 11.113v55.555c-6.1367 0-11.109 4.9766-11.109 11.113s4.9727 11.109 11.109 11.109c6.1406 0 11.113-4.9727 11.113-11.109h55.555c0 6.1367 4.9727 11.109 11.113 11.109 6.1328 0 11.109-4.9727 11.109-11.109s-4.9766-11.113-11.109-11.113zm-72.223-57.098c1.6641-0.96875 3.043-2.3477 4.0156-4.0117h12.648l-16.664 16.664zm0 18.211 22.223-22.223h11.109l-33.332 33.332zm0 16.664 38.887-38.887h11.113l-50 50zm2.2656 25.512c-0.67188-0.67578-1.4336-1.2617-2.2656-1.75v-7.0938l55.555-55.555h7.0938c0.48828 0.83203 1.0742 1.5938 1.75 2.2656zm64.398-1.75c-1.6641 0.97266-3.043 2.3516-4.0156 4.0156h-7.0938l11.109-11.109zm0-12.648-16.664 16.664h-11.113l27.777-27.777zm0-16.668-33.332 33.332h-11.109l44.441-44.441zm0-16.668-50 50h-11.109l61.109-61.109z" fill-rule="evenodd"/>
</svg>
