<?xml version="1.0" encoding="UTF-8"?>
<svg fill="#FFFFFF" width="100pt" height="100pt" version="1.1" viewBox="0 0 100 100" xmlns="http://www.w3.org/2000/svg">
 <g fill-rule="evenodd">
  <path d="m48.332 43.137l44.137-22.07-43.41-20.902c-0.47656-0.22656-1.0273-0.21875-1.4922 0.023438l-41.668 21.668c-0.019532 0.007812-0.03125 0.023437-0.046876 0.03125-0.003906 0.003906-0.007812 0.003906-0.007812 0.003906l42.488 21.246"/>
  <path d="m50 46.031v53.969c0.23047 0 0.45312-0.0625 0.66797-0.15625 0.023437-0.011719 0.054687-0.007812 0.078125-0.019531l43.332-21.664c0.56641-0.28516 0.92188-0.86328 0.92188-1.4922v-53.137l-45 22.5"/>
  <path d="m46.668 46.031l-41.668-20.836v51.473c0 0.62891 0.35547 1.207 0.92188 1.4922l40.746 20.371v-52.5"/>
 </g>
</svg>
