<?xml version="1.0" encoding="UTF-8"?>
<svg fill="#FFFFFF" width="100pt" height="100pt" version="1.1" viewBox="0 0 100 100" xmlns="http://www.w3.org/2000/svg">
 <path d="m81.969 0c8.75 0 16.031 6.8711 16.031 16 0 2.2305-0.49609 5.1211-1.25 7.1562-4.2891 9.2227-8.625 18.465-12.938 27.688-0.32031 0.68359-1.0547 1.1562-1.8125 1.1562h-26c-5.0195 0-9 3.9805-9 9s3.9805 9 9 9h13c8.2773 0 15 6.7227 15 15s-6.7227 15-15 15h-49c-0.75781 0-1.4922-0.47266-1.8125-1.1562-4.8672-10.387-9.957-20.699-14.781-31.094-0.82031-2.1875-1.4062-5.2812-1.4062-7.75 0-10.156 8.1523-18 18.031-18s17.969 7.8477 17.969 18c0 2.4688-0.58984 5.5703-1.4062 7.75-4.457 9.4102-8.957 18.836-13.438 28.25h45.844c6.1289 0 11-4.8711 11-11s-4.8711-11-11-11h-13c-7.168 0-13-5.832-13-13s5.832-13 13-13h22.844c-3.8555-8.2852-7.8086-16.543-11.594-24.844-0.74609-2.0273-1.25-4.9258-1.25-7.1562 0-9.1211 7.2188-16 15.969-16zm0 4c-6.7148 0-11.969 4.9375-11.969 12 0 1.4805 0.54297 4.4961 1 5.75 3.6445 7.8359 7.3281 15.668 11 23.5 3.582-7.8711 7.293-15.48 11-23.5 0.45703-1.25 1-4.2695 1-5.75 0-7.0586-5.3164-12-12.031-12zm0.03125 5c3.8438 0 7 3.1562 7 7s-3.1562 7-7 7-7-3.1562-7-7 3.1562-7 7-7zm0 4c-1.6797 0-3 1.3203-3 3s1.3203 3 3 3 3-1.3203 3-3-1.3203-3-3-3zm-61.969 33c-7.7969 0-14.031 5.9492-14.031 14 0 1.707 0.59766 4.8125 1.1562 6.3125 4.2578 9.0039 8.5586 18.004 12.844 27 4.1953-9.0391 8.6836-18.148 12.844-27 0.55859-1.5039 1.1562-4.6094 1.1562-6.3125 0-8.0586-6.1719-14-13.969-14zm-0.03125 5c4.9453 0 9 4.0547 9 9s-4.0547 9-9 9-9-4.0547-9-9 4.0547-9 9-9zm0 4c-2.7852 0-5 2.2148-5 5s2.2148 5 5 5 5-2.2148 5-5-2.2148-5-5-5z"/>
</svg>
