<?xml version="1.0" encoding="UTF-8"?>
<svg fill="#FFFFFF" width="100pt" height="100pt" version="1.1" viewBox="0 0 100 100" xmlns="http://www.w3.org/2000/svg">
 <path d="m9.8125 15.031c-1.0312 0.09375-1.8164 0.96094-1.8125 1.9961v32.953c0 1.1055 0.89453 2 2 2h80c1.1055 0 2-0.89453 2-2v-32.953c0-1.1016-0.89453-1.9961-2-1.9961h-80c-0.0625-0.003906-0.125-0.003906-0.1875 0zm2.1875 3.9961h76v28.953h-4v-7.9648c0.011719-0.57422-0.22656-1.1289-0.64844-1.5156-0.42578-0.39062-1-0.57422-1.5703-0.51172-1.0312 0.11328-1.8047 0.99219-1.7812 2.0273v7.9648h-4v-14.961c0.011719-0.57422-0.22656-1.1289-0.64844-1.5156-0.42578-0.39062-1-0.57812-1.5703-0.51172-1.0312 0.11328-1.8047 0.99219-1.7812 2.0273v14.961h-4v-7.9648c0.011719-0.57422-0.22656-1.1289-0.64844-1.5156-0.42578-0.39062-1-0.57422-1.5703-0.51172-1.0312 0.11328-1.8047 0.99219-1.7812 2.0273v7.9648h-4v-14.961c0.011719-0.57422-0.22656-1.1289-0.64844-1.5156-0.42578-0.39062-1-0.57812-1.5703-0.51172-1.0312 0.11328-1.8047 0.99219-1.7812 2.0273v14.961h-4v-7.9648c0.011719-0.57422-0.22656-1.1289-0.64844-1.5156-0.42578-0.39062-1-0.57422-1.5703-0.51172-1.0312 0.11328-1.8047 0.99219-1.7812 2.0273v7.9648h-4v-14.961c0.011719-0.57422-0.22266-1.1289-0.64844-1.5156-0.42578-0.39062-0.99609-0.57812-1.5703-0.51172-1.0312 0.11328-1.8047 0.99219-1.7812 2.0273v14.961h-4v-7.9648c0.011719-0.57422-0.22266-1.1289-0.64844-1.5156-0.42578-0.39062-0.99609-0.57422-1.5703-0.51172-1.0312 0.11328-1.8047 0.99219-1.7812 2.0273v7.9648h-4v-14.961c0.011719-0.57422-0.22266-1.1289-0.64844-1.5156-0.42578-0.39062-0.99609-0.57812-1.5703-0.51172-1.0312 0.11328-1.8047 0.99219-1.7812 2.0273v14.961h-4v-7.9648c0.011719-0.57422-0.22266-1.1289-0.64844-1.5156-0.42578-0.39062-0.99609-0.57422-1.5703-0.51172-1.0312 0.11328-1.8047 0.99219-1.7812 2.0273v7.9648h-4zm-4.2188 37.953c-1.0312 0.11328-1.8047 0.99219-1.7812 2.0273v15.992c-0.007812 0.53516 0.19922 1.0508 0.57422 1.4336 0.37891 0.37891 0.89062 0.59375 1.4258 0.59375s1.0469-0.21484 1.4258-0.59375c0.375-0.38281 0.58203-0.89844 0.57422-1.4336v-15.992c0.011719-0.57422-0.22266-1.1289-0.64844-1.5156-0.42578-0.39063-0.99609-0.57813-1.5703-0.51172zm84 0c-1.0312 0.11328-1.8047 0.99219-1.7812 2.0273v15.992c-0.007812 0.53516 0.19922 1.0508 0.57422 1.4336 0.375 0.37891 0.89062 0.59375 1.4258 0.59375s1.0469-0.21484 1.4219-0.59375c0.37891-0.38281 0.58594-0.89844 0.57812-1.4336v-15.992c0.011719-0.57422-0.22656-1.1289-0.64844-1.5156-0.42578-0.39063-1-0.57813-1.5703-0.51172zm-67.031 0.03125v-0.003907c-0.40625 0.050782-0.78906 0.22656-1.0938 0.5l-9 7.9961c-0.42188 0.37891-0.66016 0.91797-0.66016 1.4844 0 0.56641 0.23828 1.1055 0.66016 1.4844l9 7.9961c0.58594 0.53125 1.4258 0.66797 2.1484 0.34766 0.72266-0.31641 1.1914-1.0273 1.1953-1.8164v-5.9961h46v5.9961c0.003906 0.78906 0.47266 1.5 1.1953 1.8203 0.72266 0.31641 1.5625 0.17969 2.1484-0.35156l9-7.9961c0.41797-0.37891 0.66016-0.91797 0.66016-1.4844 0-0.5625-0.24219-1.1016-0.66016-1.4844l-9-7.9961c-0.41016-0.36328-0.95312-0.54297-1.5-0.49609-1.043 0.078125-1.8477 0.95312-1.8438 1.9961v5.9961h-46v-5.9961c0.003906-0.57422-0.24219-1.125-0.67188-1.5078s-1.0078-0.5625-1.5781-0.48828zm-1.75 6.4336v7.0898l-4-3.5312 4-3.5625zm54 0 4 3.5625-4 3.5312z"/>
</svg>
