<?xml version="1.0" encoding="UTF-8"?>
<svg fill="#FFFFFF" width="100pt" height="100pt" version="1.1" viewBox="0 0 100 100" xmlns="http://www.w3.org/2000/svg">
 <g>
  <path d="m95.312 3.125h-14.062c-0.55859-0.003906-1.0781 0.29688-1.3594 0.78125l-5.7969 10.156h-10.031c-0.50391 0.003906-0.97266 0.24609-1.2656 0.65625l-7.3438 10.281h-8.5781c-0.41406-0.003906-0.81641 0.16016-1.1094 0.45312l-13.594 13.609h-11.859c-0.41406-0.003906-0.81641 0.16016-1.1094 0.45312l-15.625 15.625c-0.29297 0.29297-0.45703 0.69531-0.45312 1.1094v39.062c0 0.41406 0.16406 0.8125 0.45703 1.1055s0.69141 0.45703 1.1055 0.45703h90.625c0.41406 0 0.8125-0.16406 1.1055-0.45703s0.45703-0.69141 0.45703-1.1055v-90.625c0-0.41406-0.16406-0.8125-0.45703-1.1055s-0.69141-0.45703-1.1055-0.45703zm-89.062 90.625v-4.5469-7.9531h10.938v-3.125h-10.938v-12.5h10.938v-3.125h-10.938v-0.14062-5.4062l6.8906-6.9531h4.0469v-3.125h-0.92188l4.6875-4.6875h11.859c0.41406 0.003906 0.81641-0.16016 1.1094-0.45312l7.3438-7.3594h13.422v-3.125h-10.297l3.125-3.125h8.7344c0.50391-0.003906 0.97266-0.24609 1.2656-0.65625l7.3438-10.281h10.141c0.55859 0.003906 1.0781-0.29688 1.3594-0.78125l5.7969-10.156h11.594v25h-10.938v3.125h10.938v12.5h-10.938v3.125h10.938v12.5h-10.938v3.125h10.938v12.5h-10.938v3.125h10.938v12.5z"/>
  <path d="m20.312 78.125h9.375v3.125h-9.375z"/>
  <path d="m32.812 78.125h9.375v3.125h-9.375z"/>
  <path d="m45.312 78.125h9.375v3.125h-9.375z"/>
  <path d="m57.812 78.125h9.375v3.125h-9.375z"/>
  <path d="m70.312 78.125h9.375v3.125h-9.375z"/>
  <path d="m20.312 62.5h9.375v3.125h-9.375z"/>
  <path d="m32.812 62.5h9.375v3.125h-9.375z"/>
  <path d="m45.312 62.5h9.375v3.125h-9.375z"/>
  <path d="m57.812 62.5h9.375v3.125h-9.375z"/>
  <path d="m70.312 62.5h9.375v3.125h-9.375z"/>
  <path d="m20.312 46.875h9.375v3.125h-9.375z"/>
  <path d="m32.812 46.875h9.375v3.125h-9.375z"/>
  <path d="m45.312 46.875h9.375v3.125h-9.375z"/>
  <path d="m57.812 46.875h9.375v3.125h-9.375z"/>
  <path d="m70.312 46.875h9.375v3.125h-9.375z"/>
  <path d="m57.812 31.25h9.375v3.125h-9.375z"/>
  <path d="m70.312 31.25h9.375v3.125h-9.375z"/>
  <path d="m12.5 21.875h9.375c1.7031 0 6.0469-1.1094 7.3906-3.2656 1.9727-1.832 2.5508-4.7188 1.4375-7.168-1.1133-2.4492-3.668-3.9102-6.3438-3.6289-1.2344-2.8633-4.0547-4.7148-7.1719-4.7148s-5.9375 1.8516-7.1719 4.7148c-2.6602-0.26562-5.1953 1.1953-6.3047 3.6289-1.1094 2.4336-0.54688 5.3008 1.3984 7.1367 1.3438 2.1875 5.6875 3.2969 7.3906 3.2969zm-3.125-10.938c0.38672 0.007812 0.76562 0.082031 1.125 0.21875 0.41797 0.19141 0.89453 0.19141 1.3125 0 0.40625-0.22266 0.69141-0.60938 0.78125-1.0625 0.44531-2.1836 2.3633-3.7539 4.5938-3.7539s4.1484 1.5703 4.5938 3.7539c0.089844 0.45312 0.375 0.83984 0.78125 1.0625 0.41797 0.19141 0.89453 0.19141 1.3125 0 1.4102-0.50391 2.9805 0.0625 3.7422 1.3516 0.76172 1.2891 0.50391 2.9375-0.61719 3.9297-0.17578 0.14844-0.31641 0.33594-0.40625 0.54688-1.3633 1.0469-3.0039 1.6602-4.7188 1.7656h-9.375c-1.6992-0.11328-3.3281-0.72266-4.6875-1.75-0.089844-0.21484-0.23047-0.40625-0.40625-0.5625-0.98438-0.84375-1.3477-2.207-0.91016-3.4297 0.43359-1.2188 1.582-2.043 2.8789-2.0703z"/>
 </g>
</svg>
