<?xml version="1.0" encoding="UTF-8"?>
<svg fill="#FFFFFF" width="100pt" height="100pt" version="1.1" viewBox="0 0 100 100" xmlns="http://www.w3.org/2000/svg">
 <g>
  <path d="m85 68.898l-2.6016-1.5c-0.19922-0.10156-0.5 0-0.60156 0.19922-0.10156 0.19922 0 0.5 0.19922 0.60156l2.6016 1.5c0.10156 0 0.10156 0.10156 0.19922 0.10156 0.10156 0 0.30078-0.10156 0.39844-0.19922 0.10547-0.30078 0.003907-0.60156-0.19531-0.70312z"/>
  <path d="m80.102 66.102l-1.1016-0.60156v-24.898-0.10156-0.10156-0.10156-0.10156s0-0.10156-0.10156-0.10156c0 0 0-0.10156-0.10156-0.10156l-0.10156-0.10156-0.10156-0.10156-0.10156-0.10156-0.10156-0.10156-4.6992-2.6992 3.1992-1.8008c0.19922-0.10156 0.30078-0.39844 0.19922-0.60156-0.10156-0.19922-0.39844-0.30078-0.60156-0.19922l-3.6016 2.1016-21.5-12.398s-0.10156 0-0.10156-0.10156v-1.3008c0-0.19922-0.19922-0.39844-0.39844-0.39844s-0.39844 0.19922-0.39844 0.39844v1.3008s-0.10156 0-0.10156 0.10156l-21.5 12.398-2.8867-1.4883c-0.19922-0.10156-0.5 0-0.60156 0.19922-0.10156 0.19922 0 0.5 0.19922 0.60156l2 1.1016-4.6992 2.6992-0.10156 0.10156s-0.10156 0-0.10156 0.10156l-0.10156 0.10156-0.10156 0.10156s0 0.10156-0.10156 0.10156c0 0 0 0.10156-0.10156 0.10156v0.10156 0.10156 0.10156 0.10156 24.898l-1.1016 0.60156c-0.19922 0.10156-0.30078 0.39844-0.19922 0.60156 0.10156 0.10156 0.19922 0.19922 0.39844 0.19922 0.10156 0 0.10156 0 0.19922-0.10156l0.60156-0.39844v5.5 0.10156 0.10156 0.10156 0.10156s0 0.10156 0.10156 0.10156c0 0 0 0.10156 0.10156 0.10156l0.10156 0.10156 0.10156 0.10156 0.10156 0.10156 0.10156 0.10156 27.102 15.699c0.10156 0 0.19922 0.10156 0.19922 0.10156 0.10156 0 0.30078 0.10156 0.39844 0.10156 0.10156 0 0.30078 0 0.39844-0.10156 0.10156 0 0.19922-0.10156 0.19922-0.10156l27.102-15.699 0.10156-0.10156s0.10156 0 0.10156-0.10156l0.10156-0.10156 0.10156-0.10156s0-0.10156 0.10156-0.10156c0 0 0-0.10156 0.10156-0.10156v-0.10156-0.10156-0.10156-0.10156-5.5l0.60156 0.39844c0.10156 0 0.10156 0.10156 0.19922 0.10156 0.10156 0 0.30078-0.10156 0.39844-0.19922 0.39453-0.11719 0.29688-0.41797 0.097656-0.51563zm-29.102 19.797v-3.1016c0-0.19922-0.19922-0.39844-0.39844-0.39844-0.19922 0-0.39844 0.19922-0.39844 0.39844v3.1016l-25.398-14.699v-29.898l25.898-14.898 25.898 14.898v29.898z"/>
  <path d="m52.5 92.699l-1.5 0.89844v-1.6992c0-0.19922-0.19922-0.39844-0.39844-0.39844-0.19922 0-0.39844 0.19922-0.39844 0.39844v1.6992l-1.5-0.89844c-0.19922-0.10156-0.5 0-0.60156 0.19922-0.10156 0.19922 0 0.5 0.19922 0.60156l2.1016 1.1992c0.10156 0 0.10156 0.10156 0.19922 0.10156 0.10156 0 0.10156 0 0.19922-0.10156l2.1016-1.1992c0.19922-0.10156 0.30078-0.39844 0.19922-0.60156-0.10156-0.19922-0.40234-0.29688-0.60156-0.19922z"/>
  <path d="m84.398 74.301l-4 2.3008c-0.19922 0.10156-0.30078 0.39844-0.19922 0.60156 0.10156 0.10156 0.19922 0.19922 0.39844 0.19922 0.10156 0 0.10156 0 0.19922-0.10156l4-2.3008c0.19922-0.10156 0.30078-0.39844 0.19922-0.60156-0.097656-0.097657-0.39453-0.19922-0.59766-0.097657z"/>
  <path d="m76.398 79l-4 2.3008c-0.19922 0.10156-0.30078 0.39844-0.19922 0.60156 0.10156 0.10156 0.19922 0.19922 0.39844 0.19922 0.10156 0 0.10156 0 0.19922-0.10156l4-2.3008c0.19922-0.10156 0.30078-0.39844 0.19922-0.60156-0.097656-0.19922-0.39453-0.29688-0.59766-0.097656z"/>
  <path d="m60.398 88.199l-4 2.3008c-0.19922 0.10156-0.30078 0.39844-0.19922 0.60156 0.10156 0.10156 0.19922 0.19922 0.39844 0.19922 0.10156 0 0.10156 0 0.19922-0.10156l4-2.3008c0.19922-0.10156 0.30078-0.39844 0.19922-0.60156-0.19531-0.19531-0.39453-0.19531-0.59766-0.097656z"/>
  <path d="m68.398 83.602l-4 2.3008c-0.19922 0.10156-0.30078 0.39844-0.19922 0.60156 0.10156 0.10156 0.19922 0.19922 0.39844 0.19922 0.10156 0 0.10156 0 0.19922-0.10156l4-2.3008c0.19922-0.10156 0.30078-0.39844 0.19922-0.60156-0.19531-0.19922-0.39453-0.19922-0.59766-0.097657z"/>
  <path d="m50.602 73.102c-0.19922 0-0.39844 0.19922-0.39844 0.39844v4.6016c0 0.19922 0.19922 0.39844 0.39844 0.39844 0.19922 0 0.39844-0.19922 0.39844-0.39844v-4.6016c0-0.19922-0.10156-0.39844-0.39844-0.39844z"/>
  <path d="m51 55.102c0-0.19922-0.19922-0.39844-0.39844-0.39844-0.19922 0-0.39844 0.19922-0.39844 0.39844v4.6016c0 0.19922 0.19922 0.39844 0.39844 0.39844 0.19922 0 0.39844-0.19922 0.39844-0.39844z"/>
  <path d="m50.602 63.898c-0.19922 0-0.39844 0.19922-0.39844 0.39844v4.6016c0 0.19922 0.19922 0.39844 0.39844 0.39844 0.19922 0 0.39844-0.19922 0.39844-0.39844v-4.6016c0-0.19531-0.10156-0.39844-0.39844-0.39844z"/>
  <path d="m48.301 48.699l1.8984 1.1016v2.1992c0 0.19922 0.19922 0.39844 0.39844 0.39844 0.19922 0 0.39844-0.19922 0.39844-0.39844v-2.1992l1.8984-1.1016c0.19922-0.10156 0.30078-0.39844 0.19922-0.60156-0.10156-0.19922-0.39844-0.30078-0.60156-0.19922l-1.8984 1.1016-1.8984-1.1016c-0.19922-0.10156-0.5 0-0.60156 0.19922-0.09375 0.20312 0.007812 0.50391 0.20703 0.60156z"/>
  <path d="m80.199 32.5c0.10156 0.10156 0.19922 0.19922 0.39844 0.19922 0.10156 0 0.10156 0 0.19922-0.10156l4-2.3008c0.19922-0.10156 0.30078-0.39844 0.19922-0.60156-0.10156-0.19922-0.39844-0.30078-0.60156-0.19922l-4 2.3008c-0.19531 0.20312-0.29297 0.50391-0.19531 0.70312z"/>
  <path d="m64.602 41.898c0.10156 0 0.10156 0 0.19922-0.10156l4-2.3008c0.19922-0.10156 0.30078-0.39844 0.19922-0.60156-0.10156-0.19922-0.39844-0.30078-0.60156-0.19922l-4 2.3008c-0.19922 0.10156-0.30078 0.39844-0.19922 0.60156 0.10156 0.20312 0.19922 0.30078 0.40234 0.30078z"/>
  <path d="m56.602 46.5c0.10156 0 0.10156 0 0.19922-0.10156l4-2.3008c0.19922-0.10156 0.30078-0.39844 0.19922-0.60156-0.10156-0.19922-0.39844-0.30078-0.60156-0.19922l-4 2.3008c-0.19922 0.10156-0.30078 0.39844-0.19922 0.60156 0.10156 0.30078 0.19922 0.30078 0.40234 0.30078z"/>
  <path d="m89.398 69c-0.19922 0-0.39844 0.19922-0.39844 0.39844v1.6992l-1.5-0.89844c-0.19922-0.10156-0.5 0-0.60156 0.19922-0.10156 0.19922 0 0.5 0.19922 0.60156l1.5 0.89844-1.5 0.89844c-0.19922 0.10156-0.30078 0.39844-0.19922 0.60156 0.10156 0.10156 0.19922 0.19922 0.39844 0.19922 0.10156 0 0.10156 0 0.19922-0.10156l2.1016-1.1992 0.10156-0.10156v-0.10156-2.5c0.10156-0.39453-0.097657-0.59375-0.30078-0.59375z"/>
  <path d="m89.398 50.801c-0.19922 0-0.39844 0.19922-0.39844 0.39844v4.6016c0 0.19922 0.19922 0.39844 0.39844 0.39844 0.19922 0 0.39844-0.19922 0.39844-0.39844v-4.6016c0.003906-0.30078-0.19531-0.39844-0.39844-0.39844z"/>
  <path d="m89.398 32.301c-0.19922 0-0.39844 0.19922-0.39844 0.39844v4.6016c0 0.19922 0.19922 0.39844 0.39844 0.39844 0.19922 0 0.39844-0.19922 0.39844-0.39844v-4.6016c0.003906-0.19922-0.19531-0.39844-0.39844-0.39844z"/>
  <path d="m89.398 60c-0.19922 0-0.39844 0.19922-0.39844 0.39844v4.6016c0 0.19922 0.19922 0.39844 0.39844 0.39844 0.19922 0 0.39844-0.19922 0.39844-0.39844v-4.6016c0.003906-0.19922-0.19531-0.39844-0.39844-0.39844z"/>
  <path d="m89.398 41.5c-0.19922 0-0.39844 0.19922-0.39844 0.39844v4.6016c0 0.19922 0.19922 0.39844 0.39844 0.39844 0.19922 0 0.39844-0.19922 0.39844-0.39844l0.003906-4.6016c0-0.19922-0.19922-0.39844-0.40234-0.39844z"/>
  <path d="m89.801 27.102v-0.10156-0.10156l-2.1016-1.1992c-0.19922-0.10156-0.5 0-0.60156 0.19922-0.10156 0.19922 0 0.5 0.19922 0.60156l1.5 0.89844-1.5 0.89844c-0.19922 0.10156-0.30078 0.39844-0.19922 0.60156 0.10156 0.10156 0.19922 0.19922 0.39844 0.19922 0.10156 0 0.10156 0 0.19922-0.10156l1.5-0.89844v1.6992c0 0.19922 0.19922 0.39844 0.39844 0.39844s0.39844-0.19922 0.39844-0.39844l-0.19141-2.6953v0z"/>
  <path d="m17.398 30.398c-0.10156 0.19922 0 0.5 0.19922 0.60156l4 2.3008c0.10156 0 0.10156 0.10156 0.19922 0.10156 0.10156 0 0.30078-0.10156 0.39844-0.19922 0.10156-0.19922 0-0.5-0.19922-0.60156l-4-2.3008c-0.19531-0.19922-0.39453-0.10156-0.59766 0.097657z"/>
  <path d="m41.602 44.898l4 2.3008c0.10156 0 0.10156 0.10156 0.19922 0.10156 0.10156 0 0.30078-0.10156 0.39844-0.19922 0.10156-0.19922 0-0.5-0.19922-0.60156l-4-2.3008c-0.19922-0.10156-0.5 0-0.60156 0.19922-0.097657 0.10156 0 0.30078 0.20312 0.5z"/>
  <path d="m33.602 40.199l4 2.3008c0.10156 0 0.10156 0.10156 0.19922 0.10156 0.10156 0 0.30078-0.10156 0.39844-0.19922 0.10156-0.19922 0-0.5-0.19922-0.60156l-4-2.3008c-0.19922-0.10156-0.5 0-0.60156 0.19922-0.097657 0.19922 0 0.40234 0.20312 0.5z"/>
  <path d="m55.199 7.8984l4 2.3008c0.10156 0 0.10156 0.10156 0.19922 0.10156 0.10156 0 0.30078-0.10156 0.39844-0.19922 0.10156-0.19922 0-0.5-0.19922-0.60156l-4-2.3008c-0.19922-0.10156-0.5 0-0.60156 0.19922-0.097656 0.10156 0.003906 0.40234 0.20312 0.5z"/>
  <path d="m63.199 12.5l4 2.3008c0.10156 0 0.10156 0.10156 0.19922 0.10156 0.10156 0 0.30078-0.10156 0.39844-0.19922 0.10156-0.19922 0-0.5-0.19922-0.60156l-4-2.3008c-0.19922-0.10156-0.5 0-0.60156 0.19922-0.097656 0.19922 0.003906 0.39844 0.20312 0.5z"/>
  <path d="m71.199 17.199l4 2.3008c0.10156 0 0.10156 0.10156 0.19922 0.10156 0.10156 0 0.30078-0.10156 0.39844-0.19922 0.10156-0.19922 0-0.5-0.19922-0.60156l-4-2.3008c-0.19922-0.10156-0.5 0-0.60156 0.19922-0.097656 0.10156 0.003906 0.30078 0.20312 0.5z"/>
  <path d="m79.199 21.801l4 2.3008c0.10156 0 0.10156 0.10156 0.19922 0.10156 0.10156 0 0.30078-0.10156 0.39844-0.19922 0.10156-0.19922 0-0.5-0.19922-0.60156l-4-2.3008c-0.19922-0.10156-0.5 0-0.60156 0.19922-0.097656 0.097657 0.003906 0.39844 0.20312 0.5z"/>
  <path d="m48.5 6.3984c0.10156 0 0.10156 0 0.19922-0.10156l1.5-0.89844v1.6992c0 0.19922 0.19922 0.39844 0.39844 0.39844 0.19922 0 0.39844-0.19922 0.39844-0.39844v-1.6992l1.5 0.89844c0.10156 0 0.10156 0.10156 0.19922 0.10156 0.10156 0 0.30078-0.10156 0.39844-0.19922 0.10156-0.19922 0-0.5-0.19922-0.60156l-2.1016-1.1992h-0.10156-0.10156-0.10156-0.10156-0.10156-0.10156l-2.1016 1.1992c-0.19922 0.10156-0.30078 0.39844-0.19922 0.60156 0.31641 0.19922 0.41797 0.19922 0.61719 0.19922z"/>
  <path d="m24.602 20.199c0.10156 0 0.10156 0 0.19922-0.10156l4-2.3008c0.19922-0.10156 0.30078-0.39844 0.19922-0.60156-0.10156-0.19922-0.39844-0.30078-0.60156-0.19922l-4 2.3008c-0.19922 0.10156-0.30078 0.39844-0.19922 0.60156 0.10156 0.20312 0.30078 0.30078 0.40234 0.30078z"/>
  <path d="m32.602 15.602c0.10156 0 0.10156 0 0.19922-0.10156l4-2.3008c0.19922-0.10156 0.30078-0.39844 0.19922-0.60156-0.10156-0.19922-0.39844-0.30078-0.60156-0.19922l-4 2.3008c-0.19922 0.10156-0.30078 0.39844-0.19922 0.60156 0.10156 0.19922 0.30078 0.30078 0.40234 0.30078z"/>
  <path d="m16.602 24.801c0.10156 0 0.10156 0 0.19922-0.10156l4-2.3008c0.19922-0.10156 0.30078-0.39844 0.19922-0.60156-0.10156-0.19922-0.39844-0.30078-0.60156-0.19922l-4 2.3008c-0.19922 0.10156-0.30078 0.39844-0.19922 0.60156 0.10156 0.30078 0.30078 0.30078 0.40234 0.30078z"/>
  <path d="m40.602 11c0.10156 0 0.10156 0 0.19922-0.10156l4-2.3008c0.19922-0.10156 0.30078-0.39844 0.19922-0.60156-0.10156-0.19922-0.39844-0.30078-0.60156-0.19922l-4 2.3008c-0.19922 0.10156-0.30078 0.39844-0.19922 0.60156 0.10156 0.19922 0.30078 0.30078 0.40234 0.30078z"/>
  <path d="m14.301 25.699c-0.10156-0.19922-0.39844-0.30078-0.60156-0.19922l-2.1016 1.1992-0.10156 0.10156v0.10156 0.10156 2.5c0 0.19922 0.19922 0.39844 0.39844 0.39844s0.39844-0.19922 0.39844-0.39844l0.007812-1.6055 1.5 0.89844c0.10156 0 0.10156 0.10156 0.19922 0.10156 0.10156 0 0.30078-0.10156 0.39844-0.19922 0.10156-0.19922 0-0.5-0.19922-0.60156l-1.5-0.89844 1.5-0.89844c0.19922-0.10156 0.30078-0.40234 0.10156-0.60156z"/>
  <path d="m50.602 11.699c-0.19922 0-0.39844 0.19922-0.39844 0.39844v5.3008c0 0.19922 0.19922 0.39844 0.39844 0.39844 0.19922 0 0.39844-0.19922 0.39844-0.39844v-5.3008c0-0.19922-0.10156-0.39844-0.39844-0.39844z"/>
  <path d="m38 86.602l-4-2.3008c-0.19922-0.10156-0.5 0-0.60156 0.19922-0.10156 0.19922 0 0.5 0.19922 0.60156l4 2.3008c0.10156 0 0.10156 0.10156 0.19922 0.10156 0.10156 0 0.30078-0.10156 0.39844-0.19922 0.10547-0.30469 0.003907-0.60547-0.19531-0.70313z"/>
  <path d="m22 77.301l-4-2.3008c-0.19922-0.10156-0.5 0-0.60156 0.19922-0.10156 0.19922 0 0.5 0.19922 0.60156l4 2.3008c0.10156 0 0.10156 0.10156 0.19922 0.10156 0.10156 0 0.30078-0.10156 0.39844-0.19922 0.10547-0.30469 0.003907-0.60547-0.19531-0.70312z"/>
  <path d="m30 82l-4-2.3008c-0.19922-0.10156-0.5 0-0.60156 0.19922-0.10156 0.19922 0 0.5 0.19922 0.60156l4 2.3008c0.10156 0 0.10156 0.10156 0.19922 0.10156 0.10156 0 0.30078-0.10156 0.39844-0.19922 0.10547-0.40234 0.003907-0.60156-0.19531-0.70312z"/>
  <path d="m46 91.199l-4-2.3008c-0.19922-0.10156-0.5 0-0.60156 0.19922-0.10156 0.19922 0 0.5 0.19922 0.60156l4 2.3008c0.10156 0 0.10156 0.10156 0.19922 0.10156 0.10156 0 0.30078-0.10156 0.39844-0.19922 0.10547-0.30078 0.10547-0.60156-0.19531-0.70312z"/>
  <path d="m11.801 65.5c0.19922 0 0.39844-0.19922 0.39844-0.39844v-4.6016c0-0.19922-0.19922-0.39844-0.39844-0.39844s-0.39844 0.19922-0.39844 0.39844v4.6016c-0.003906 0.19922 0.19922 0.39844 0.39844 0.39844z"/>
  <path d="m11.801 47c0.19922 0 0.39844-0.19922 0.39844-0.39844v-4.7031c0-0.19922-0.19922-0.39844-0.39844-0.39844s-0.39844 0.19922-0.39844 0.39844v4.6016c-0.003906 0.30078 0.19922 0.5 0.39844 0.5z"/>
  <path d="m11.801 37.699c0.19922 0 0.39844-0.19922 0.39844-0.39844v-4.6016c0-0.19922-0.19922-0.39844-0.39844-0.39844s-0.39844 0.19922-0.39844 0.39844v4.6016c-0.003906 0.19922 0.19922 0.39844 0.39844 0.39844z"/>
  <path d="m11.801 56.199c0.19922 0 0.39844-0.19922 0.39844-0.39844v-4.6016c0-0.19922-0.19922-0.39844-0.39844-0.39844s-0.39844 0.19922-0.39844 0.39844v4.6016c-0.003906 0.19922 0.19922 0.39844 0.39844 0.39844z"/>
  <path d="m19.301 67.699c-0.10156-0.19922-0.39844-0.30078-0.60156-0.19922l-2.6016 1.5c-0.19922 0.10156-0.30078 0.39844-0.19922 0.60156 0.10156 0.10156 0.19922 0.19922 0.39844 0.19922 0.10156 0 0.10156 0 0.19922-0.10156l2.6016-1.5c0.20312-0.097657 0.30078-0.30078 0.20312-0.5z"/>
  <path d="m14.301 70.5c-0.10156-0.19922-0.39844-0.30078-0.60156-0.19922l-1.5 0.89844v-1.6992c0-0.19922-0.19922-0.39844-0.39844-0.39844s-0.39844 0.19922-0.39844 0.39844v2.5 0.10156 0.10156 0.10156l0.10156 0.10156 2.1016 1.1992c0.10156 0 0.10156 0.10156 0.19922 0.10156 0.10156 0 0.30078-0.10156 0.39844-0.19922 0.10156-0.19922 0-0.5-0.19922-0.60156l-1.5-0.89844 1.5-0.89844c0.39453-0.10938 0.49609-0.41016 0.29688-0.60938z"/>
 </g>
</svg>
