<?xml version="1.0" encoding="UTF-8"?>
<svg fill="#FFFFFF" width="100pt" height="100pt" version="1.1" viewBox="0 0 100 100" xmlns="http://www.w3.org/2000/svg">
 <g>
  <path d="m71.855 85.328l14.121-25.133-35.582-43.203z"/>
  <path d="m47.754 21.617l-32.23 47.07 51.672 14.836z"/>
  <path d="m50.102 10.707l40.52 48.711-17.082 30.777-64.945-18.918 41.508-60.57m0-3.3867c-0.050781 0-0.10547 0-0.15625 0.003907-1.0625 0.050781-2.0391 0.59375-2.6367 1.4688l-41.512 60.566c-0.61328 0.89453-0.76172 2.0312-0.39453 3.0547 0.36719 1.0234 1.1992 1.8086 2.2422 2.1133l64.945 18.922c0.3125 0.089843 0.63281 0.13672 0.94922 0.13672 1.207 0 2.3555-0.64844 2.9609-1.7461l17.082-30.777c0.67969-1.2227 0.53516-2.7383-0.35938-3.8125l-40.516-48.711c-0.64453-0.77344-1.6016-1.2188-2.6055-1.2188z"/>
 </g>
</svg>
