<?xml version="1.0" encoding="utf-8"?>
<svg fill="#FFFFFF" width="100pt" height="100pt" version="1.1" viewBox="0 0 100 100" xmlns="http://www.w3.org/2000/svg">
  <defs>
    <linearGradient id="gradient-15" gradientUnits="userSpaceOnUse" x1="49.782" y1="9.507" x2="49.782" y2="22.062">
      <stop offset="0" style="stop-color: rgba(34, 150, 222, 1)"/>
      <stop offset="1" style="stop-color: rgb(255, 111, 88);"/>
    </linearGradient>
    <linearGradient id="gradient-16" gradientUnits="userSpaceOnUse" x1="60.543" y1="8.867" x2="60.543" y2="9.84">
      <stop offset="0" style="stop-color: rgba(34, 150, 222, 1)"/>
      <stop offset="1" style="stop-color: rgb(255, 111, 88);"/>
    </linearGradient>
    <linearGradient id="gradient-17" gradientUnits="userSpaceOnUse" x1="39.03" y1="8.867" x2="39.03" y2="9.836">
      <stop offset="0" style="stop-color: rgba(34, 150, 222, 1)"/>
      <stop offset="1" style="stop-color: rgb(255, 111, 88);"/>
    </linearGradient>
    <linearGradient id="gradient-18" gradientUnits="userSpaceOnUse" x1="51.787" y1="18.375" x2="51.787" y2="89.54" gradientTransform="matrix(1, 0, 0, 1, 0, 0)">
      <stop offset="0" style="stop-color: rgba(34, 150, 222, 1)"/>
      <stop offset="1" style="stop-color: rgb(255, 111, 88);"/>
    </linearGradient>
    <linearGradient id="gradient-19" gradientUnits="userSpaceOnUse" x1="57.73" y1="27.675" x2="57.73" y2="37.838">
      <stop offset="0" style="stop-color: rgba(34, 150, 222, 1)"/>
      <stop offset="1" style="stop-color: rgba(20, 90, 134, 1)"/>
    </linearGradient>
  </defs>
  <g>
    <path d="m48.434 14.488c0 0.32422-0.43359 0.64844-0.64844 0.75781l-0.64844 0.10938c-0.43359 0-0.75781 0.32422-0.75781 0.75781v0.75781l-4.5391 2.3789 0.75781 2.8125h0.86328l-0.32422-2.1641 5.082-2.3789h2.8125l5.082 2.3789-0.32422 2.1641h0.86328l0.75781-2.8125-4.4375-2.3867v-0.75781c0-0.43359-0.32422-0.75781-0.75781-0.75781l-0.43359-0.10938c-0.10938-0.10938-0.75781-0.43359-0.75781-0.75781 0-0.43359 2.3789-0.75781 2.3789-0.75781l6.4883-0.86328c0.21484 0.21484 0.43359 0.43359 0.64844 0.43359 0.64844 0 1.1875-1.082 1.1875-2.4883v-0.64844h-2.2695v0.10938 0.64844 0.32422h-7.8906c0-0.97266-0.86328-1.7305-1.8359-1.7305-0.97266 0-1.7305 0.75781-1.8359 1.7305h-7.7852v-0.32422-0.64844l-2.2734 0.003906v0.64844c0 1.2969 0.53906 2.4883 1.1875 2.4883 0.21484 0 0.43359-0.10938 0.64844-0.43359l6.4883 0.86328c0.43359 0 2.3789 0.32812 2.2734 0.65234z" style="fill: url(#gradient-15);"/>
    <path d="m64.973 8.9727c-1.7305 0-3.3516 0-4.2148 0.10938-0.10937-0.10938-0.10937-0.21484-0.21484-0.21484-0.10938 0-0.21484 0.10937-0.32422 0.32422-0.97266-0.10938-2.3789-0.21484-4.1094-0.21484-2.8125 0-5.082 0.32422-5.082 0.53906s2.2695 0.10938 5.082 0.10938c1.6211 0 3.0273 0 4-0.10938v0.10938 0.21484h0.75781v-0.21484-0.21484c0.97266 0.10938 2.3789 0.21484 4.1094 0.21484 2.8125 0 5.082-0.32422 5.082-0.53906-0.003906-0.11328-2.2734-0.11328-5.0859-0.11328z" style="fill: url(#gradient-16);"/>
    <path d="m38.594 9.6211v0.21484h0.75781v-0.21484-0.21484c0.97266 0.10938 2.3789 0.21484 4.1094 0.21484 2.8125 0 5.082-0.32422 5.082-0.53906 0-0.10938-2.2695-0.10938-5.082-0.10938-1.7305 0-3.3516 0-4.2148 0.10938-0.10938-0.10938-0.10938-0.21484-0.21484-0.21484-0.10938 0-0.21484 0.10937-0.32422 0.32422-0.97266-0.10938-2.3789-0.21484-4.1094-0.21484-2.8125 0-5.082 0.32422-5.082 0.53906s2.2695 0.10938 5.082 0.10938c1.6211 0 3.0273 0 4-0.10938-0.003906-0.003906-0.003906 0.10547-0.003906 0.10547z" style="fill: url(#gradient-17);"/>
    <path d="m61.836 41.621v0c-1.082-0.64844-6.2695-2.0547-10.164-3.1367l0.64844-17.73c0-1.2969-0.97266-2.3789-2.1641-2.3789-1.2969 0-2.3789 0.97266-2.3789 2.1641l-0.64844 17.297-3.6758 25.836-3.1367 21.836c-0.21484 1.5117 0.86328 2.918 2.3789 3.1367 1.5117 0.21484 2.918-0.86328 3.1367-2.3789l2.918-19.891 0.53906 0.10938-2.918 19.891c-0.21484 1.5117 0.86328 2.918 2.3789 3.1367 1.5117 0.21484 2.918-0.86328 3.1367-2.3789l2.918-19.891 2.4922-18.809 0.64844 0.43359-1.8359 12.434c-0.21484 1.2969 0.64844 2.3789 1.9453 2.5938 1.2969 0.21484 2.3789-0.64844 2.5938-1.9453l2.5938-17.836c0.21875-1.1953-0.42969-2.168-1.4062-2.4922z" style="fill: url(#gradient-18);"/>
    <path d="m62.812 32.758c0 6.7734-10.164 6.7734-10.164 0 0-6.7773 10.164-6.7773 10.164 0" style="fill: url(#gradient-19);"/>
  </g>
</svg>