<?xml version="1.0" encoding="UTF-8"?>
<svg fill="#FFFFFF" width="100pt" height="100pt" version="1.1" viewBox="0 0 100 100" xmlns="http://www.w3.org/2000/svg">
 <g>
  <path d="m45.621 52.359h-27.148l-0.078125 0.050781-0.070312 0.070313-0.050781 0.078125v0.089844h-0.003907c-0.003906 0.035156-0.003906 0.066406 0 0.10156v0.058594l0.41016 2.5586v0.003906c1.0898 6.082 3.9961 11.691 8.3359 16.09 4.3438 4.3945 9.9141 7.375 15.984 8.5391l2.5508 0.35156h0.070313c0.058594 0.007813 0.12109 0.007813 0.17969 0h0.058594l0.10156-0.058593v-0.058594l0.097656-0.23438c0.003906-0.027344 0.003906-0.054688 0-0.078125 0.003906-0.023437 0.003906-0.046875 0-0.070313v-27c0-0.25391-0.19141-0.46094-0.4375-0.49219zm-26.07 3l-0.32031-2h25.891v25.898l-2-0.26953c-5.8594-1.1055-11.242-3.9531-15.449-8.1797-4.207-4.2227-7.0391-9.6172-8.1211-15.48z"/>
  <path d="m93.809 49.34h-44.68v-44.668c0-0.27734-0.22266-0.5-0.5-0.5-0.27344 0-0.5 0.22266-0.5 0.5v14.84l-2.1211 0.10156 0.003907-0.003906c-7.1211 0.60938-13.793 3.7148-18.844 8.7656-5.0547 5.0547-8.1562 11.727-8.7695 18.844l-0.089844 2.1211h-14.848c-0.27734 0-0.5 0.22266-0.5 0.5s0.22266 0.5 0.5 0.5h44.668v44.738c0 0.27734 0.22656 0.5 0.5 0.5 0.27734 0 0.5-0.22266 0.5-0.5v-14.848l2.1289-0.089844h0.003907c7.1211-0.61719 13.797-3.7227 18.855-8.7773 5.0586-5.0508 8.1758-11.723 8.8047-18.844l0.078125-2.1797h14.809c0.27734 0 0.5-0.22266 0.5-0.5s-0.22266-0.5-0.5-0.5z"/>
  <path d="m51.648 47.391h27.148l0.078125-0.050781 0.125-0.12109v-0.16797c0.003906-0.035156 0.003906-0.066406 0-0.10156v-0.058594l-0.35156-2.6406c-1.1523-6.0508-4.0938-11.617-8.4414-15.98-4.3477-4.3633-9.9023-7.3242-15.945-8.5l-2.5508-0.35156-0.12109 0.003906h-0.17969l-0.10156 0.070313v0.058593l-0.058594 0.089844c-0.003906 0.03125-0.003906 0.058594 0 0.089844v0.058593 27c-0.03125 0.13281-0.003906 0.27344 0.070312 0.38672 0.078126 0.11328 0.19531 0.19141 0.32813 0.21484zm26.121-3l0.26953 2h-25.891v-25.902l2 0.26953v0.003907c5.8438 1.125 11.215 3.9727 15.426 8.1758 4.207 4.2031 7.0625 9.5703 8.1953 15.414z"/>
 </g>
</svg>
