<?xml version="1.0" encoding="utf-8"?>
<svg viewBox="0 137.536 468.037 194.58" width="468.037" height="194.58" xmlns="http://www.w3.org/2000/svg">
  <g>
    <title>ARPIE FONT</title>
    <path d="M 97.819 272.56 L 91.709 248.12 L 60.119 248.12 L 54.009 272.56 L 25.409 272.56 L 53.569 177.05 C 54.062 174.863 55.179 173.1 56.919 171.76 C 58.659 170.42 60.669 169.75 62.949 169.75 L 88.879 169.75 C 91.166 169.75 93.176 170.42 94.909 171.76 C 96.649 173.1 97.819 174.863 98.419 177.05 L 126.429 272.56 L 97.819 272.56 Z M 65.339 227.86 L 86.489 227.86 L 79.939 201.49 C 78.846 196.323 78.199 192.747 77.999 190.76 L 73.979 190.76 C 73.286 194.533 72.589 198.11 71.889 201.49 L 65.339 227.86 ZM 212.696 240.82 L 221.186 272.56 L 191.836 272.56 L 184.526 241.57 C 183.832 238.59 182.766 236.553 181.326 235.46 C 179.886 234.367 177.726 233.82 174.846 233.82 L 162.176 233.82 L 162.176 272.56 L 134.616 272.56 L 134.616 169.75 C 144.349 168.757 158.206 168.26 176.186 168.26 C 190.986 168.26 201.516 170.52 207.776 175.04 C 214.036 179.56 217.166 187.63 217.166 199.25 C 217.166 214.35 210.409 222.647 196.896 224.14 L 196.896 225.03 C 205.542 226.417 210.809 231.68 212.696 240.82 Z M 162.176 188.67 L 162.176 213.41 L 175.586 213.41 C 180.852 213.41 184.406 212.563 186.246 210.87 C 188.079 209.183 188.996 205.907 188.996 201.04 C 188.996 196.173 188.079 192.897 186.246 191.21 C 184.406 189.517 180.852 188.67 175.586 188.67 L 162.176 188.67 ZM 356.165 169.75 L 356.165 272.56 L 328.455 272.56 L 328.455 169.75 L 356.165 169.75 ZM 407.864 251.25 L 446.454 251.25 L 447.804 271.37 C 438.064 272.463 421.078 273.01 396.844 273.01 C 389.791 273.01 384.128 270.997 379.854 266.97 C 375.588 262.95 373.454 257.61 373.454 250.95 L 373.454 191.36 C 373.454 184.7 375.614 179.36 379.934 175.34 C 384.254 171.313 389.891 169.3 396.844 169.3 C 421.078 169.3 438.064 169.847 447.804 170.94 L 446.454 191.06 L 407.864 191.06 C 403.598 191.06 401.464 193.193 401.464 197.46 L 401.464 209.98 L 440.944 209.98 L 440.944 229.2 L 401.464 229.2 L 401.464 244.85 C 401.464 249.117 403.598 251.25 407.864 251.25 Z" transform="matrix(1, 0, 0, 1, 0, 0)" style="fill: rgb(255, 255, 255); white-space: pre;"/>
    <path d="M 263.399 300.238 L 235.389 300.238 L 235.389 197.428 C 245.122 196.435 258.929 195.938 276.809 195.938 C 292.309 195.938 302.912 198.321 308.619 203.088 C 314.332 207.855 317.189 216.945 317.189 230.358 C 317.189 243.571 314.532 252.585 309.219 257.398 C 303.906 262.218 294.396 264.628 280.689 264.628 C 275.622 264.628 269.859 264.281 263.399 263.588 L 263.399 300.238 Z M 263.399 216.348 L 263.399 244.218 L 276.219 244.218 C 281.279 244.218 284.706 243.275 286.499 241.388 C 288.286 239.495 289.179 235.818 289.179 230.358 C 289.179 224.798 288.286 221.071 286.499 219.178 C 284.706 217.291 281.279 216.348 276.219 216.348 L 263.399 216.348 Z" transform="matrix(1, 0, 0, 1, 0, 0)" style="fill: rgb(255, 255, 255); white-space: pre;"/>
  </g>
  <g>
    <title>BARS</title>
    <rect x="25.398" y="281.122" width="195.982" height="19.105" rx="3" ry="3" style="fill: rgb(255, 255, 255);"/>
    <rect x="328.658" y="280.879" width="119.788" height="19.105" rx="3" ry="3" style="fill: rgb(255, 255, 255);"/>
    <rect x="235.785" y="170.457" width="81.88" height="19.105" rx="3" ry="3" style="fill: rgb(255, 255, 255);"/>
  </g>
  <g style="visibility: hidden;">
    <title>SPECIAL R FONT</title>
    <path d="M 265.279 300.238 L 237.269 300.238 L 237.269 197.428 C 247.002 196.435 260.809 195.938 278.689 195.938 C 294.189 195.938 304.792 198.321 310.499 203.088 C 316.212 207.855 319.069 216.945 319.069 230.358 C 319.069 243.571 316.412 252.585 311.099 257.398 C 305.786 262.218 296.276 264.628 282.569 264.628 C 277.502 264.628 271.739 264.281 265.279 263.588 L 265.279 300.238 Z M 265.279 216.348 L 265.279 244.218 L 278.099 244.218 C 283.159 244.218 286.586 243.275 288.379 241.388 C 290.166 239.495 291.059 235.818 291.059 230.358 C 291.059 224.798 290.166 221.071 288.379 219.178 C 286.586 217.291 283.159 216.348 278.099 216.348 L 265.279 216.348 Z" transform="matrix(1, 0, 0, 1, 0, 0)" style="fill: rgb(51, 51, 51); white-space: pre;"/>
    <path d="M 212.89 243.017 L 221.38 274.757 L 192.03 274.757 L 184.72 243.767 C 184.027 240.787 182.96 238.75 181.52 237.657 C 180.08 236.564 177.92 236.017 175.04 236.017 L 170.313 236.017 L 170.313 215.607 L 175.78 215.607 C 181.047 215.607 184.6 214.76 186.44 213.067 C 188.273 211.38 189.19 208.104 189.19 203.237 C 189.19 198.37 188.273 195.094 186.44 193.407 C 184.6 191.714 181.047 190.867 175.78 190.867 L 162.37 190.867 L 162.37 211.043 L 162.313 211.043 L 162.313 243.091 L 162.37 243.091 L 162.37 274.757 L 134.81 274.757 L 134.81 171.947 C 144.543 170.954 158.4 170.457 176.38 170.457 C 191.18 170.457 201.71 172.717 207.97 177.237 C 214.23 181.757 217.36 189.827 217.36 201.447 C 217.36 216.547 210.603 224.844 197.09 226.337 L 197.09 227.227 C 205.737 228.614 211.003 233.877 212.89 243.017 Z" style="fill: rgb(51, 51, 51); white-space: pre;">
      <title>SPECIAL R</title>
    </path>
    <path d="M 356.149 169.994 L 356.149 272.804 L 328.439 272.804 L 328.439 169.994 L 356.149 169.994 ZM 407.849 251.494 L 446.439 251.494 L 447.789 271.614 C 438.049 272.707 421.062 273.254 396.829 273.254 C 389.775 273.254 384.112 271.241 379.839 267.214 C 375.572 263.194 373.439 257.854 373.439 251.194 L 373.439 191.604 C 373.439 184.944 375.599 179.604 379.919 175.584 C 384.239 171.557 389.875 169.544 396.829 169.544 C 421.062 169.544 438.049 170.091 447.789 171.184 L 446.439 191.304 L 407.849 191.304 C 403.582 191.304 401.449 193.437 401.449 197.704 L 401.449 210.224 L 440.929 210.224 L 440.929 229.444 L 401.449 229.444 L 401.449 245.094 C 401.449 249.361 403.582 251.494 407.849 251.494 Z" transform="matrix(1, 0, 0, 1, 0, 0)" style="fill: rgb(51, 51, 51); white-space: pre;"/>
    <path d="M 97.797 272.549 L 91.687 248.109 L 60.097 248.109 L 53.987 272.549 L 25.387 272.549 L 53.547 177.039 C 54.04 174.852 55.157 173.089 56.897 171.749 C 58.637 170.409 60.647 169.739 62.927 169.739 L 88.857 169.739 C 91.144 169.739 93.154 170.409 94.887 171.749 C 96.627 173.089 97.797 174.852 98.397 177.039 L 126.407 272.549 L 97.797 272.549 Z M 65.317 227.849 L 86.467 227.849 L 79.917 201.479 C 78.824 196.312 78.177 192.736 77.977 190.749 L 73.957 190.749 C 73.264 194.522 72.567 198.099 71.867 201.479 L 65.317 227.849 Z" transform="matrix(1, 0, 0, 1, 0, 0)" style="fill: rgb(51, 51, 51); white-space: pre;"/>
  </g>
</svg>