<?xml version="1.0" encoding="UTF-8"?>
<svg fill="#FFFFFF" width="100pt" height="100pt" version="1.1" viewBox="0 0 100 100" xmlns="http://www.w3.org/2000/svg">
 <g>
  <path d="m78.691 22.91c-1.8516-0.57422-4.4297-0.33984-6.3867-0.72266-0.007813 0.023438-0.003907 0.039062-0.011719 0.0625 2.6484 3.7266 15.586 2.1914 12.777 18.324 3.8555-7.4102 0.78125-15.434-6.3789-17.664z"/>
  <path d="m82.934 17.152c-3.8516-3.1641-10.16-4.8086-15.141-1.2227-0.74219 0.53516-1.4414 1.2773-3.4883 1.7031 1.6992 0.33984 3.4883 0.33984 5.7031-0.25391 1.8945-0.51172 5.2266-3.8516 12.926-0.22656z"/>
  <path d="m37.023 36.531c-2.4688 0-4.4688 2-4.4688 4.4688s2 4.4688 4.4688 4.4688 4.4688-2 4.4688-4.4688-2-4.4688-4.4688-4.4688zm1.7031 4c-0.63281 0-1.1484-0.51562-1.1484-1.1484 0-0.63672 0.51562-1.1484 1.1484-1.1484 0.63672 0 1.1484 0.51562 1.1484 1.1484 0 0.63281-0.51562 1.1484-1.1484 1.1484z"/>
  <path d="m31.449 45.812s1.6172 1.957 5.2773 1.957c3.6602 0 4.7656-2.7227 4.7656-2.7227s-0.9375 3.7461-4.8516 3.7461c-3.9141-0.003907-5.1914-2.9805-5.1914-2.9805z"/>
  <path d="m57.582 44.789s1.6172 2.9805 5.2773 2.9805 4.7656-1.6992 4.7656-1.6992-0.9375 2.7227-4.8516 2.7227c-3.9141-0.003907-5.1914-4.0039-5.1914-4.0039z"/>
  <path d="m62.051 36.531c-2.4688 0-4.4688 2-4.4688 4.4688s2 4.4688 4.4688 4.4688 4.4688-2 4.4688-4.4688-2-4.4688-4.4688-4.4688zm1.957 4c-0.63281 0-1.1484-0.51562-1.1484-1.1484 0-0.63672 0.51562-1.1484 1.1484-1.1484 0.63672 0 1.1484 0.51562 1.1484 1.1484 0 0.63281-0.51172 1.1484-1.1484 1.1484z"/>
  <path d="m43.152 5.3359s-2.7656-0.042969-3.3633 2.2578c-0.59766 2.2969 1.0664 6.3867 3.1406 8.4609-0.58594-2.9492-3.2188-8.0391 0.22266-10.719z"/>
  <path d="m45.578 5.8867c-1.2344 1.2344-2.4688 4.9375 0 8.6836-0.59766-2.7227 0.082031-9.6172 3.957-10.258-1.5859 0-2.7227 0.33984-3.957 1.5742z"/>
  <path d="m47.793 13.672s0.40625-8.2812 7.8398-9.0859c4.5898-0.49609 8.1875 0.96094 10.203 2.0859-4.5977-1.125-13.922-1.4023-18.043 7z"/>
  <path d="m15.957 34.488s-5.5312-2.3008-8.7656 2.8945c-0.9375 2.8086-0.59766 2.8945-0.59766 2.8945 0-0.003906 2.1289-5.3633 9.3633-5.7891z"/>
  <path d="m8.8086 50.746c-3.5234-3.5273-2.2148-14.043 6.1289-13.789-4.6797 1.4453-7.4062 7.1484-6.1289 13.789z"/>
  <path d="m2.0859 59.684c-0.76953 7.793 13.617 7.1484 11.32-3.9141-0.25781 8.6758-11.492 9.1875-11.32 3.9141z"/>
  <path d="m36.684 15.887s-3.1484-2.7227-4.9375-2.8945c3.2773-0.042969 4.2539-2.2969 4.2539-2.2969-0.25391 2.1289-0.16797 3.7461 0.68359 5.1914z"/>
  <path d="m85.156 44.895c0.27344 2.8438 2.9062 4.8906 5.5781 4.8906 2.9258 0 6.5312 3.2891 3.8789 7.2891 0 0 1.293-4.8867-4.625-6.043-5.0469-0.98828-4.832-6.1367-4.832-6.1367z"/>
  <path d="m76.512 18.727c7.5703 0.011719 13.695 6.1367 13.711 13.707 0 4.8867-2.8516 9.1172-4.4688 10.816 1.7148-0.55078 5.9961-5.3867 5.9961-10.816 0-8.418-6.8242-15.07-15.238-15.238-3.5234-0.070312-5.7383 1.8008-9.3125 1.375 2.8086 1.7031 7.1562 0.15625 9.3125 0.15625z"/>
  <path d="m84.266 48.148s0.38281 5.4883 5.3633 6c3.5312 0.35937 3.5664 4.0078 1.9844 8.3008 3.5273-5.0859 3.1641-6.9961 0.60938-8.5859-2.5586-1.5938-7.2305-0.94531-7.957-5.7148z"/>
  <path d="m84.902 75.855c4.9805 5.7422 12.895-0.64062 9.5742-4.3438 6.2539 1.5352-1.9141 13.918-9.5742 4.3438z"/>
  <path d="m4.082 70.797c4.25 1.1016 8.8984-1.5156 9.5664-7.4648-2.6289 3.457-3.3555 5.9062-9.5664 7.4648z"/>
  <path d="m90.773 41.004l0.89453-1.4336s5.1328 2.9414 2.8828 9.3242c0.39062-4.2539-0.94141-6.6484-3.7773-7.8906z"/>
  <path d="m80.176 75.438c-0.34375 0.60156-0.71875 1.1797-1.0898 1.7578-2.0312 2.6328-5.5742 7.0898-9.8867 10.406 4.668-2.0039 8.7656-6.3477 10.547-8.4219 5.2461 6.5625 15.891 3.7891 17.16-0.13281-3.7617 4.3594-13.266 5.2656-16.73-3.6094z"/>
  <path d="m91.797 17.617c2.0195 0.26172 6.5039-0.46094 5.6172-3.9883 0.058594 1.668-2.6914 4.6094-7.1055 2.6133-6.4375-2.9141-16.598-14.078-28.473-2.0156-2.5977-0.76562-8.5273 0.22656-9.2773 2.6367 4.9219-2.3281 9.1094 1.1914 12-1.1914 4.1914-3.4492 8.4141-4.8086 13.895-3.3281 4.8164 1.3047 9.5508 4.7852 13.344 5.2734z"/>
  <path d="m75.965 55.039h-15.793c-0.35938-0.30078-0.8125-0.48828-1.3164-0.48828-1.1289 0-2.0391 0.91406-2.0391 2.043h-0.003906c-0.007812 3.332-3.0156 6.2734-7.0195 6.2812-4.0078-0.011719-7.0156-2.9492-7.0234-6.2812-0.019531-2.3086 1.3789-4.5312 3.125-6.3672 0.85938-0.91016 2.6602-2.8477 3.207-3.3945 1.9805-1.9805 2.5391-3.8086 2.5391-5.3828 0-3.4258-1.7227-5.1719-3.3398-5.1719 0 0 2.0195 3.5742-0.25391 6.3828-0.68359 0.84375-1.6953 1.6367-2.4648 2.2812-1.168 1.0156-2.7812 2.4219-4.1562 4.2422-5.7188 0.5-9.2969 4.4062-9.3828 5.6445 1.6172-1.875 5.3359-3.6719 8.375-4.1406-0.75391 1.2812-1.3438 2.7266-1.5938 4.3477l-14.82 0.003906c-1.8828 0-3.5391 0.53125-4.8945 1.4375-0.074219-1.0195-0.12109-2.0469-0.12109-3.0938-0.003906-10.09 3.5781-19.191 9.3008-25.734 3.8164-4.3594 8.5547-7.5742 13.832-9.2383 0.14844-0.046875 1.2461-0.39062 1.9688-0.51953 0 0-2.0742-1.5273-3.4336-2.8984-1.7227-2.1328-2.7617-4.0625-2.3945-7.3164 0 0-3.2617 3.5703 0.15234 7.7422-0.97656 0.39844-1.9336 0.84766-2.8672 1.3398-1.3203-1.4023-6.3711-6.0781-10.477-0.65234 2.6992-2.5352 6.3359 0.035156 8.0508 2.0508-0.48438 0.30859-0.96484 0.62891-1.4375 0.96094-1.8828-1.457-5.9219-3.3516-9.5938-0.45703-3.3203 2.6172-4.1484 10.023-9.3828 10.852s-5.2344 5.043-5.2344 5.043 0.89453-3.5117 7.7891-3.5742 6.0664-11.234 12-8.4883c0.085937 0.039062 0.15234 0.058593 0.23047 0.09375-0.78906 0.75781-1.5508 1.5508-2.2773 2.3789-6.3945 7.3203-10.309 17.363-10.312 28.426 0 2.7656 0.26953 5.4531 0.73828 8.0664-0.20312 0.78125-0.31641 1.6094-0.31641 2.4648 0 2.9727 1.2656 5.5977 3.2031 7.207 4.2422 9.8281 11.902 17.441 21.352 20.785 0.011719 0.019532 0.023438 0.042969 0.035156 0.0625 2.2812 3.5625 5.7031 6.0898 9.7539 6.1016 4.0508-0.011719 7.4688-2.5391 9.75-6.1016 2.3086-3.5859 3.6484-8.3398 3.6562-13.562h-0.003907c-0.007812-1.0195-0.054687-1.9297-0.15234-2.7578 0.99219-0.96875 2.1055-2.582 2.2969-2.8594h11.773c4.2305 0 7.6602-3.9727 7.6602-8.875-0.003907-4.9062-3.1289-8.8828-8.6836-8.8828zm-52.082 17.746h9.8945c0.21094 0.3125 1.5625 2.2695 2.6172 3.1562-0.089843 0.75781-0.13672 1.5703-0.14062 2.4648 0.003906 2.8359 0.41406 5.5234 1.1445 7.9727-5.5352-2.9141-10.246-7.6602-13.516-13.594zm32.723 17.586c-1.9922 3.0625-4.4531 4.6055-6.8789 4.5977-2.4258 0.011719-4.8867-1.5312-6.8828-4.5977-1.9648-3.0391-3.2734-7.4531-3.2695-12.363 0-2.2031 0.19141-3.9141 0.51562-5.2227h8.2227c0.19922 2.6758 0.89062 11.566 1.4805 13.406 0.10938-3.0078 0.48047-10.426 0.63281-13.406h8.8945c0.34766 1.3203 0.55078 3.0352 0.55078 5.2227 0.007812 4.9141-1.3008 9.3281-3.2656 12.363zm20.738-20.586c0.82031-1.1992 2.5391-4.0742 1.9492-6.3867-0.67969 3.918-3.707 5.8672-4.7852 6.4492h-0.097656c0.79297-1.0586 2.3594-3.6602 1.4336-6.832-0.58984 4.5273-2.1992 6.2227-3.0898 6.832h-1.2773c0.79297-1.0586 2.3594-3.6602 1.4336-6.832-0.58984 4.5273-2.2031 6.4805-3.0938 7.0898h-6.9648c0.53516-0.72266 1.3125-2.5625 1.1836-5.6211-0.60547 3.3281-2 4.7539-2.8398 5.3242 0.45313-0.88672 0.89453-2.3633 0.79688-4.7305-0.46484 2.5508-1.3906 4.4883-2.1758 5.2773h-0.25c0.49219-0.77734 1.6523-4.5859 0.38672-7.6172 0.48828 4.0078-2.2148 7.1055-3.2383 7.5547h-2.2383c-1.3867-0.27344-2.0664-1.2148-2.6836-2.0195-0.33203 0.72656-1.4375 1.332-1.918 1.5703h-0.27344l-0.59766-1.6133-0.24219 1.6133h-0.65234c-0.37891-0.37891-0.90234-1.0078-1.4648-1.9961-0.039062 0.67969 0.90625 2.1367 1.1406 2.6719h-2.6953c-1.1445-0.40625-3.6367-2.1328-4.2305-4.8242-0.11328 2.207 0.94531 3.9414 1.4492 4.6172h-1.9102c-0.84766-0.62891-2.6016-2.5352-3.1797-5.6992-0.12109 2.8828 1.0078 4.9023 1.5352 5.6797l-2.2344 0.003906c-2.1133-0.48047-5.0273-3.0195-5.9648-5.5938-0.11328 1.8203 0.57812 4.1562 1.1445 5.1484h-3.3789c-0.91406-0.70312-2.3633-2.4609-2.9141-6.7031-0.89062 3.0469 0.52344 5.5703 1.3398 6.7031h-0.56641c-1.5156-0.63672-4.3594-2.4102-4.8516-6.9336-0.63281 4.0078 0.66406 5.9531 1.7461 6.8555-2.8711-0.44922-5.0703-2.9258-5.0703-5.9219 0-3.3125 2.6875-6.0039 6-6.0039l14.766-0.050781c0.66016 5.2656 5.4375 9.1562 11.023 9.168 5.5859-0.011719 10.363-3.9023 11.023-9.168l15.711 0.054687c3.3164 0 6 2.6875 6 6.0039 0 3.0312-2.2578 5.5352-5.1836 5.9297z"/>
 </g>
</svg>
