<?xml version="1.0" encoding="UTF-8"?>
<svg fill="#FFFFFF" width="100pt" height="100pt" version="1.1" viewBox="0 0 100 100" xmlns="http://www.w3.org/2000/svg">
 <g>
  <path d="m81.25 96.875h-62.5c-2.5859 0-4.6875-2.1016-4.6875-4.6875v-84.375c0-2.5859 2.1016-4.6875 4.6875-4.6875h62.5c2.5859 0 4.6875 2.1016 4.6875 4.6875v84.375c0 2.5859-2.1016 4.6875-4.6875 4.6875zm-62.5-90.625c-0.85938 0-1.5625 0.69922-1.5625 1.5625v84.375c0 0.86328 0.70312 1.5625 1.5625 1.5625h62.5c0.85938 0 1.5625-0.69922 1.5625-1.5625v-84.375c0-0.86328-0.70312-1.5625-1.5625-1.5625z"/>
  <path d="m78.125 31.25h-56.25c-0.86328 0-1.5625-0.69922-1.5625-1.5625v-18.75c0-0.86328 0.69922-1.5625 1.5625-1.5625h56.25c0.86328 0 1.5625 0.69922 1.5625 1.5625v18.75c0 0.86328-0.69922 1.5625-1.5625 1.5625zm-54.688-3.125h53.125v-15.625h-53.125z"/>
  <path d="m76.562 43.75h-53.125c-0.86328 0-1.5625-0.69922-1.5625-1.5625v-6.25c0-0.86328 0.69922-1.5625 1.5625-1.5625h53.125c0.86328 0 1.5625 0.69922 1.5625 1.5625v6.25c0 0.86328-0.69922 1.5625-1.5625 1.5625zm-51.562-3.125h50v-3.125h-50z"/>
  <path d="m78.125 90.625h-9.375c-0.86328 0-1.5625-0.69922-1.5625-1.5625v-21.875c0-0.86328 0.69922-1.5625 1.5625-1.5625h9.375c0.86328 0 1.5625 0.69922 1.5625 1.5625v21.875c0 0.86328-0.69922 1.5625-1.5625 1.5625zm-7.8125-3.125h6.25v-18.75h-6.25z"/>
  <path d="m78.125 62.5h-9.375c-0.86328 0-1.5625-0.69922-1.5625-1.5625v-12.5c0-0.86328 0.69922-1.5625 1.5625-1.5625h9.375c0.86328 0 1.5625 0.69922 1.5625 1.5625v12.5c0 0.86328-0.69922 1.5625-1.5625 1.5625zm-7.8125-3.125h6.25v-9.375h-6.25z"/>
  <path d="m31.25 59.375h-9.375c-0.86328 0-1.5625-0.69922-1.5625-1.5625v-9.375c0-0.86328 0.69922-1.5625 1.5625-1.5625h9.375c0.86328 0 1.5625 0.69922 1.5625 1.5625v9.375c0 0.86328-0.69922 1.5625-1.5625 1.5625zm-7.8125-3.125h6.25v-6.25h-6.25z"/>
  <path d="m46.875 59.375h-9.375c-0.86328 0-1.5625-0.69922-1.5625-1.5625v-9.375c0-0.86328 0.69922-1.5625 1.5625-1.5625h9.375c0.86328 0 1.5625 0.69922 1.5625 1.5625v9.375c0 0.86328-0.69922 1.5625-1.5625 1.5625zm-7.8125-3.125h6.25v-6.25h-6.25z"/>
  <path d="m62.5 59.375h-9.375c-0.86328 0-1.5625-0.69922-1.5625-1.5625v-9.375c0-0.86328 0.69922-1.5625 1.5625-1.5625h9.375c0.86328 0 1.5625 0.69922 1.5625 1.5625v9.375c0 0.86328-0.69922 1.5625-1.5625 1.5625zm-7.8125-3.125h6.25v-6.25h-6.25z"/>
  <path d="m31.25 75h-9.375c-0.86328 0-1.5625-0.69922-1.5625-1.5625v-9.375c0-0.86328 0.69922-1.5625 1.5625-1.5625h9.375c0.86328 0 1.5625 0.69922 1.5625 1.5625v9.375c0 0.86328-0.69922 1.5625-1.5625 1.5625zm-7.8125-3.125h6.25v-6.25h-6.25z"/>
  <path d="m46.875 75h-9.375c-0.86328 0-1.5625-0.69922-1.5625-1.5625v-9.375c0-0.86328 0.69922-1.5625 1.5625-1.5625h9.375c0.86328 0 1.5625 0.69922 1.5625 1.5625v9.375c0 0.86328-0.69922 1.5625-1.5625 1.5625zm-7.8125-3.125h6.25v-6.25h-6.25z"/>
  <path d="m62.5 75h-9.375c-0.86328 0-1.5625-0.69922-1.5625-1.5625v-9.375c0-0.86328 0.69922-1.5625 1.5625-1.5625h9.375c0.86328 0 1.5625 0.69922 1.5625 1.5625v9.375c0 0.86328-0.69922 1.5625-1.5625 1.5625zm-7.8125-3.125h6.25v-6.25h-6.25z"/>
  <path d="m31.25 90.625h-9.375c-0.86328 0-1.5625-0.69922-1.5625-1.5625v-9.375c0-0.86328 0.69922-1.5625 1.5625-1.5625h9.375c0.86328 0 1.5625 0.69922 1.5625 1.5625v9.375c0 0.86328-0.69922 1.5625-1.5625 1.5625zm-7.8125-3.125h6.25v-6.25h-6.25z"/>
  <path d="m46.875 90.625h-9.375c-0.86328 0-1.5625-0.69922-1.5625-1.5625v-9.375c0-0.86328 0.69922-1.5625 1.5625-1.5625h9.375c0.86328 0 1.5625 0.69922 1.5625 1.5625v9.375c0 0.86328-0.69922 1.5625-1.5625 1.5625zm-7.8125-3.125h6.25v-6.25h-6.25z"/>
  <path d="m62.5 90.625h-9.375c-0.86328 0-1.5625-0.69922-1.5625-1.5625v-9.375c0-0.86328 0.69922-1.5625 1.5625-1.5625h9.375c0.86328 0 1.5625 0.69922 1.5625 1.5625v9.375c0 0.86328-0.69922 1.5625-1.5625 1.5625zm-7.8125-3.125h6.25v-6.25h-6.25z"/>
 </g>
</svg>
