<?xml version="1.0" encoding="utf-8"?>
<svg fill="#FFFFFF" width="100pt" height="100pt" version="1.1" viewBox="0 0 100 100" xmlns="http://www.w3.org/2000/svg">
  <defs>
    <linearGradient id="gradient-0" gradientUnits="userSpaceOnUse" x1="50.99" y1="45.273" x2="50.99" y2="62.418" gradientTransform="matrix(0.699998, 0.714144, -0.984498, 0.964996, 68.345348, -34.604415)">
      <stop offset="0" style="stop-color: rgb(34, 151, 222);"/>
      <stop offset="1" style="stop-color: rgb(255, 111, 88);"/>
    </linearGradient>
    <linearGradient id="gradient-2" gradientUnits="userSpaceOnUse" x1="45.328" y1="7.582" x2="45.328" y2="87.806" gradientTransform="matrix(0.929396, -0.369082, 0.406776, 1.024313, -12.036904, 16.545417)">
      <stop offset="0" style="stop-color: rgb(34, 151, 222);"/>
      <stop offset="1" style="stop-color: rgb(255, 111, 88);"/>
    </linearGradient>
  </defs>
  <g>
    <path d="m42.418 62.418h17.145l-0.003906-17.145h-17.141zm3.4062-13.738h10.328v10.328h-10.328z" style="fill: url(#gradient-0);"/>
    <path d="m68.242 26.043h7.4727c0.66016 1.8672 2.418 3.0781 4.5039 3.0781 2.6367 0 4.8359-2.1992 4.8359-4.8359 0-2.6367-2.1992-4.8359-4.8359-4.8359-2.0898 0-3.8477 1.3203-4.5039 3.0781h-7.4727c-0.55078-0.76953-1.4297-1.3203-2.5273-1.3203-1.6484 0-3.0781 1.3203-3.0781 3.0781 0 1.0977 0.55078 1.9766 1.3203 2.5273v5.3828h-10.77v-5.3828c0.76953-0.55078 1.3203-1.4297 1.3203-2.5273 0-1.6484-1.3203-3.0781-3.0781-3.0781-1.7578 0-3.0781 1.4297-3.0781 3.0781 0 1.0977 0.55078 1.9766 1.3203 2.5273v5.3828h-10.77v-5.3828c0.76953-0.55078 1.3203-1.4297 1.3203-2.5273s-0.55078-1.9766-1.3203-2.5273v-4.8359c1.8672-0.66016 3.0781-2.418 3.0781-4.5039 0-2.6367-2.1992-4.8359-4.8359-4.8359s-4.8359 2.1992-4.8359 4.8359c0 2.0898 1.3203 3.8477 3.0781 4.5039v4.8359c-0.76953 0.55078-1.3203 1.4297-1.3203 2.5273s0.55078 1.9766 1.3203 2.5273v5.3828h-6.2656v5.7148h-4.9453c-0.55078-0.76953-1.4297-1.3203-2.5273-1.3203-1.0977 0-1.9766 0.55078-2.5273 1.3203h-10.441v5.9336c-1.8672 0.66016-3.1836 2.4219-3.1836 4.5078 0 2.6367 2.1992 4.8359 4.8359 4.8359s4.8359-2.1992 4.8359-4.8359c0-2.0898-1.3203-3.8477-3.0781-4.5039v-2.418h7.1445c0.55078 0.76953 1.4297 1.3203 2.5273 1.3203 1.0977 0 1.9766-0.55078 2.5273-1.3203h4.9453v10.77h-4.9453c-0.55078-0.76953-1.4297-1.3203-2.5273-1.3203-1.6484 0-3.0781 1.3203-3.0781 3.0781 0 1.7578 1.3203 3.0781 3.0781 3.0781 1.0977 0 1.9766-0.55078 2.5273-1.3203h4.9453v10.77h-4.9453c-0.55078-0.76953-1.4297-1.3203-2.5273-1.3203-1.0977 0-1.9766 0.55078-2.5273 1.3203h-4.3945c-0.66016-1.8672-2.418-3.0781-4.5039-3.0781-2.6445-0.10938-4.8398 1.9766-4.8398 4.7266 0 2.7461 2.1992 4.8359 4.8359 4.8359 2.0898 0 3.8477-1.3203 4.5039-3.0781h4.3945c0.55078 0.76953 1.4297 1.3203 2.5273 1.3203 1.0977 0 1.9766-0.55078 2.5273-1.3203h4.9453v5.4961h6.2656v5.3828c-0.21875 0.10938-0.32812 0.21875-0.44141 0.44141h-8.793c-0.66016-1.8672-2.418-3.0781-4.5039-3.0781-2.6367 0-4.8359 2.1992-4.8359 4.8359s2.1992 4.8359 4.8359 4.8359c2.0898 0 3.8477-1.3203 4.5039-3.0781h8.2422c0.44141 0.98828 1.5391 1.7578 2.7461 1.7578 1.6484 0 3.0781-1.3203 3.0781-3.0781 0-1.0977-0.55078-1.9766-1.3203-2.5273v-5.3828h10.77v5.3828c-0.76953 0.55078-1.3203 1.4297-1.3203 2.5273 0 1.6484 1.3203 3.0781 3.0781 3.0781 1.7578 0 3.0781-1.3203 3.0781-3.0781 0-1.0977-0.55078-1.9766-1.3203-2.5273v-5.3828h10.77v5.3828c-0.76953 0.55078-1.3203 1.4297-1.3203 2.5273 0 1.6484 1.3203 3.0781 3.0781 3.0781 1.7578 0 3.0781-1.3203 3.0781-3.0781 0-1.0977-0.55078-1.9766-1.3203-2.5273v-5.3828c2.9688 0 5.2734-2.418 5.2734-5.3828v-0.10938h4.9453c0.21875 0.32812 0.44141 0.55078 0.76953 0.76953v7.6914c-1.8672 0.66016-3.0781 2.418-3.0781 4.5039 0 2.6367 2.1992 4.8359 4.8359 4.8359s4.8359-2.1992 4.8359-4.8359c0-2.0898-1.3203-3.8477-3.0781-4.5039v-7.6914c0.76953-0.55078 1.3203-1.4297 1.3203-2.5273 0-1.6484-1.3203-3.0781-3.0781-3.0781-1.0977 0-1.9766 0.55078-2.5273 1.3203h-4.9453v-10.77h4.9453c0.55078 0.76953 1.4297 1.3203 2.5273 1.3203 1.6484 0 3.0781-1.3203 3.0781-3.0781 0-1.7578-1.3203-3.0781-3.0781-3.0781-1.0977 0-1.9766 0.55078-2.5273 1.3203h-4.9453v-10.77h4.9453c0.55078 0.76953 1.4297 1.3203 2.5273 1.3203 1.6484 0 3.0781-1.3203 3.0781-3.0781 0-1.7578-1.3203-3.0781-3.0781-3.0781-1.0977 0-1.9766 0.55078-2.5273 1.3203h-4.9453v-5.7148h-5.2734v-5.3828c0.11328-0.22656 0.44531-0.44531 0.66406-0.77734zm-30.988-14.945c0.76953 0 1.4297 0.66016 1.4297 1.4297 0 0.44141-0.21875 0.87891-0.55078 1.0977-0.21875-0.10938-0.55078-0.21875-0.76953-0.21875-0.32812 0-0.55078 0.10938-0.76953 0.21875-0.32812-0.21875-0.55078-0.66016-0.55078-1.0977-0.21875-0.76953 0.44141-1.4297 1.2109-1.4297zm-26.926 38.574c-0.76953 0-1.4297-0.66016-1.4297-1.4297 0-0.76953 0.66016-1.4297 1.4297-1.4297s1.4297 0.66016 1.4297 1.4297c0 0.87891-0.66016 1.4297-1.4297 1.4297zm0 19.777c-0.76953 0-1.4297-0.66016-1.4297-1.4297s0.66016-1.4297 1.4297-1.4297 1.4297 0.66016 1.4297 1.4297c0 0.77344-0.66016 1.4297-1.4297 1.4297zm11.43 14.727c-0.76953 0-1.4297-0.66016-1.4297-1.4297 0-0.76953 0.66016-1.4297 1.4297-1.4297 0.76953 0 1.4297 0.66016 1.4297 1.4297 0 0.87891-0.66016 1.4297-1.4297 1.4297zm58.461 0c-0.76953 0-1.4297-0.66016-1.4297-1.4297 0-0.76953 0.66016-1.4297 1.4297-1.4297s1.4297 0.66016 1.4297 1.4297c-0.10938 0.87891-0.66016 1.4297-1.4297 1.4297zm-10.988-14.285c0 1.0977-0.87891 1.9766-1.9766 1.9766h-34.508v-36.262h36.484zm10.988-47.035c0.76953 0 1.4297 0.66016 1.4297 1.4297 0 0.76953-0.66016 1.4297-1.4297 1.4297s-1.4297-0.66016-1.4297-1.4297c0.003907-0.76953 0.55078-1.4297 1.4297-1.4297z" style="fill: url(#gradient-2);"/>
  </g>
</svg>