<?xml version="1.0" encoding="UTF-8"?>
<svg width="100pt" height="100pt" version="1.1" viewBox="0 0 100 100" xmlns="http://www.w3.org/2000/svg">
 <path d="m71.484 33.887c-12.012-0.15625-21.035 0-21.113 0-0.097656 0-9.1211-0.15625-21.133 0v-0.25391c12.012-0.15625 21.035 0 21.133 0 0.078125 0 9.1211-0.15625 21.113 0z"/>
 <path d="m75.859 45.547c-1.4062-1.1133-8.7305-4.7852-8.8086-4.8047l-0.25391-0.11719 7.0898-2.832c1.543-0.11719 2.5586-0.52734 3.0469-1.25 0.42969-0.625 0.27344-1.2891 0.25391-1.4258-0.039062-0.019532-0.17578-0.11719-0.625-0.27344l0.078125-0.23438c0.58594 0.21484 0.72266 0.33203 0.76172 0.39062l0.019531 0.039062c0.019531 0.039063 0.27344 0.87891-0.27344 1.6797-0.52734 0.78125-1.6016 1.2305-3.2227 1.3477l-6.5234 2.5586c1.3281 0.66406 7.3047 3.6914 8.5938 4.707z"/>
 <path d="m50.352 54.219c-0.9375 0-1.875-0.078125-2.793-0.21484-0.91797-0.15625-1.8359-0.37109-2.7148-0.66406l-5.4688-2.5586-13.359-1.3477c-2.8711 1.5625-5.1172 1.3477-6.5039 0.89844-1.5039-0.48828-2.3242-1.3477-2.3633-1.3867l-0.039063-0.039062v-1.25l1.0742-0.64453 0.64453-0.21484 0.078125 0.23438-0.64453 0.21484-0.91797 0.56641v1.0156c0.35156 0.35156 3.5156 3.1641 8.5547 0.39062l0.039062-0.019531 13.516 1.3672 5.4492 2.5586c0.85938 0.27344 1.7578 0.50781 2.6562 0.64453 2.7344 0.44922 5.5859 0.21484 8.2227-0.66406l5.4688-2.5586 13.477-1.3672 0.039063 0.019531c5.0586 2.7734 8.2031-0.039063 8.5547-0.39062v-1.0352l-0.72266-0.72266-0.25391-0.058593 0.058594-0.25391 0.33203 0.078125 0.83984 0.83984v1.2305l-0.039063 0.039062c-0.039062 0.039063-3.3594 3.4961-8.8672 0.48828l-13.34 1.3672-5.4297 2.5391c-1.7969 0.60547-3.6719 0.89844-5.5469 0.89844z"/>
 <path d="m24.863 45.547l-0.15625-0.19531c1.2891-1.0156 7.2656-4.043 8.5938-4.707l-6.5039-2.5977c-1.6016-0.11719-2.6953-0.56641-3.2227-1.3477-0.54688-0.80078-0.27344-1.6406-0.27344-1.6797l0.019531-0.039062 0.039063-0.019531c0.019531 0 0.27344-0.19531 0.60547-0.33203l0.097656 0.23438c-0.25391 0.097657-0.44922 0.23438-0.52734 0.29297-0.039062 0.15625-0.15625 0.82031 0.25391 1.4258 0.48828 0.72266 1.5039 1.1328 3.0469 1.25h0.039062l7.0508 2.8125-0.25391 0.11719c-0.078125 0-7.4023 3.6719-8.8086 4.7852z"/>
 <path d="m50.352 55.176c-2.3242 0-2.8711-0.70312-2.8906-0.72266l-0.019532-0.039063v-0.54687h0.25391v0.44922c0.11719 0.11719 0.74219 0.60547 2.6562 0.60547 1.9141 0 2.6562-0.46875 2.832-0.58594v-0.44922h0.25391v0.56641l-0.039062 0.039063c-0.039063 0.019531-0.72266 0.68359-3.0469 0.68359z"/>
 <path d="m50.469 56.582c-1.9727 0-3.2031-0.72266-3.2617-0.76172l-0.058593-0.039062v-1.4062l0.3125-0.097656 0.078124 0.23438-0.13672 0.039062v1.0938c0.27344 0.13672 1.4062 0.68359 3.0664 0.68359s2.7344-0.54688 3.0078-0.68359v-1.0938l-0.15625-0.039062 0.078126-0.23438 0.35156 0.097656v1.4062l-0.058594 0.039062c-0.078125 0.019532-1.25 0.76172-3.2227 0.76172z"/>
 <path d="m50.391 58.066c-1.8359 0-2.4414-0.35156-2.4609-0.37109l-0.058594-0.039062v-1.6211h0.25391v1.4648c0.19531 0.078125 0.83984 0.3125 2.2656 0.3125 1.4453 0 2.1484-0.23438 2.3438-0.3125v-1.4062h0.25391v1.5625l-0.058593 0.039062c-0.019532 0-0.70313 0.37109-2.5391 0.37109z"/>
 <path d="m52.676 60.176h-4.4727v-2.4805h0.23438v2.2266h3.9844v-2.207h0.25391z"/>
 <path d="m50.312 67.969c-1.7188 0-3.1055-1.3867-3.1055-3.1055s1.3867-3.1055 3.1055-3.1055 3.1055 1.3867 3.1055 3.1055-1.3867 3.1055-3.1055 3.1055zm0-5.957c-1.582 0-2.8516 1.2891-2.8516 2.8516 0 1.582 1.2891 2.8516 2.8516 2.8516 1.582 0 2.8516-1.2891 2.8516-2.8516 0-1.582-1.2695-2.8516-2.8516-2.8516z"/>
 <path d="m53.398 65.41l-0.23438-0.097656c0.21484-0.44922 0.3125-0.9375 0.3125-1.4258 0-1.8164-1.4062-3.2812-3.125-3.2812s-3.125 1.4648-3.125 3.2812c0 0.41016 0.078126 0.82031 0.21484 1.1914l-0.23438 0.097656c-0.15625-0.41016-0.23438-0.83984-0.23438-1.2891 0-1.9531 1.5234-3.5352 3.3789-3.5352 1.8555 0 3.3789 1.582 3.3789 3.5352 0 0.52734-0.11719 1.0352-0.33203 1.5234z"/>
 <path d="m54.316 66.855h-1.6797v-0.25391h1.6797c0.3125 0 0.56641-0.25391 0.56641-0.56641v-5.3516c0-0.3125-0.25391-0.56641-0.56641-0.56641h-8.0273c-0.3125 0-0.56641 0.25391-0.56641 0.56641v5.3516c0 0.3125 0.25391 0.56641 0.56641 0.56641h1.6992v0.25391h-1.6992c-0.44922 0-0.82031-0.37109-0.82031-0.82031v-5.3516c0-0.44922 0.37109-0.82031 0.82031-0.82031h8.0273c0.44922 0 0.82031 0.37109 0.82031 0.82031v5.3516c0 0.44922-0.37109 0.82031-0.82031 0.82031z"/>
 <path d="m45.742 65.527h-1.9922c-0.3125 0-0.56641-0.25391-0.56641-0.56641v-3.418c0-0.3125 0.25391-0.56641 0.56641-0.56641h1.9727v4.5508zm-1.9922-4.2969c-0.17578 0-0.3125 0.13672-0.3125 0.3125v3.418c0 0.17578 0.13672 0.3125 0.3125 0.3125h1.7188v-4.043z"/>
 <path d="m42.949 65.527h-0.37109c-0.27344 0-0.50781-0.23438-0.50781-0.50781v-3.5547c0-0.27344 0.23438-0.50781 0.50781-0.50781h0.37109c0.27344 0 0.50781 0.23438 0.50781 0.50781v3.5742c-0.019531 0.27344-0.23438 0.48828-0.50781 0.48828zm-0.37109-4.2969c-0.13672 0-0.25391 0.11719-0.25391 0.25391v3.5547c0 0.13672 0.11719 0.25391 0.25391 0.25391h0.37109c0.13672 0 0.25391-0.11719 0.25391-0.25391v-3.5547c0-0.13672-0.11719-0.25391-0.25391-0.25391z"/>
 <path d="m20.898 49.434c-2.2266 0-3.6719-0.44922-3.6914-0.46875l0.078125-0.23438c0.039063 0.019531 4.8438 1.5234 10.527-1.0547h0.019531c10.527-2.2852 16.836-3.4766 22.129-3.5352 5.4297-0.058594 23.34 3.3594 23.516 3.3984l0.039063 0.019532c0.039063 0.019531 4.3555 2.5586 9.9219 1.1719l0.058594 0.25391c-5.4688 1.3672-9.7656-1.0156-10.098-1.1914-0.70313-0.13672-17.812-3.3984-23.301-3.3984h-0.15625c-5.2734 0.058594-11.562 1.2305-22.07 3.5156-2.6172 1.1914-5.0781 1.5234-6.9727 1.5234z"/>
 <path d="m36.465 39.395c-0.039063-0.019531-3.6328-1.4844-6.8555-2.0312-3.0469-0.52734-6.1133-0.99609-6.1328-0.99609l0.039063-0.25391c0.039063 0 3.0859 0.46875 6.1328 0.99609 3.2617 0.56641 6.875 2.0312 6.9141 2.0508z"/>
 <path d="m33.652 40.723l-0.097656-0.23438c0.058593-0.019531 4.9609-2.168 6.4453-2.8711l0.097656 0.23437c-1.4844 0.70313-6.3867 2.8516-6.4453 2.8711z"/>
 <path d="m67.051 40.723c-4.6094-2.3828-6.4648-3.8672-6.4844-3.8867l0.15625-0.19531c0.019532 0.019531 1.8555 1.4844 6.4258 3.8477z"/>
 <path d="m64.98 39.59l-0.078125-0.23438c0.25391-0.078125 6.1523-2.1094 7.168-2.3047l1.0352-0.21484h0.019531c0.019531 0 2.7539 0.23437 3.9844-0.625l0.13672 0.21484c-1.2695 0.89844-3.8672 0.70312-4.1406 0.66406l-0.99609 0.19531c-0.97656 0.19531-7.0508 2.2656-7.1289 2.3047z"/>
 <path d="m26.445 35.762c-0.3125 0-0.58594-0.039063-0.83984-0.078125-0.99609-0.19531-1.6211-0.625-1.6406-0.64453l-0.058594-0.039062v-0.058594c0-0.17578-0.19531-4.082-0.13672-4.5312 0.058594-0.54688 0.97656-0.70312 1.0938-0.70312l0.13672-0.019531v0.625c1.0352 0.42969 2.6953 0 3.0859-0.11719v-0.64453l0.15625 0.058594c1.0156 0.3125 1.0156 0.85938 0.99609 0.95703l0.23438 4.1406-0.058594 0.039063c-1.0742 0.78125-2.1289 1.0156-2.9688 1.0156zm-2.3047-0.89844c0.37109 0.23438 2.5586 1.5039 5.0781-0.3125l-0.23438-4.0234v-0.019532c0-0.019531 0.039063-0.37109-0.66406-0.64453v0.48828l-0.078124 0.019532c-0.097657 0.019531-2.168 0.68359-3.4375 0.097656l-0.078126-0.039062v-0.48828c-0.27344 0.058594-0.70312 0.21484-0.74219 0.46875-0.019531 0.37109 0.097656 3.0273 0.15625 4.4531z"/>
 <path d="m26.348 30.059c-0.56641 0-1.2695-0.058594-2.1289-0.23438l-0.097656-0.019531v-1.7578l0.44922-0.25391c0.097657-0.21484 0.52734-1.1328 1.6016-1.2305 1.1133-0.11719 1.7578 0.89844 1.8555 1.0742l0.41016 0.33203v1.582l-0.039062 0.039063c-0.019532 0-0.54688 0.46875-2.0508 0.46875zm-1.9922-0.46875c2.6172 0.52734 3.6328-0.039063 3.8281-0.17578v-1.3477l-0.37109-0.3125c0-0.019531-0.60547-1.0742-1.6211-0.97656-1.0352 0.11719-1.4062 1.1133-1.4062 1.1133l-0.019531 0.039063-0.41016 0.23437z"/>
 <path d="m25.977 28.574c-1.1328 0-1.7578-0.33203-1.7969-0.35156l0.11719-0.21484c0.019531 0 1.5039 0.78125 3.9844-0.097656l0.078125 0.23438c-0.9375 0.3125-1.7383 0.42969-2.3828 0.42969z"/>
 <path d="m74.258 35.449c-0.87891 0-1.8945-0.25391-2.9688-1.0352l-0.058593-0.039062 0.23438-4.1406c-0.019532-0.11719 0-0.64453 0.99609-0.95703l0.15625-0.058594v0.64453c0.39062 0.11719 2.0508 0.54688 3.0859 0.11719v-0.625l0.13672 0.019531c0.097656 0.019531 1.0352 0.17578 1.0938 0.70312 0.039062 0.46875-0.13672 4.375-0.13672 4.5312v0.058594l-0.058594 0.039062c0.019531 0.039063-0.99609 0.74219-2.4805 0.74219zm-2.7539-1.1914c2.5195 1.8164 4.7266 0.54688 5.0781 0.3125 0.058594-1.4258 0.17578-4.082 0.13672-4.4336-0.019531-0.23438-0.46875-0.39062-0.74219-0.46875v0.48828l-0.078124 0.039062c-1.25 0.58594-3.3398-0.058593-3.4375-0.097656l-0.078126-0.019531v-0.48828c-0.70312 0.27344-0.66406 0.625-0.66406 0.64453v0.039063z"/>
 <path d="m74.375 29.766c-1.5039 0-2.0312-0.46875-2.0703-0.48828l-0.039063-0.039063v-1.582l0.41016-0.33203c0.097657-0.17578 0.74219-1.1914 1.8555-1.0742 1.0742 0.11719 1.5039 1.0156 1.6016 1.2305l0.44922 0.25391v1.7578l-0.097656 0.019531c-0.83984 0.17578-1.543 0.25391-2.1094 0.25391zm-1.8555-0.66406c0.21484 0.13672 1.2305 0.70313 3.8281 0.17578v-1.4062l-0.41016-0.23438-0.019531-0.039063c-0.019531-0.039062-0.37109-1.0156-1.4062-1.1133-1.0352-0.11719-1.6211 0.95703-1.6211 0.97656l-0.039063 0.039062-0.33203 0.27344z"/>
 <path d="m74.746 28.262c-0.64453 0-1.4453-0.11719-2.3828-0.44922l0.078125-0.23438c2.4805 0.87891 3.9648 0.11719 3.9844 0.097656l0.11719 0.21484c-0.039063 0.039063-0.68359 0.37109-1.7969 0.37109z"/>
 <path d="m43.145 52.5l-0.058593-0.23438 1.6211-0.42969v-0.019532c0.21484-0.29297 0.82031-1.0547 6.1523-1.0547 4.8828 0 5.7617 0.68359 5.918 0.95703l1.1328 0.42969-0.097656 0.23437-1.25-0.46875-0.019531-0.058593s-0.42969-0.83984-5.7031-0.83984c-5.2148 0-5.7617 0.72266-5.957 0.95703-0.019531 0.019532-0.039062 0.039063-0.039062 0.058594l-0.019531 0.019531z"/>
 <path d="m35.703 53.848c-0.60547 0-1.1523-0.078125-1.5039-0.23438l-0.039063-0.019531-0.019531-0.039062c-0.3125-0.68359-0.23438-3.3398-0.23438-3.457h0.25391c0 0.019532-0.058594 2.5977 0.19531 3.3008 0.82031 0.33203 2.7344 0.25391 3.6914-0.29297 0.13672-0.3125 0.23438-0.56641 0.33203-0.82031 0.37109-0.97656 0.58594-1.5039 1.8555-1.4062l-0.019531 0.25391c-1.0742-0.097656-1.2109 0.27344-1.6016 1.25-0.097656 0.25391-0.21484 0.54688-0.35156 0.85938l-0.019531 0.039062-0.039063 0.019531c-0.60547 0.37109-1.6016 0.54688-2.5 0.54688z"/>
 <path d="m33.379 75.488c-0.13672 0-0.29297-0.039062-0.44922-0.097656-0.27344-0.11719-0.78125-0.46875-0.99609-1.3477-0.85938-5.0977 2.168-20.41 2.207-20.566l0.25391 0.058594c-0.039062 0.15625-3.0469 15.43-2.207 20.469 0.17578 0.76172 0.60547 1.0547 0.85938 1.1719 0.23438 0.097657 0.42969 0.097657 0.48828 0.058594 0.11719-0.058594 0.35156-0.37109 0.60547-1.6992 0.19531-0.97656 1.6016-8.3594 1.6016-8.3594 0-0.27344 0-7.1094 0.27344-8.0078 0.25391-0.89844 0.82031-2.4609 0.82031-2.4805l0.019531-0.058594 0.89844-0.3125 0.27344-1.1133 0.25391 0.058594-0.3125 1.25-0.89844 0.3125c-0.097656 0.29297-0.56641 1.6211-0.80078 2.4023-0.25391 0.87891-0.25391 7.8906-0.25391 7.9492 0 0.019531-1.4258 7.4219-1.6016 8.3984-0.27344 1.4648-0.54687 1.7773-0.74219 1.875-0.097656 0.019531-0.19531 0.039062-0.29297 0.039062z"/>
 <path d="m34.492 72.949l-0.25391-0.019531c1.0352-13.281 1.582-15.449 1.6016-15.547l0.23438 0.058594c0 0.039063-0.54688 2.2852-1.582 15.508z"/>
 <path d="m36.445 52.52c-0.52734 0-0.95703-0.42969-0.95703-0.95703s0.42969-0.95703 0.95703-0.95703c0.52734 0 0.95703 0.42969 0.95703 0.95703 0 0.50781-0.42969 0.95703-0.95703 0.95703zm0-1.6797c-0.39062 0-0.72266 0.3125-0.72266 0.72266 0 0.39062 0.3125 0.72266 0.72266 0.72266 0.41016 0 0.72266-0.3125 0.72266-0.72266s-0.33203-0.72266-0.72266-0.72266z"/>
 <path d="m65.039 53.848c-0.87891 0-1.875-0.17578-2.5-0.54688l-0.039062-0.019531-0.019531-0.039062c-0.13672-0.33203-0.25391-0.60547-0.35156-0.85938-0.37109-0.97656-0.50781-1.3281-1.6016-1.25l-0.019532-0.25391c1.2695-0.11719 1.4648 0.42969 1.8555 1.4062 0.097657 0.23438 0.19531 0.50781 0.33203 0.82031 0.95703 0.54688 2.8711 0.625 3.6914 0.29297 0.25391-0.70313 0.19531-3.2812 0.19531-3.3008h0.25391c0 0.11719 0.078124 2.7734-0.23438 3.457l-0.019531 0.039062-0.039062 0.019531c-0.35156 0.15625-0.89844 0.23438-1.5039 0.23438z"/>
 <path d="m67.383 75.488c-0.097656 0-0.19531-0.019531-0.27344-0.058593-0.17578-0.097657-0.44922-0.41016-0.74219-1.875-0.19531-0.97656-1.6016-8.3594-1.6016-8.3594 0-0.097656 0-7.1094-0.25391-7.9883-0.23438-0.78125-0.70312-2.1094-0.80078-2.4023l-0.89844-0.3125-0.3125-1.25 0.23438-0.058594 0.27344 1.1133 0.89844 0.3125 0.019531 0.058594c0 0.019531 0.56641 1.582 0.82031 2.4805 0.25391 0.89844 0.27344 7.7344 0.27344 8.0273 0 0 1.4258 7.3828 1.6016 8.3398 0.25391 1.3281 0.48828 1.6406 0.60547 1.6992 0.058594 0.039062 0.25391 0.058594 0.48828-0.058594 0.23438-0.097656 0.66406-0.39062 0.85938-1.1719 0.83984-5.0195-2.168-20.293-2.207-20.449l0.25391-0.058594c0.039062 0.15625 3.0664 15.469 2.207 20.547-0.21484 0.89844-0.72266 1.2305-0.99609 1.3477-0.15625 0.078125-0.3125 0.11719-0.44922 0.11719z"/>
 <path d="m66.25 72.949c-1.0352-13.223-1.582-15.469-1.582-15.488l0.23438-0.058594c0.019531 0.078125 0.56641 2.2656 1.6016 15.547z"/>
 <path d="m64.316 52.52c-0.52734 0-0.95703-0.42969-0.95703-0.95703s0.42969-0.95703 0.95703-0.95703 0.95703 0.42969 0.95703 0.95703c0 0.50781-0.42969 0.95703-0.95703 0.95703zm0-1.6797c-0.39062 0-0.72266 0.3125-0.72266 0.72266 0 0.39062 0.3125 0.72266 0.72266 0.72266 0.39062 0 0.72266-0.3125 0.72266-0.72266-0.019531-0.41016-0.33203-0.72266-0.72266-0.72266z"/>
 <path d="m55.859 65.586h-0.97656v-4.5508h0.97656c0.19531 0 0.37109 0.15625 0.37109 0.37109v3.8086c0 0.19531-0.15625 0.37109-0.37109 0.37109zm-0.72266-0.25391h0.72266c0.058594 0 0.11719-0.058593 0.11719-0.11719v-3.8086c0-0.058594-0.058593-0.11719-0.11719-0.11719h-0.72266z"/>
 <path d="m56.973 65.273h-0.97656v-3.9453h0.97656c0.19531 0 0.37109 0.15625 0.37109 0.37109v3.2031c0 0.19531-0.17578 0.37109-0.37109 0.37109zm-0.74219-0.25391h0.72266c0.058594 0 0.11719-0.058593 0.11719-0.11719v-3.2031c0-0.058594-0.058593-0.11719-0.11719-0.11719h-0.72266z"/>
 <path d="m21.543 47.773c-1.6211 0-2.7344-0.78125-2.7539-0.78125l-0.058593-0.039063v-0.058594c0-0.17578-0.21484-4.4922-0.15625-5 0.058593-0.58594 1.0742-0.76172 1.1914-0.78125l0.13672-0.019531v0.66406c1.1523 0.48828 3.0078 0 3.418-0.11719v-0.70312l0.15625 0.058594c1.1133 0.35156 1.1133 0.9375 1.0938 1.0547l0.27344 4.5508-0.058594 0.039063c-1.1523 0.85938-2.2852 1.1328-3.2422 1.1328zm-2.5586-0.95703c0.17578 0.11719 0.80078 0.46875 1.6797 0.64453 1.3672 0.25391 2.6953-0.078126 3.9453-0.97656l-0.25391-4.4531v-0.019531c0-0.019531 0.058593-0.42969-0.76172-0.72266v0.54688l-0.078125 0.019531c-0.097656 0.039062-2.3828 0.74219-3.7695 0.097656l-0.078125-0.039063v-0.50781c-0.3125 0.078125-0.80078 0.23438-0.83984 0.52734-0.039063 0.44922 0.13672 4.3359 0.15625 4.8828z"/>
 <path d="m21.426 41.504c-0.625 0-1.3867-0.078125-2.3438-0.27344l-0.097656-0.019531v-1.9141l0.50781-0.27344c0.097656-0.23438 0.56641-1.2305 1.7578-1.3672 1.2305-0.13672 1.9336 0.99609 2.0508 1.1719l0.44922 0.37109v1.7383l-0.039062 0.039062c-0.058594 0.019532-0.625 0.52734-2.2852 0.52734zm-2.1875-0.48828c2.9102 0.58594 4.0234-0.039063 4.2383-0.19531v-1.4844l-0.41016-0.35156c0-0.019531-0.66406-1.1914-1.8164-1.0742-1.1523 0.11719-1.5625 1.2305-1.5625 1.2305l-0.019531 0.039063-0.44922 0.25391v1.582z"/>
 <path d="m21.016 39.863c-1.2305 0-1.9336-0.37109-1.9727-0.39062l0.11719-0.21484c0.019532 0 1.6602 0.85938 4.3945-0.11719l0.078124 0.23438c-1.0156 0.37109-1.8945 0.48828-2.6172 0.48828z"/>
 <path d="m79.473 47.773c-1.0547 0-2.3047-0.29297-3.5938-1.25l-0.058594-0.039063 0.29297-5.0195c-0.019531-0.11719-0.019531-0.76172 1.1914-1.1523l0.15625-0.058594v0.78125c0.44922 0.13672 2.5195 0.68359 3.8086 0.13672v-0.74219l0.13672 0.019531c0.11719 0.019531 1.2305 0.21484 1.3086 0.83984 0.058594 0.56641-0.15625 5.3125-0.17578 5.5078v0.058594l-0.058593 0.039062c0.019531 0.019531-1.2109 0.87891-3.0078 0.87891zm-3.3789-1.4062c1.3867 0.99609 2.8516 1.3672 4.375 1.0742 0.97656-0.17578 1.6797-0.58594 1.8555-0.70312 0.019531-0.58594 0.23438-4.9023 0.17578-5.4102-0.039062-0.33203-0.60547-0.50781-0.9375-0.58594v0.60547l-0.078125 0.039063c-1.5234 0.72266-4.043-0.078125-4.1602-0.11719l-0.078125-0.019531v-0.625c-0.91797 0.33203-0.85938 0.82031-0.85938 0.82031v0.039063z"/>
 <path d="m79.609 40.859c-1.8164 0-2.4414-0.56641-2.4805-0.58594l-0.039062-0.039063v-1.8945l0.48828-0.41016c0.11719-0.19531 0.87891-1.4453 2.2461-1.2891 1.3086 0.13672 1.8359 1.25 1.9336 1.5039l0.54688 0.3125v2.1094l-0.097657 0.019532c-1.0547 0.19531-1.9141 0.27344-2.5977 0.27344zm-2.2656-0.74219c0.23438 0.15625 1.4648 0.87891 4.707 0.21484v-1.7578l-0.50781-0.27344-0.019531-0.039062c-0.019532-0.058594-0.46875-1.25-1.7383-1.3867-1.2695-0.13672-1.9922 1.1719-2.0117 1.1914l-0.039063 0.039063-0.42969 0.35156v1.6602z"/>
 <path d="m80.059 39.043c-0.78125 0-1.7578-0.13672-2.8906-0.52734l0.078125-0.23438c3.0273 1.0742 4.8438 0.13672 4.8633 0.11719l0.11719 0.21484c-0.039062 0.039063-0.80078 0.42969-2.168 0.42969z"/>
 <path transform="scale(.19531)" d="m19.1 185.9" fill="none" stroke="#000" stroke-miterlimit="10"/>
 <path transform="scale(.19531)" d="m19.1 185.9" fill="none" stroke="#000" stroke-miterlimit="10"/>
 <path d="m4.8242 36.309l1.1719-0.29297s12.168 1.6602 13.867 2.5781c-0.29297 0.50781-0.29297 0.50781-0.29297 0.50781s-0.46875 0.27344-2.3438-0.23437c-1.875-0.50781-12.402-2.5586-12.402-2.5586z"/>
 <path d="m20.82 39.746s-0.078124 3.3789 1.5625 3.4961c1.6406 0.11719 16.211 0.41016 16.211 0.41016l1.9727-0.87891s-11.484-2.3633-18.047-3.2031c-1.1719 0.42969-1.6992 0.17578-1.6992 0.17578z"/>
 <path d="m7.168 32.91c0.11719-0.039062 15.488-4.2578 16.426-4.4727l0.95703-0.21484 2.0508 0.76172s-1.4258 3.1445-2.3828 3.2422c-0.9375 0.078126-16.016 1.4844-16.016 1.4844z"/>
 <path d="m28.477 29.004s14.551-3.4766 14.766-3.8281c0.21484-0.33203 0.33203-0.66406 0.33203-0.66406h-1.5625l-12.031 2.5977-1.6797 0.89844z"/>
 <path d="m72.227 29.004l-15.723-3.6133s0.46875-0.50781 0.66406-0.50781c0.21484 0 14.355 2.1289 15.039 3.1055 0.17578 0.42969 0.17578 0.42969 0.17578 0.42969z"/>
 <path d="m94.141 32.656s-12.051-3.4375-13.477-3.6523c-1.4258-0.21484-4.6875-0.85938-4.6875-0.85938l-2.0703 0.48828s1.7188 3.3984 3.457 3.5352c1.7383 0.11719 15.898 1.25 15.898 1.25z"/>
 <path d="m79.707 41.055s-1.3672 1.5625-2.5 1.7578c-1.1328 0.19531-15.137 0.25391-15.137 0.25391l-1.25-0.95703 17.559-2.9102 1.9727 0.54688z"/>
 <path d="m82.188 39.453s13.418-2.2656 14.102-2.4805c0-0.58594-11.035 0.89844-11.035 0.89844l-3.0469 0.85938v0.72266z"/>
 <path d="m50.352 66.602c-0.91797 0-1.6797-0.76172-1.6797-1.6797s0.76172-1.6797 1.6797-1.6797c0.91797 0 1.6797 0.76172 1.6797 1.6797 0 0.9375-0.76172 1.6797-1.6797 1.6797zm0-3.1055c-0.78125 0-1.4258 0.64453-1.4258 1.4258s0.64453 1.4258 1.4258 1.4258 1.4258-0.64453 1.4258-1.4258-0.64453-1.4258-1.4258-1.4258z"/>
 <path d="m50.352 65.918c-0.54687 0-0.99609-0.44922-0.99609-0.99609s0.44922-0.99609 0.99609-0.99609c0.54688 0 0.99609 0.44922 0.99609 0.99609s-0.44922 0.99609-0.99609 0.99609zm0-1.7383c-0.41016 0-0.74219 0.33203-0.74219 0.74219s0.33203 0.74219 0.74219 0.74219c0.41016 0 0.74219-0.33203 0.74219-0.74219s-0.33203-0.74219-0.74219-0.74219z"/>
</svg>
