<?xml version="1.0" encoding="utf-8"?>
<svg fill="#FFFFFF" width="100pt" height="100pt" version="1.1" viewBox="0 0 100 100" xmlns="http://www.w3.org/2000/svg">
  <path d="m92 56.199c-0.60156-0.60156-1.6016-0.69922-2.3984-0.19922l-10.699 7.5c-1.3008 0.89844-2.1992 2.1016-2.8008 3.5l-0.10156 0.60156c-2.1016-1.1016-3.8984-2.8008-5.1992-4.8008l-0.89844-1.3984-0.003906-23.203 0.89844-1.3984c1.3008-2 3-3.6016 5.1016-4.8008l0.39844 0.89844c0.5 1.3984 1.5 2.6992 2.8008 3.5l10.602 7.6016c0.30078 0.19922 0.69922 0.30078 1.1016 0.30078 0.5 0 1-0.19922 1.3008-0.60156l0.89844-0.89844c0.30078-0.39844 0.5-0.80078 0.5-1.3008s-0.19922-1-0.60156-1.3008l-12.398-12c1.3008-2.5 0.80078-5.6992-1.1992-7.6992-1.6016-1.6016-3.8008-2.1992-5.8984-1.8984l-0.30078-0.89844c-0.5-1.3984-1.5-2.6992-2.8008-3.5l-10.699-7.5039c-0.69922-0.5-1.6992-0.39844-2.3984 0.19922l-0.89844 0.89844c-0.30078 0.39844-0.5 0.80078-0.5 1.3008s0.19922 1 0.60156 1.3008l12.199 11.898c0 0.10156-0.10156 0.19922-0.10156 0.30078v0.10156c-1.1016 2.6016-3 4.8008-5.3984 6.3008l-7.6016 4.6992c-1.6016 1-3.5 1.6016-5.3984 1.6016-1.8984 0-3.8008-0.60156-5.3984-1.6016l-7.707-4.6992c-2.3984-1.5-4.3008-3.6992-5.3984-6.3008 0-0.10156-0.10156-0.19922-0.19922-0.30078l12.301-11.898c0.39844-0.30078 0.60156-0.80078 0.60156-1.3008s-0.19922-1-0.5-1.3008l-0.89844-0.89844c-0.60156-0.60156-1.6016-0.69922-2.3984-0.19922l-10.699 7.5c-1.3008 0.89844-2.1992 2.1016-2.8008 3.5l-0.30078 0.89844c-2.1016-0.39844-4.3008 0.30078-5.8984 1.8984-2.1016 2.1016-2.5 5.1992-1.1992 7.6992l-12.398 12c-0.39844 0.30078-0.60156 0.80078-0.60156 1.3008s0.19922 1 0.5 1.3008l0.89062 0.90234c0.39844 0.39844 0.80078 0.60156 1.3008 0.60156 0.39844 0 0.69922-0.10156 1.1016-0.30078l10.699-7.5c1.3008-0.89844 2.1992-2.1016 2.8008-3.5l0.39844-0.89844c2.1016 1.1016 3.8008 2.6992 5.1016 4.8008l0.89844 1.3984v23.301l-0.89844 1.3984c-1.3008 2-3.1016 3.6992-5.1992 4.8008l-0.40234-0.90234c-0.5-1.3984-1.5-2.6992-2.8008-3.5l-10.699-7.5c-0.69922-0.5-1.6992-0.39844-2.3984 0.19922l-0.90234 0.90234c-0.30078 0.39844-0.5 0.80078-0.5 1.3008s0.19922 1 0.60156 1.3008l12.301 11.898c-1.1016 2.5-0.60156 5.5 1.3984 7.5 1.3008 1.3008 3 2 4.6992 2 0.30078 0 0.69922 0 1-0.10156l0.5 1.3008c0.5 1.3984 1.5 2.6992 2.8008 3.5l10.699 7.5c0.30078 0.19922 0.69922 0.30078 1.1016 0.30078 0.5 0 1-0.19922 1.3008-0.60156l0.89844-0.89844c0.30078-0.39844 0.5-0.80078 0.5-1.3008s-0.19922-1-0.60156-1.3008l-12.398-12c0.10156-0.19922 0.19922-0.39844 0.30078-0.60156 1.1016-2.6016 3-4.8008 5.3984-6.3008l5.3008-3.3008 0.5 2.8008c0.30078 1.5 1.6016 2.6992 3.1992 2.6992h8.1016c1.6016 0 2.8984-1.1016 3.1992-2.6992l0.5-2.8008 5.3008 3.3008c2.3984 1.5 4.3008 3.6992 5.3984 6.3008 0.10156 0.19922 0.19922 0.39844 0.30078 0.60156l-12.398 12c-0.39844 0.30078-0.60156 0.80078-0.60156 1.3008s0.19922 1 0.5 1.3008l0.89844 0.89844c0.39844 0.39844 0.80078 0.60156 1.3008 0.60156 0.39844 0 0.69922-0.10156 1.1016-0.30078l10.699-7.5c1.3008-0.89844 2.1992-2.1016 2.8008-3.5l0.5-1.3008c0.30078 0.10156 0.69922 0.10156 1 0.10156 1.6992 0 3.5-0.69922 4.6992-2 2-2 2.5-4.8984 1.3984-7.5l12.301-11.898c0.39844-0.30078 0.60156-0.80078 0.60156-1.3008s-0.19922-1-0.5-1.3008zm-17.398 19.301c-0.5 0-0.89844-0.39844-0.89844-0.89844s0.39844-0.89844 0.89844-0.89844 0.89844 0.39844 0.89844 0.89844-0.39844 0.89844-0.89844 0.89844zm-6.7031-17.301l-1.8984-3c-2.1016-3.3008-2.1016-7.6016 0-10.898l1.8984-3zm6.7031-33.699c0.5 0 0.89844 0.39844 0.89844 0.89844s-0.39844 0.89844-0.89844 0.89844-0.89844-0.39844-0.89844-0.89844c-0.003906-0.5 0.39844-0.89844 0.89844-0.89844zm16.098 17.801l-10.602-7.5c-0.89844-0.69922-1.6016-1.6016-2-2.6016l-1.6992-4.5c0.10156-0.10156 0.30078-0.19922 0.39844-0.39844l14.699 14.199zm-12.801-20.402c1.3008 1.3008 1.6992 3.1992 1.1016 4.8008l-1.5-1.3984c0-1.5-1.1992-2.6992-2.6992-2.8008l-0.69922-1.8984c1.3984-0.10156 2.7969 0.29688 3.7969 1.2969zm-19.398-13.5l10.602 7.5c0.89844 0.69922 1.6016 1.6016 2 2.6016l1.6992 4.5c-0.10156 0.10156-0.30078 0.19922-0.39844 0.39844l-14.602-14.297zm11.602 15.402l1.6992 1.6016c0 1.5 1.1992 2.6992 2.6992 2.8008l0.69922 1.8984c-1.5 0.80078-2.8008 1.6992-3.8984 2.8984l-4.3984-4.3984c1.1992-1.3008 2.3984-3 3.1992-4.8008zm-4.9023 6.0977l4.6992 4.6992c-0.30078 0.39844-0.5 0.69922-0.80078 1.1016l-0.5 0.69922-5.3008-5.3008 0.69922-0.5c0.50391-0.097656 0.90234-0.39844 1.2031-0.69922zm-28.5 1.3008l-5.3008 5.3008-0.5-0.69922c-0.19922-0.39844-0.5-0.80078-0.80078-1.1016l4.6992-4.6992c0.39844 0.30078 0.69922 0.5 1.1016 0.80078zm-5.8984-15.301l10.602-7.5 0.69922 0.69922-14.602 14.301c-0.10156-0.10156-0.30078-0.30078-0.39844-0.39844l1.6992-4.5c0.39844-1.1016 1.0977-2 2-2.6016zm-5.4023 10.402c-0.5 0-0.89844-0.39844-0.89844-0.89844s0.39844-0.89844 0.89844-0.89844 0.89844 0.39844 0.89844 0.89844c0.003906 0.49609-0.39844 0.89844-0.89844 0.89844zm-3.2969-4.4023c1-1 2.3984-1.5 3.6992-1.3008l-0.69922 1.8984c-1.5 0.10156-2.6016 1.3008-2.6992 2.8008l-1.4023 1.4023c-0.5-1.5977-0.19922-3.5 1.1016-4.8008zm-2.2031 13l-10.598 7.4023-0.69922-0.69922 14.699-14.199c0.10156 0.10156 0.30078 0.30078 0.39844 0.39844l-1.6992 4.5c-0.5 1-1.1992 1.8984-2.1016 2.5977zm5-4.7969l0.69922-1.8984c1.5-0.10156 2.6016-1.3008 2.6992-2.8008l1.6992-1.6016c0.80078 1.8008 1.8984 3.5 3.3008 4.8008l-4.3984 4.3984c-1.1992-1.1016-2.5-2.1016-4-2.8984zm7.2031 11.297l1.8984 3c2.1016 3.3008 2.1016 7.6016 0 10.898l-1.8984 3zm-6.7031 34.102c-0.5 0-0.89844-0.39844-0.89844-0.89844s0.39844-0.89844 0.89844-0.89844 0.89844 0.39844 0.89844 0.89844c0.003906 0.5-0.39844 0.89844-0.89844 0.89844zm-16.098-17.801l10.602 7.5c0.89844 0.69922 1.6016 1.6016 2 2.6016l1.6992 4.5c-0.10156 0.10156-0.30078 0.19922-0.39844 0.39844l-14.602-14.301zm12.801 20c-1.1992-1.1992-1.6016-2.8984-1.1992-4.5l1.6016 1.5c0 1.5 1.1992 2.6992 2.6992 2.8008l0.60156 1.5c-1.4062 0.10156-2.7031-0.30078-3.7031-1.3008zm19.398 13.902l-10.602-7.5c-0.89844-0.69922-1.6016-1.6016-2-2.6016l-1.7969-4.5c0.10156-0.10156 0.30078-0.19922 0.39844-0.39844l14.699 14.199zm12.602-20.801h-8.1016c-0.60156 0-1.1016-0.39844-1.1992-1l-0.30078-1.6992h11.102l-0.30078 1.6992c-0.10156 0.5-0.60156 1-1.1992 1zm-9.9023-4.6992l0.30078-0.19922c1.6016-1 3.5-1.6016 5.5-1.6016s3.8008 0.5 5.5 1.6016l0.30078 0.19922zm19.902 2.7969l-7.5-4.6992c-2-1.1992-4.1992-1.8984-6.5-1.8984-2.3008 0-4.6016 0.60156-6.5 1.8984l-7.5 4.6992c-2.8008 1.6992-4.8984 4.1992-6.1016 7.1992l-1.5-1.5c0-1.5-1.1992-2.6992-2.6992-2.8008l-0.89844-2.1992c2.5-1.3008 4.6016-3.1992 6.1992-5.6016l4.6992-7.5c2.5-4 2.5-9.1016 0-13.102l-3.1992-5.1016 5.8984-5.8984 5.1016 3.1992c1.8984 1.1992 4.1992 1.8984 6.5 1.8984 2.3008 0 4.5-0.69922 6.5-1.8984l5.1016-3.1992 5.8984 5.8984-3.1992 5.1016c-2.5 4-2.5 9.1016 0 13.102l4.6992 7.5c1.5 2.3984 3.6016 4.3984 6.1992 5.6016l-0.89844 2.1992c-1.5 0.10156-2.6016 1.3008-2.6992 2.8008l-1.5 1.5c-1.3047-2.9961-3.4023-5.4961-6.1016-7.1992zm5.0977 15.203l-10.602 7.5-0.69922-0.69922 14.699-14.199c0.10156 0.10156 0.30078 0.30078 0.39844 0.39844l-1.6992 4.5c-0.49609 1-1.1953 1.8984-2.0977 2.5zm8.6992-6.4023c-1 1-2.3008 1.3984-3.6016 1.3984l0.60156-1.5c1.5-0.10156 2.6016-1.3008 2.6992-2.8008l1.6016-1.5c0.30078 1.4023-0.097657 3.2031-1.3008 4.4023zm-1.1992-5.0977c-0.10156-0.10156-0.30078-0.30078-0.39844-0.39844l1.6992-4.5c0.39844-1.1016 1.1016-2 2-2.6016l10.602-7.5 0.69922 0.69922z"/>
</svg>