<?xml version="1.0" encoding="UTF-8"?>
<svg width="100pt" height="100pt" version="1.1" viewBox="0 0 100 100" xmlns="http://www.w3.org/2000/svg">
 <g fill-rule="evenodd">
  <path d="m48.523 37.215h2.9492c1.3125 0 2.6211 0.98438 2.6211 2.6211v6.5586c0 1.3125-1.3125 2.6211-2.6211 2.6211h-2.9492c-1.3125 0-2.6211-1.3125-2.6211-2.6211v-6.5586c0-1.6406 1.3125-2.6211 2.6211-2.6211z"/>
  <path d="m54.754 49.344c-0.32812 1.3125-1.6406 2.2969-2.9492 2.2969h-3.6055c-1.3125 0-2.6211-0.98438-2.9492-2.2969h9.5078z"/>
  <path d="m43.934 49.016c-0.32812-1.9688 0-5.5742 0-7.5391 0-1.6406 0.98438-2.9492 2.2969-3.6055-0.65625 0.32812-0.98438 0.98438-0.98438 1.9688v6.8867c0 0.98438 0.65625 1.6406 1.3125 2.2969h-2.6211z"/>
  <path d="m53.77 37.867c1.3125 0.65625 2.6211 1.9688 2.6211 3.6055 0 1.9688 0 5.5742-0.32812 7.5391h-2.6211c0.65625-0.65625 1.3125-1.3125 1.3125-2.2969v-6.8867c0-0.98438-0.32812-1.6406-0.98438-1.9688z"/>
  <path d="m44.59 56.887l2.6211-4.918h5.5742l2.6211 4.918-2.6211 4.5898h-5.5742zm5.5742-3.2773c1.6406 0 2.9492 1.3125 2.9492 3.2773 0 1.6406-1.3125 2.9492-2.9492 2.9492-1.9688 0-3.2773-1.3125-3.2773-2.9492 0-1.9688 1.3125-3.2773 3.2773-3.2773z"/>
  <path d="m51.805 55.246c0.32812 0.32812 0.65625 0.98438 0.65625 1.6406s-0.32813 1.3125-0.98438 1.6406c-0.32812-0.32812-0.98437-0.65625-1.3125-0.65625-0.65625 0-1.3125 0.32812-1.6406 0.65625-0.65625-0.32812-0.98438-0.98438-0.98438-1.6406s0.32813-1.3125 0.65625-1.6406c0.32813 0.32812 0.98438 0.65625 1.9688 0.65625 0.65625 0 1.3125-0.32812 1.6406-0.65625z"/>
  <path d="m2.6211 36.887c7.8672-0.32812 13.441-0.65625 15.41-0.65625h0.32812c-1.6406 0.32812-4.918 0.98438-5.5742 1.3125s-1.6406 0.65625-1.6406 0.65625l-8.8516 0.32812c-2.9492 0-3.2773-0.98438 0.32812-1.6406z"/>
  <path d="m33.441 68.688h-3.2773v-1.9648l1.9688-5.9023 0.32813-0.32812 0.65234-1.9688 3.9375-7.2109 4.2617-4.5898 1.6367 0.32812-4.918 4.918-3.2773 6.2266 0.32812-0.32812h0.65625v0.32812h1.3125l-0.65625 1.3125h-0.65625l-2.9531 6.8867h1.3125z"/>
  <path d="m15.41 41.148h3.2773c0-0.65625 0-4.918 0.32812-5.2461s0.65625-0.32812 0.98438-0.32812 0.98438 0 0.98438 0.32812c0.65625 0.32812 0.32812 4.5898 0.32812 5.2461h3.2773v6.8867h-0.65625c-0.32812 0.65625-0.98438 1.3125-1.6406 1.3125h-4.2617c-0.98438 0-1.6406-0.65625-1.6406-1.3125h-0.98438v-6.8867z"/>
  <path d="m43.277 46.395s-3.9336-0.32812-4.918-0.65625c-1.3125-0.32812-2.6211-0.98438-2.6211-0.98438l-9.1797-0.98438-1.3125 0.65625v-3.9336h-3.6055c0.32812-0.32813 1.9688-1.9688 2.9492-1.9688h1.9688v-1.9688h-4.5898c-0.32812 0 0-0.32813 0-0.32813 1.3125 0 4.918-0.65625 5.2461-0.98437 0.65625-0.32813 1.3125-0.32813 1.6406-0.32813v-2.6211c0-0.32812 0.65625-0.65625 0.98438-0.65625s0.65625 0.32812 0.65625 0.65625v2.6211h7.5391c2.9492 0 3.2773 0.98438-0.65625 1.6406h-4.5898v1.6406l0.65625 0.98438 5.2461 2.6211c0.98438 0.32812 3.6055-0.32812 4.5898-0.65625v5.2461z"/>
  <path d="m16.723 32.621c5.9023 0 10.164-0.32812 11.805-0.32812-1.3125 0.32812-3.6055 0.98438-4.2617 0.98438-0.32812 0.32812-0.98438 0.32812-0.98438 0.32812l-6.8867 0.32812c-1.9688 0-2.2969-0.65625 0.32812-1.3125z"/>
  <path d="m42.949 32.621h-11.805c1.3125-0.32812 3.6055-0.65625 4.2617-0.98438 0.32812-0.32812 0.98438-0.32812 0.98438-0.32812h6.8867c2.2969 0 2.2969 0.98438-0.32812 1.3125z"/>
  <path d="m97.379 36.887c-7.5391-0.32812-13.441-0.65625-15.41-0.65625h-0.32812c1.6406 0.32812 4.918 0.98438 5.5742 1.3125s1.6406 0.65625 1.6406 0.65625l8.8516 0.32812c2.9492 0 3.2773-0.98438-0.32812-1.6406z"/>
  <path d="m66.559 68.688h3.2773v-1.9648l-1.9688-5.9023-0.32813-0.32812-0.32422-1.9688-3.9375-7.2109-4.5898-4.5898-1.6367 0.32812 4.918 4.918 3.2773 6.2266-0.32812-0.32812h-0.65625v0.32812h-1.3125l0.65625 1.3125h0.65625l2.9531 6.8867h-1.3125z"/>
  <path d="m84.59 41.148h-3.2773c0-0.65625 0-4.918-0.32812-5.2461s-0.65625-0.32812-0.98438-0.32812-0.65625 0-0.98438 0.32812c-0.65625 0.32812-0.32812 4.5898-0.32812 5.2461h-3.2773v6.8867h0.98438c0 0.65625 0.65625 1.3125 1.3125 1.3125h4.5898c0.65625 0 1.3125-0.65625 1.3125-1.3125h0.98438v-6.8867z"/>
  <path d="m56.723 46.395s3.9336-0.32812 4.918-0.65625c1.3125-0.32812 2.6211-0.98438 2.6211-0.98438l9.1797-0.98438 1.3125 0.65625v-3.9336h3.6055c-0.32812-0.32813-1.9688-1.9688-2.9492-1.9688h-1.9688v-1.9688h4.5898c0.32812 0 0.32812-0.32813 0-0.32813-1.3125 0-4.918-0.65625-5.2461-0.98437-0.32812-0.32813-1.3125-0.32813-1.6406-0.32813v-2.6211c0-0.32812-0.32812-0.65625-0.98438-0.65625-0.32812 0-0.65625 0.32812-0.65625 0.65625v2.6211h-7.5391c-2.6211 0-2.9492 0.98438 0.65625 1.6406h4.5898v1.6406l-0.65625 0.98438-5.2461 2.6211c-0.98438 0.32812-3.6055-0.32812-4.5898-0.65625v5.2461z"/>
  <path d="m83.277 32.621c-5.9023 0-10.164-0.32812-11.477-0.32812h-0.32812c1.3125 0.32812 3.6055 0.98438 4.2617 0.98438 0.32812 0.32812 0.98438 0.32812 0.98438 0.32812l6.8867 0.32812c2.2969 0 2.2969-0.65625-0.32812-1.3125z"/>
  <path d="m57.051 32.621h11.805c0.32812 0 0 0 0 0-1.3125-0.32812-3.6055-0.65625-4.2617-0.98438-0.32812-0.32812-0.98438-0.32812-0.98438-0.32812h-6.8867c-1.9688 0-2.2969 0.98438 0.32812 1.3125z"/>
 </g>
</svg>
