<?xml version="1.0" encoding="UTF-8"?>
<svg width="100pt" height="100pt" version="1.1" viewBox="0 0 100 100" xmlns="http://www.w3.org/2000/svg">
 <path d="m21.855 16.008c-0.98047 0.10938-1.8008 1.043-1.7773 2.0273v2.9961h3.9961v-2.9961c0.023437-1.1328-1.0898-2.1523-2.2148-2.0273zm55.922 0c-0.98047 0.10938-1.8008 1.043-1.7773 2.0273v2.9961h3.9961v-2.9961c0.023437-1.1328-1.0898-2.1523-2.2148-2.0273zm-69.871 6.0234c-1.0469 0.050781-1.9531 1.0469-1.9023 2.0898 0.050782 1.0469 1.0469 1.9531 2.0898 1.9023h27.961c1.0547 0.015624 2.0273-0.94141 2.0273-1.9961 0-1.0547-0.96875-2.0117-2.0273-1.9961h-28.148zm55.922 0c-1.0469 0.050781-1.9531 1.0469-1.9023 2.0898 0.050781 1.0469 1.0469 1.9531 2.0898 1.9023h27.961c1.0547 0.015624 2.0273-0.94141 2.0273-1.9961 0-1.0547-0.96875-2.0117-2.0273-1.9961h-28.148zm-43.75 4.9961v7.9922c-1.332 0.03125-2.1523 0.94141-2.2031 1.9258 0.050781 1.207 0.81641 2.1641 2.2031 2.2578v3.8086c-0.015625 1.0547 0.94141 2.0273 1.9961 2.0273 1.0547 0 2.0117-0.97266 1.9961-2.0273v-3.6523c7.5234 1.0469 10.812 4.2461 13.574 7.6484 1.6094 1.9844 2.9844 4.0977 4.8359 5.8672 1.8516 1.7695 4.3711 3.1211 7.6133 3.1211 3.2773 0 5.8516-1.4375 7.7695-3.2773s3.3555-4.043 5.0234-6.0859c2.8477-3.4961 6.0664-6.6758 13.105-7.3984v3.7773c-0.015626 1.0547 0.94141 2.0273 1.9961 2.0273 1.0547 0 2.0117-0.97266 1.9961-2.0273v-3.9023c1.2734-0.15234 1.9883-0.89453 1.9961-2.0273-0.082031-1.2227-0.94531-1.9219-1.9961-1.9961v-8.0547h-3.9961v7.8047c-9.3828-1.1562-17.242-5.6172-25.902-5.6172-8.5938 0.019531-16.512 4.4727-26.027 5.6797v-7.8672zm14.668 18.199c-2.0078 1.6133-3.793 3.5859-5.3359 5.8984-4.8086 7.2148-7.332 17.602-7.332 30.844-0.015625 1.0547 0.94141 2.0273 1.9961 2.0273 1.0547 0 2.0117-0.97266 1.9961-2.0273 0-12.73 2.4688-22.355 6.6484-28.625 1.375-2.0625 2.9023-3.7773 4.6172-5.1523-0.80859-1.043-1.7578-2.1406-2.5898-2.9648zm30.238 0.46875c-0.92188 1.0039-1.7344 2.0508-2.4961 3.0586 1.4805 1.2773 2.8789 2.8125 4.1484 4.6211 4.4375 6.3086 7.3633 15.914 7.3633 28.594-0.015625 1.0547 0.94141 2.0273 1.9961 2.0273 1.0547 0 2.0117-0.97266 1.9961-2.0273 0-13.293-3.0625-23.695-8.1133-30.875-1.4688-2.0859-3.1172-3.8828-4.8984-5.4023zm-24.121 12.301c-0.98047 0.09375-1.8125 1.0117-1.8086 1.9961v9.9883c0 1.0469 0.95312 1.9961 1.9961 1.9961h17.973c1.0469 0 1.9961-0.95312 1.9961-1.9961v-9.9883c0-1.0469-0.95312-1.9961-1.9961-1.9961h-18.16zm2.1836 3.9961h13.98v5.9922h-13.98zm9.9844 5.9922c1.6562 0 2.9961-1.3398 2.9961-2.9961s-1.3398-2.9961-2.9961-2.9961-2.9961 1.3398-2.9961 2.9961 1.3398 2.9961 2.9961 2.9961zm-8.9883-4.9961v1.9961h3.9961v-1.9961z"/>
</svg>
