<?xml version="1.0" encoding="UTF-8"?>
<svg width="100pt" height="100pt" version="1.1" viewBox="0 0 100 100" xmlns="http://www.w3.org/2000/svg">
 <g>
  <path d="m18.078 11.961c-0.078125 0.26172 0.089844 11.148 0.17969 11.41 0.089844 0.26172 0.32031 0.48828 0.60156 0.60938 0.28906 0.10938 16.609-0.12891 16.941-0.25 0.26172-0.10156 0.41016-0.23047 0.55859-0.51953 0.089844-0.16016 0.10156-0.53125 0.078125-2.0117l-0.019531-1.8086 2.6562-0.039063 0.03125 2.1992c0.019531 1.2109 0.050781 2.2109 0.058593 2.2305 0.011719 0.011719 0.14063-0.058594 0.28906-0.16016 0.92188-0.60156 2.3008-1.1797 3.4609-1.4297 0.92969-0.19922 2.4492-0.23047 3.3594-0.058594 1.0703 0.19922 2.3203 0.64844 3.1406 1.1211 0.17969 0.10156 0.41016 0.23047 0.51172 0.28906l0.19141 0.10938-0.0625-4.4609 2.6562-0.039062 0.03125 1.8281c0.019531 1.0117 0.058593 1.9102 0.10156 2.0195 0.078125 0.23047 0.35938 0.51172 0.60156 0.60156 0.23047 0.089844 16.781-0.17969 16.988-0.26953 0.23047-0.10938 0.44922-0.37109 0.53906-0.62891 0.058594-0.16016 0.050782-2.0586-0.011718-5.7812-0.10156-5.7695-0.089844-5.7109-0.39844-6-0.30859-0.30078-0.10938-0.30078-8.5781-0.17969-4.4492 0.058593-8.2383 0.12891-8.4219 0.16016-0.39062 0.039062-0.67969 0.23047-0.83984 0.55078-0.089844 0.17969-0.10938 0.53906-0.089844 2.1211l0.03125 1.9102-1.3398 0.019531-1.3281 0.019532-0.070313-4.1094c-0.03125-2.2617-0.078125-4.1797-0.10938-4.2617-0.03125-0.089844-0.23047-0.33984-0.5-0.62109-0.53906-0.55859-1.0586-0.92969-1.8516-1.3203l-0.53906-0.26953-0.12109-0.28906c-0.14844-0.41016-0.39063-0.67969-0.78906-0.92188-0.64844-0.37891-1.5-0.51172-2.3008-0.33984-0.76172 0.17188-1.4805 0.71094-1.6797 1.2812l-0.10156 0.28125-0.55859 0.28906c-1.0898 0.55078-1.9492 1.2617-2.2891 1.8594l-0.17969 0.32031 0.11719 8.2578-1.3398 0.019531-1.3281 0.019531-0.03125-1.8203c-0.011719-1-0.050781-1.9297-0.070313-2.0586-0.058594-0.32031-0.28906-0.60156-0.58984-0.73047-0.17969-0.078125-1.8008-0.070313-8.5508 0.03125-4.6992 0.078125-8.3906 0.16016-8.4805 0.19922-0.21094 0.10938-0.49219 0.42188-0.55469 0.62109zm2.4609 1.1797c0.30078-0.10938 2.0586-0.12891 2.3281-0.019531 0.23828 0.089844 0.48828 0.32031 0.57812 0.53906 0.089844 0.19141 0.12891 2.1289 0.050782 2.3711-0.070313 0.21094-0.33984 0.51172-0.55859 0.60938-0.19922 0.089844-2.0586 0.12891-2.3398 0.050781-0.26172-0.078125-0.51172-0.30859-0.62891-0.57812-0.10938-0.26953-0.14844-2.0312-0.050781-2.3281 0.039062-0.12109 0.14844-0.30078 0.23047-0.39062 0.10156-0.10547 0.27344-0.21484 0.39062-0.25391zm0.0625 5.4688c0.23047-0.089844 2.1797-0.10938 2.3789-0.03125 0.19141 0.089844 0.46875 0.35938 0.57031 0.55078 0.089844 0.19922 0.12109 2.0586 0.039063 2.3398-0.078125 0.26172-0.30859 0.5-0.57031 0.62109-0.26172 0.10938-2.0195 0.14844-2.3281 0.050781-0.28125-0.089844-0.5-0.28906-0.62109-0.55859-0.10937-0.26953-0.14844-2.0391-0.050781-2.3281 0.10156-0.27344 0.33984-0.54297 0.58203-0.64453zm5.4375-5.5703c0.30859-0.10156 2.0703-0.10937 2.3203-0.011718 0.26172 0.10156 0.46094 0.30078 0.57031 0.55078 0.10937 0.26172 0.14844 2.0195 0.050781 2.3281-0.10156 0.30078-0.30859 0.51953-0.60156 0.62891-0.26953 0.10156-2.1289 0.12891-2.3516 0.039063-0.19141-0.078125-0.48047-0.35938-0.57031-0.53906-0.089843-0.19141-0.12891-2.1484-0.050781-2.3711 0.082031-0.25391 0.38281-0.54297 0.63281-0.625zm0.050782 5.4922c0.23047-0.089844 2.1797-0.10938 2.3789-0.03125 0.21094 0.089844 0.44922 0.33984 0.55078 0.57031 0.10938 0.26172 0.14844 2.0195 0.050781 2.3281-0.089843 0.28125-0.28906 0.5-0.55859 0.62109-0.26172 0.10938-2.0195 0.14844-2.3281 0.050781-0.26172-0.078124-0.51953-0.30859-0.62891-0.53906-0.089844-0.19141-0.12891-2.1484-0.058594-2.3711 0.074218-0.23047 0.36328-0.53906 0.59375-0.62891zm5.4219-5.582c0.10156-0.039063 0.64062-0.070313 1.1992-0.078125 0.78125-0.011719 1.0586 0.019531 1.2109 0.10156 0.48047 0.26172 0.55078 0.46094 0.57031 1.6797 0.03125 1.7188-0.10938 1.8594-1.8086 1.8906-0.89844 0.011719-1.0586 0-1.2891-0.12109-0.46094-0.23828-0.53906-0.48047-0.57031-1.5781-0.03125-1.0508 0.019531-1.3281 0.30078-1.6094 0.10547-0.11328 0.27344-0.24609 0.38672-0.28516zm-0.089844 5.5508c0.14844-0.089844 0.42188-0.12109 1.2188-0.14062 1.2695-0.03125 1.5586 0.058594 1.8086 0.53906 0.10156 0.17969 0.17188 2.1016 0.089843 2.3594-0.070312 0.26172-0.23047 0.46094-0.46875 0.60156-0.19141 0.10938-0.37891 0.14062-1.1992 0.16016-0.53906 0.019531-1.0898 0-1.1992-0.039062-0.26953-0.078125-0.60156-0.39062-0.67969-0.64062-0.058594-0.19922-0.12891-1.7109-0.078126-2.0391 0.03125-0.19922 0.17188-0.53125 0.26172-0.62891 0.023438-0.03125 0.13281-0.10156 0.24609-0.17188zm16.367-10.539l0.51172 0.30078 0.10156 6.1719c0.050781 3.3906 0.089844 6.1797 0.078125 6.1914s-0.23828-0.070312-0.51953-0.17969l-0.51172-0.19141-0.10156-6.2812c-0.050781-3.4492-0.089844-6.2812-0.078125-6.2812 0-0.019531 0.24219 0.10938 0.51953 0.26953zm7.3711 4.7578c0.089844-0.03125 0.64062-0.050781 1.2188-0.058594 1-0.011718 1.0703 0 1.2695 0.14844 0.39844 0.28906 0.44922 0.46094 0.46875 1.5898 0.019531 0.55859 0.011718 1.1016-0.019532 1.1992-0.078125 0.28125-0.39062 0.55859-0.71094 0.64844-0.37109 0.10938-1.9688 0.10938-2.2305 0.011718-0.32812-0.12891-0.57031-0.39844-0.64844-0.73047-0.10156-0.42188-0.089843-2.0508 0.019532-2.2695 0.13281-0.20703 0.41406-0.45703 0.63281-0.53906zm0.058594 5.4922c0.30078-0.10938 2.0703-0.12891 2.3281-0.019532 0.23047 0.089844 0.48047 0.32031 0.57812 0.53125 0.10156 0.21875 0.12109 2.2383 0.019531 2.4414-0.10938 0.21875-0.30078 0.41016-0.51172 0.53125-0.21094 0.10938-2.2109 0.14844-2.4414 0.050782-0.23828-0.10156-0.46875-0.35938-0.55859-0.60938-0.12109-0.32812-0.12891-2.1484-0.011718-2.3711 0.16016-0.29688 0.34766-0.46484 0.59766-0.55469zm5.3594-5.5391c0.30078-0.10938 2.1406-0.12891 2.4102-0.03125 0.23828 0.10156 0.33984 0.19141 0.5 0.44922 0.089844 0.14844 0.12109 0.42188 0.12891 1.2109 0.011718 0.55859-0.011719 1.1094-0.039063 1.2109-0.089844 0.25-0.37891 0.55078-0.62891 0.64062-0.23047 0.078125-1.8398 0.12891-2.1289 0.058594-0.32812-0.070313-0.53906-0.21875-0.69922-0.51172-0.12891-0.21094-0.14062-0.37891-0.14844-1.2695-0.011718-0.55859 0.019532-1.1094 0.058594-1.2188 0.089844-0.24219 0.27734-0.42969 0.54688-0.53906zm0.13281 5.4492c0.30078-0.10938 2.0703-0.12891 2.3281-0.019532 0.25 0.10156 0.46094 0.30078 0.57031 0.55078 0.10156 0.25 0.14844 2.0117 0.058594 2.3203-0.070313 0.23828-0.32031 0.53125-0.55078 0.64062-0.19922 0.089844-2.1484 0.12891-2.3789 0.039063-0.21094-0.078125-0.5-0.35156-0.60156-0.55859-0.10156-0.21094-0.12891-2.0781-0.039063-2.3516 0.10156-0.29297 0.3125-0.51172 0.61328-0.62109zm5.3281-5.543c0.10156-0.039063 0.64844-0.078125 1.2383-0.078125 0.82812-0.011719 1.1094 0.019531 1.2695 0.10156 0.23828 0.14063 0.25 0.14063 0.39062 0.37891 0.089844 0.14844 0.12109 0.42969 0.14062 1.2617 0.011719 0.57812 0 1.1406-0.039063 1.2383-0.10156 0.26172-0.35156 0.5-0.62891 0.60156-0.14062 0.050781-0.62891 0.089844-1.2109 0.089844-1.1406 0-1.3398-0.058594-1.6094-0.51953-0.089844-0.14844-0.12109-0.42969-0.14062-1.2617-0.011719-0.57812 0.011719-1.1406 0.039062-1.2305 0.070313-0.21875 0.32031-0.48828 0.55078-0.58203zm0.16016 5.4414c0.12109-0.039062 0.66016-0.078125 1.1992-0.078125 0.76172 0 1.0391 0.011719 1.1914 0.10156 0.48047 0.26172 0.53906 0.42188 0.57031 1.6797 0.019532 1.0898-0.011718 1.3086-0.25 1.5586-0.25 0.26172-0.51172 0.32031-1.5586 0.32812-0.89062 0.019531-1.0586 0-1.2812-0.12109-0.14062-0.078125-0.26953-0.17188-0.28906-0.21094-0.019531-0.039063-0.078125-0.12891-0.12891-0.21094-0.10938-0.17188-0.17969-2.1719-0.078125-2.4414 0.074219-0.22656 0.375-0.51562 0.625-0.60547z"/>
  <path d="m37.699 26.648c-0.21094 0.35156-0.28125 0.57031-0.26953 0.80078 0.011718 0.12891 0.058593 0.21094 0.26172 0.39062 0.60938 0.55859 2.1211 0.94922 4.6094 1.1797 0.10156 0.011719 0.10938-0.011719 0.089844-0.19922-0.019531-0.12109-0.050781-0.23047-0.070313-0.25-0.019531-0.019531-0.26172-0.058593-0.53125-0.078124-1.1289-0.10938-2.0312-0.35156-2.1797-0.58984-0.57812-0.94922 6.7305-1.4688 9.3906-0.67188 0.57031 0.17188 0.78125 0.44922 0.46875 0.64062-0.32812 0.21094-1.1602 0.42188-2.0508 0.53125l-0.37109 0.050781-0.03125 0.26172-0.039063 0.26172 0.19141-0.019531c0.10156-0.011719 0.53906-0.070312 0.98047-0.12891 2.1602-0.32031 3.5898-0.87891 3.8086-1.5 0.19922-0.55078-0.96094-1.8789-2.4688-2.8281-1.6406-1.0391-3.6094-1.5781-5.2891-1.4297-1.5195 0.12891-3.0312 0.67969-4.3906 1.5898-0.70703 0.46094-1.8203 1.5195-2.1094 1.9883z"/>
  <path d="m43.949 31.711c0.55078 3.0391 0.62891 3.5117 0.53125 3.5391-0.19922 0.058594-0.48047 0.39844-0.51953 0.62891-0.058594 0.37891 0 0.57031 0.28125 0.83984s0.46875 0.32812 0.83984 0.25c0.23047-0.039062 0.53125-0.30859 0.64062-0.55078 0.089844-0.21875 0.058594-0.57812-0.078125-0.80859-0.10938-0.17188-0.19141-0.23828-0.37891-0.33984-0.14062-0.070312-0.23828-0.14844-0.23828-0.17969s0.23828-1.5703 0.51953-3.4297 0.51953-3.4102 0.51953-3.4297c0-0.03125-0.62109-0.050781-1.3711-0.03125l-1.3789 0.019531z"/>
  <path d="m80.801 63.801c6.3008 7.1016 12.602 14.102 19 21.199 0.10156 0.10156 0.30078 0.30078 0.39844 0.39844 0.19922 0.39844 0.30078 0.80078 0.10156 1.1992-0.10156 0.19922-0.19922 0.39844-0.39844 0.5-3.1016 2.8008-6.3008 5.6016-9.3984 8.3984-0.19922 0.19922-0.30078 0.30078-0.60156 0.39844-0.30078 0.19922-0.69922 0.19922-1 0.10156-0.30078-0.10156-0.5-0.19922-0.69922-0.39844-6.3008-7-12.602-14.102-18.898-21.102-0.10156-0.19922-0.30078-0.30078-0.39844-0.5-0.19922-0.30078-0.19922-0.60156-0.19922-0.89844 0-0.30078 0.19922-0.60156 0.5-0.89844 3.1992-2.8984 6.5-5.8008 9.6992-8.6992 0.19922-0.19922 0.5-0.30078 0.80078-0.30078 0.49219 0.19922 0.89453 0.30078 1.0938 0.60156zm0.39844 1.8984c-2.6992 2.3984-5.3008 4.6992-7.8984 7.1016-0.80078 0.69922-1.6016 1.3984-2.3008 2.1016 5.5 6.1016 10.898 12.199 16.398 18.301 1.6016-1.3984 3.1992-2.8984 4.8008-4.3008 1.8008-1.6016 3.6016-3.1992 5.3984-4.8008-3.3008-3.6992-6.6016-7.3984-9.8984-11-2.1992-2.6016-4.3008-5-6.5-7.4023zm-4 1.4023c-0.10156-0.10156-0.30078-0.10156-0.5-0.10156-0.10156 0-0.19922 0.10156-0.19922 0.19922-0.69922 0.60156-1.3984 1.3008-2.1016 1.8984-0.19922 0.10156-0.19922 0.39844-0.10156 0.60156 0.10156 0.10156 0.19922 0.19922 0.30078 0.19922 0.19922 0.10156 0.39844 0 0.5-0.10156 0.69922-0.69922 1.5-1.3008 2.1992-2 0.10156-0.10156 0.19922-0.30078 0.10156-0.5 0 0.003906-0.097657-0.097656-0.19922-0.19531zm17.102 22.098c-0.19922-0.10156-0.39844-0.19922-0.69922-0.19922-0.39844 0-0.80078 0.39844-0.89844 0.80078-0.10156 0.39844 0.10156 0.80078 0.5 1 0.30078 0.19922 0.80078 0.19922 1.1016-0.10156 0.30078-0.19922 0.5-0.69922 0.30078-1.1016-0.003907-0.097656-0.10547-0.29688-0.30469-0.39844zm-20.801-18.801c-0.19922-0.10156-0.5-0.10156-0.60156 0.10156-0.10156 0.19922-0.19922 0.39844-0.10156 0.60156 0.10156 0.10156 0.10156 0.19922 0.19922 0.19922 0.10156 0.10156 0.30078 0 0.5 0 0.19922-0.10156 0.19922-0.30078 0.19922-0.5 0.10547-0.19922 0.003907-0.30078-0.19531-0.40234z"/>
  <path d="m84.699 83.301c-0.10156 0-0.19922 0.10156-0.30078 0-0.30078 0-0.5-0.30078-0.5-0.60156 0.10156-0.89844 0.60156-1.8008 1.3008-2.3984 0.69922-0.60156 1.6992-0.89844 2.6016-0.80078 0.30078 0 0.5 0.30078 0.5 0.60156 0 0.30078-0.30078 0.5-0.60156 0.5-0.69922-0.10156-1.3008 0.10156-1.8008 0.5-0.5 0.39844-0.80078 1-0.89844 1.6992 0 0.19922-0.19922 0.39844-0.30078 0.5z"/>
  <path d="m82.199 82.102c-0.10156 0-0.19922 0.10156-0.30078 0-0.30078 0-0.5-0.30078-0.5-0.60156 0.30078-2.8008 2.8008-4.8008 5.6016-4.5 0.30078 0 0.5 0.30078 0.5 0.60156 0 0.30078-0.30078 0.5-0.60156 0.5-2.1992-0.19922-4.1992 1.3984-4.3984 3.6016 0 0.19531-0.10156 0.29688-0.30078 0.39844z"/>
  <path d="m79.898 81.102c-0.10156 0-0.19922 0.10156-0.30078 0-0.30078 0-0.5-0.30078-0.5-0.60156 0.39844-3.6016 3.6016-6.3008 7.1992-5.8984 0.30078 0 0.5 0.30078 0.5 0.60156s-0.30078 0.5-0.60156 0.5c-1.5-0.10156-2.8984 0.30078-4 1.1992-1.1016 0.89844-1.8984 2.1992-2 3.6992 0.003907 0.19922-0.09375 0.39844-0.29687 0.5z"/>
  <path d="m25.5 56.199c-0.30078 0-0.5-0.10156-0.69922-0.30078-0.39844-0.39844-0.39844-1 0-1.3984 0.39844-0.39844 1-0.39844 1.3984 0 0.39844 0.39844 0.39844 1 0 1.3984-0.19922 0.20312-0.39844 0.30078-0.69922 0.30078z"/>
  <path d="m27.898 53.801c-0.30078 0-0.5-0.10156-0.69922-0.30078-0.39844-0.39844-0.39844-1 0-1.3984 0.39844-0.39844 1-0.39844 1.3984 0 0.39844 0.39844 0.39844 1 0 1.3984-0.19922 0.19922-0.49609 0.30078-0.69922 0.30078zm2.4023-2.4023c-0.30078 0-0.5-0.10156-0.69922-0.30078-0.39844-0.39844-0.39844-1 0-1.3984 0.39844-0.39844 1-0.39844 1.3984 0 0.39844 0.39844 0.39844 1 0 1.3984-0.19922 0.20312-0.5 0.30078-0.69922 0.30078zm2.3008-2.3984c-0.30078 0-0.5-0.10156-0.69922-0.30078-0.39844-0.39844-0.39844-1 0-1.3984 0.39844-0.39844 1-0.39844 1.3984 0 0.39844 0.39844 0.39844 1 0 1.3984-0.10156 0.19922-0.40234 0.30078-0.69922 0.30078zm2.3984-2.3984c-0.30078 0-0.5-0.10156-0.69922-0.30078-0.39844-0.39844-0.39844-1 0-1.3984 0.39844-0.39844 1-0.39844 1.3984 0 0.39844 0.39844 0.39844 1 0 1.3984-0.19922 0.19922-0.39844 0.30078-0.69922 0.30078zm2.3984-2.3008c-0.30078 0-0.5-0.10156-0.69922-0.30078-0.39844-0.39844-0.39844-1 0-1.3984 0.39844-0.39844 1-0.39844 1.3984 0 0.39844 0.39844 0.39844 1 0 1.3984-0.19922 0.19922-0.39844 0.30078-0.69922 0.30078zm2.4023-2.4023c-0.30078 0-0.5-0.10156-0.69922-0.30078-0.39844-0.39844-0.39844-1 0-1.3984 0.39844-0.39844 1-0.39844 1.3984 0 0.39844 0.39844 0.39844 1 0 1.3984-0.19922 0.20312-0.5 0.30078-0.69922 0.30078zm2.3984-2.3984c-0.30078 0-0.5-0.10156-0.69922-0.30078-0.39844-0.39844-0.39844-1 0-1.3984 0.39844-0.39844 1-0.39844 1.3984 0 0.39844 0.39844 0.39844 1 0 1.3984-0.19922 0.19922-0.5 0.30078-0.69922 0.30078z"/>
  <path d="m69.602 64.102c-0.30078 0-0.5-0.10156-0.69922-0.30078-0.39844-0.39844-0.39844-1 0.10156-1.3984 0.39844-0.39844 1-0.39844 1.3984 0.10156 0.39844 0.39844 0.39844 1-0.10156 1.3984-0.19922 0.097656-0.5 0.19922-0.69922 0.19922zm-2.5-2.7031c-0.30078 0-0.5-0.10156-0.69922-0.30078-0.39844-0.39844-0.39844-1 0.10156-1.3984 0.39844-0.39844 1-0.39844 1.3984 0.10156 0.39844 0.39844 0.39844 1-0.10156 1.3984-0.19922 0.10156-0.5 0.19922-0.69922 0.19922zm-2.5-2.6992c-0.30078 0-0.5-0.10156-0.69922-0.30078-0.39844-0.39844-0.39844-1 0.10156-1.3984 0.39844-0.39844 1-0.39844 1.3984 0.10156 0.39844 0.39844 0.39844 1-0.10156 1.3984-0.19922 0.10156-0.5 0.19922-0.69922 0.19922zm-2.5-2.6992c-0.30078 0-0.5-0.10156-0.69922-0.30078-0.39844-0.39844-0.39844-1 0.10156-1.3984 0.39844-0.39844 1-0.39844 1.3984 0.10156 0.39844 0.39844 0.39844 1-0.10156 1.3984-0.19922 0.097657-0.5 0.19922-0.69922 0.19922zm-2.5-2.6992c-0.30078 0-0.5-0.10156-0.69922-0.30078-0.39844-0.39844-0.39844-1 0.10156-1.3984 0.39844-0.39844 1-0.39844 1.3984 0.10156 0.39844 0.39844 0.39844 1-0.10156 1.3984-0.19922 0.097657-0.5 0.19922-0.69922 0.19922zm-2.5-2.6992c-0.30078 0-0.5-0.10156-0.69922-0.30078-0.39844-0.39844-0.39844-1 0.10156-1.3984 0.39844-0.39844 1-0.39844 1.3984 0.10156 0.39844 0.39844 0.39844 1-0.10156 1.3984-0.19922 0.097656-0.5 0.19922-0.69922 0.19922zm-2.5-2.7031c-0.30078 0-0.5-0.10156-0.69922-0.30078-0.39844-0.39844-0.39844-1 0.10156-1.3984 0.39844-0.39844 1-0.39844 1.3984 0.10156 0.39844 0.39844 0.39844 1-0.10156 1.3984-0.19922 0.10156-0.5 0.19922-0.69922 0.19922zm-2.5-2.6992c-0.30078 0-0.5-0.10156-0.69922-0.30078-0.39844-0.39844-0.39844-1 0.10156-1.3984 0.39844-0.39844 1-0.39844 1.3984 0.10156 0.39844 0.39844 0.39844 1-0.10156 1.3984-0.19922 0.10156-0.5 0.19922-0.69922 0.19922zm-2.5-2.6992c-0.30078 0-0.5-0.10156-0.69922-0.30078-0.39844-0.39844-0.39844-1 0.10156-1.3984 0.39844-0.39844 1-0.39844 1.3984 0.10156 0.39844 0.39844 0.39844 1-0.10156 1.3984-0.30078 0.097657-0.5 0.19922-0.69922 0.19922zm-2.5-2.6992c-0.30078 0-0.5-0.10156-0.69922-0.30078-0.39844-0.39844-0.39844-1 0.10156-1.3984 0.39844-0.39844 1-0.39844 1.3984 0.10156 0.39844 0.39844 0.39844 1-0.10156 1.3984-0.30078 0.097657-0.5 0.19922-0.69922 0.19922z"/>
  <path d="m72.102 66.801c-0.30078 0-0.5-0.10156-0.69922-0.30078-0.39844-0.39844-0.39844-1 0-1.3984 0.39844-0.39844 1-0.39844 1.3984 0 0.39844 0.39844 0.39844 1 0 1.3984-0.19922 0.19922-0.5 0.30078-0.69922 0.30078z"/>
  <path d="m43.602 58.699c-1.6992-0.69922-2.3984-0.89844-4.1992-1.1016-5.6992-0.80078-11.801 0.39844-14.602 2.8008-0.30078 0.30078-0.60156 0.60156-0.89844 1l-0.19922 0.19922-0.39844-0.39844c-0.5-0.5-1.1992-1.1016-2-1.6016-0.69922-0.5-3.8008-1.6992-5-2-3.3984-0.89844-7.1016-1.1016-10-0.69922-2 0.30078-3.6992 1-4.6016 1.8008-0.69922 0.60156-0.89844 1-1.1992 2.6016-0.30078 1.3984-0.30078 1.6016 0 2.3008 0.19922 0.39844 0.39844 0.69922 0.60156 1 0.60156 0.69922 1.6016 1.5 2.6016 2 0.69922 0.39844 3.1016 1.3008 3.8008 1.6016 0.30078 0.10156 0.60156 0.19922 0.60156 0.19922-0.007813-0.003906-0.10938-0.003906-0.30859 0.097656-0.69922 0.5-0.89844 0.80078-1.1016 2.1016-0.10156 0.80078-0.10156 1 0.10156 1.3008 0.80078 1.6016 4.8984 3 9.3984 3.3984 3.8008 0.30078 7.3008-0.19922 8.5-1.3008 0.30078-0.19922 0.39844-0.30078 0.39844-0.19922 0 0 0.19922 0.10156 0.30078 0.19922 0.19922 0.10156 0.60156 0.30078 1.3984 0.69922 1 0.39844 1.3984 0.5 2 0.69922 5.3008 1.1992 11.898 0.5 14.102-1.3008 0.30078-0.30078 0.39844-0.39844 0.5-0.69922 0.10156-0.30078 0.10156-0.5 0.10156-1.1992-0.10156-1.5-0.30078-1.8984-1.6016-2.6992l-0.39844-0.30078 0.80078-0.19922c1.1016-0.30078 2.6016-1 3.3984-1.5 1.3008-0.80078 2-1.8008 2.1016-2.6992 0-0.5-0.10156-2.3984-0.19922-2.8008-0.19922-0.80078-0.89844-1.6016-2-2.3984-0.40234-0.30078-0.60156-0.40234-2-0.90234zm0.5 4.1992c0.5 0.39844 1 0.89844 0.89844 1 0 0-0.10156 0.19922-0.30078 0.39844-1.1992 1.8008-4.8008 3-8.8984 3.1016-1.8008 0-3.5-0.10156-5.1992-0.60156l-0.19922-0.10156 0.5-0.19922c0.30078-0.10156 1.3008-0.5 2.1992-0.89844l1.6992-0.69922 1.3984 0.69922c0.69922 0.39844 1.5 0.69922 1.6992 0.80078 0.39844 0.10156 0.89844 0.10156 1.3008 0 0.39844-0.10156 0.5-0.19922 0.5-0.60156 0-0.5 0-0.60156-0.5-0.89844-0.60156-0.30078-4.1992-2.1992-5.6016-2.8984-1.3008-0.60156-1.5-0.69922-2.1992-0.60156-0.5 0-0.80078 0.19922-0.89844 0.5-0.10156 0.19922-0.10156 0.89844 0 1 0.10156 0.10156 1.1992 0.69922 2.6016 1.3984l0.5 0.30078-2.3984 1-2.2031 0.80078-0.69922-0.39844c-0.80078-0.39844-1.3984-0.80078-1.8008-1.3008-0.39844-0.39844-0.5-0.69922-0.39844-0.89844 0.10156-0.19922 0.5-0.69922 0.89844-0.89844 1.1016-0.89844 3.1016-1.6016 5.1992-1.8984 3.1016-0.5 6.3984-0.30078 9.1992 0.5 1.1016 0.39453 2 0.79688 2.7031 1.3945zm-24.5-0.59766c0.89844 0.60156 1.6992 1.1992 2 1.8984 0.19922 0.39844 0.19922 0.5-0.39844 1-0.39844 0.30078-0.89844 0.60156-1.6992 0.89844l-0.39844 0.10156-3.7969-1.3984 1.1992 0.10156c1.6992 0.10156 1.8984 0 2-0.69922 0-0.5-0.10156-0.60156-0.60156-0.80078-0.5-0.19922-0.39844-0.10156-6.6992-0.69922-4.3008-0.30078-4.1992-0.30078-4.5-0.30078-0.39844 0.10156-0.5 0.19922-0.5 0.60156-0.10156 0.5 0 0.60156 0.60156 0.89844 0.39844 0.19922 0.60156 0.19922 2.8984 0.39844l2.3984 0.19922 5.3984 2.2031-0.30078 0.10156c-0.5 0.10156-1.6992 0.10156-2.6016 0.10156-1.5 0-3.3008-0.30078-4.8984-0.69922-0.89844-0.19922-3.1016-1.1016-3.6992-1.5-1.1016-0.60156-1.8984-1.3984-2.3008-2.1992-0.40234-0.50781-0.40234-0.50781-0.30469-0.70703 0.19922-0.30078 0.69922-0.60156 1.6016-1 1.1016-0.5 2-0.69922 3.6992-0.80078 2.1992-0.10156 4 0 6.5 0.60156 1 0.19922 3.6992 1.2969 4.4023 1.6992zm21.098 9.5c0.10156 0.10156 0.30078 0.19922 0.39844 0.30078l0.19922 0.19922-0.19922 0.19922c-0.097656 0.10156-0.097656 0.10156-0.69922 0.5-2.1992 1.1992-7.1016 1.5-10.602 0.60156-1.3008-0.30078-2.8008-1.1016-3-1.5-0.10156-0.19922 0.19922-0.39844 1.1016-0.80078l0.69922-0.30078 0.39844 0.10156c0.19922 0.10156 0.60156 0.19922 1 0.39844l0.60156 0.30078h-0.30078c-0.39844 0-0.89844 0.10156-1 0.30078v0.39844c0 0.30078 0 0.30078 0.19922 0.39844 0.30078 0.10156 0.80078 0.19922 2.8008 0.19922 0.89844 0 1.8008 0.10156 1.8008 0.10156h0.19922 2c2.1016 0 2.6016 0 2.8008-0.10156 0.19922-0.10156 0.19922-0.39844 0.19922-0.69922 0-0.10156-0.10156-0.19922-0.30078-0.30078-0.10156-0.10156-1.1992-0.10156-2.6992-0.19922l-2.5-0.10156-0.80078-0.30078c-0.39844-0.19922-1.1992-0.39844-1.6016-0.60156l-0.80078-0.30078 0.5-0.10156c2.1992-0.30078 5-0.19922 7.1992 0.30078 0.40625 0.20703 2.0078 0.80859 2.4062 1.0078zm-17.598 0.39844c0.10156 0.10156 0.10156 0.10156-0.10156 0.30078-0.30078 0.19922-1.3008 0.60156-2.1016 0.80078-0.80078 0.19922-2.3008 0.30078-3.3008 0.30078-0.89844 0-2.3008-0.10156-2.3008-0.19922 0 0 0.89844-0.39844 2.1016-0.89844l2.1016-0.89844v-0.39844c0-0.30078 0-0.39844-0.19922-0.5-0.19922-0.10156-0.89844-0.19922-1.3008-0.19922-0.19922 0-1.3008 0.5-2.6016 1.1016-2.1992 1-2.3008 1-2.3984 1.1992v0.19922l-0.5-0.10156c-0.69922-0.19922-2.1992-0.89844-2.6992-1.1992-0.40234-0.30859-0.80078-0.80859-0.80078-0.80859 0-0.10156 0.80078-0.5 1.1992-0.60156 2.5-0.80078 6.8008-0.60156 9.8008 0.39844 1.6016 0.40625 2.8008 1.1055 3.1016 1.5039z"/>
 </g>
</svg>
