<?xml version="1.0" encoding="UTF-8"?>
<svg width="100pt" height="100pt" version="1.1" viewBox="0 0 100 100" xmlns="http://www.w3.org/2000/svg">
 <g fill-rule="evenodd">
  <path d="m82 85c-1.6562 0-3-1.3438-3-3s1.3438-3 3-3 3 1.3438 3 3-1.3438 3-3 3"/>
  <path d="m81 90c-0.55078 0-1-0.44531-1-1s0.44922-1 1-1c3.8594 0 7-3.1406 7-7 0-0.55469 0.44922-1 1-1s1 0.44531 1 1c0 4.9609-4.0391 9-9 9"/>
  <path d="m75 84c-0.55078 0-1-0.44531-1-1 0-4.9648 4.0391-9 9-9 0.55078 0 1 0.44531 1 1s-0.44922 1-1 1c-3.8594 0-7 3.1406-7 7 0 0.55469-0.44922 1-1 1"/>
  <path d="m82 95c-0.55078 0-1-0.44531-1-1s0.44922-1 1-1c6.0664 0 11-4.9336 11-11 0-0.55469 0.44922-1 1-1s1 0.44531 1 1c0 7.168-5.832 13-13 13"/>
  <path d="m70 83c-0.55078 0-1-0.44531-1-1 0-7.168 5.832-13 13-13 0.55078 0 1 0.44531 1 1s-0.44922 1-1 1c-6.0664 0-11 4.9336-11 11 0 0.55469-0.44922 1-1 1"/>
  <path d="m74.777 67.742c2.1719-1.1055 4.6211-1.7422 7.2227-1.7422 8.8203 0 16 7.1797 16 16s-7.1797 16-16 16c-8.8242 0-16-7.1797-16-16 0-2.6016 0.63672-5.0547 1.7422-7.2266l1.0078-1.7344c1.1445-1.6875 2.6016-3.1445 4.2891-4.2891zm-24.777-1.6914c-6.418 0-12.16 2.6562-17.09 5.8633-1.2852-1.8984-2.9258-3.5391-4.8242-4.8242 3.207-4.9297 5.8633-10.672 5.8633-17.09s-2.6562-12.16-5.8633-17.09c1.8984-1.2852 3.5391-2.9258 4.8242-4.8242 4.9297 3.207 10.672 5.8633 17.09 5.8633s12.16-2.6562 17.09-5.8633c1.2852 1.8984 2.9258 3.5391 4.8242 4.8242-3.207 4.9297-5.8672 10.672-5.8672 17.09s2.6602 12.16 5.8672 17.09c-1.8984 1.2852-3.5391 2.9258-4.8242 4.8242-4.9297-3.207-10.672-5.8633-17.09-5.8633zm-23.039 2.6992c1.6836 1.1445 3.1445 2.6016 4.2852 4.2891l1.0117 1.7344c1.1055 2.1719 1.7422 4.625 1.7422 7.2266 0 8.8203-7.1797 16-16 16-8.8242 0-16-7.1797-16-16s7.1758-16 16-16c2.6016 0 5.0508 0.63672 7.2227 1.7422zm4.2891-41.789c-1.1445 1.6836-2.6055 3.1445-4.2891 4.2891l-1.7383 1.0078c-2.1719 1.1055-4.6211 1.7422-7.2227 1.7422-8.8242 0-16-7.1797-16-16s7.1758-16 16-16c8.8203 0 16 7.1797 16 16 0 2.6016-0.63672 5.0547-1.7422 7.2266zm36.492-1.7344c-1.1055-2.1719-1.7422-4.625-1.7422-7.2266 0-8.8203 7.1758-16 16-16 8.8203 0 16 7.1797 16 16s-7.1797 16-16 16c-2.6016 0-5.0508-0.63672-7.2227-1.7422l-1.7383-1.0078c-1.6875-1.1445-3.1445-2.6055-4.2891-4.2891zm14.258 38.773c-3.0195 0-5.8594 0.75391-8.3594 2.0664-3.0742-4.7031-5.5938-10.105-5.5938-16.066s2.5195-11.363 5.5938-16.066c2.5 1.3125 5.3398 2.0664 8.3594 2.0664 9.9414 0 18-8.0586 18-18s-8.0586-18-18-18-18 8.0586-18 18c0 3.0195 0.75391 5.8594 2.0664 8.3594-4.7031 3.0742-10.105 5.5898-16.066 5.5898s-11.363-2.5156-16.066-5.5898c1.3125-2.5 2.0664-5.3398 2.0664-8.3594 0-9.9414-8.0586-18-18-18s-18 8.0586-18 18 8.0586 18 18 18c3.0195 0 5.8594-0.75391 8.3594-2.0664 3.0742 4.7031 5.5898 10.105 5.5898 16.066s-2.5156 11.363-5.5898 16.066c-2.5-1.3125-5.3398-2.0664-8.3594-2.0664-9.9414 0-18 8.0586-18 18s8.0586 18 18 18 18-8.0586 18-18c0-3.0195-0.75391-5.8594-2.0664-8.3594 4.7031-3.0742 10.105-5.5898 16.066-5.5898s11.363 2.5156 16.066 5.5898c-1.3125 2.5-2.0664 5.3398-2.0664 8.3594 0 9.9414 8.0586 18 18 18s18-8.0586 18-18-8.0586-18-18-18z"/>
  <path d="m18 21c-1.6562 0-3-1.3438-3-3s1.3438-3 3-3 3 1.3438 3 3-1.3438 3-3 3"/>
  <path d="m17 26c-0.55078 0-1-0.44531-1-1s0.44922-1 1-1c3.8594 0 7-3.1406 7-7 0-0.55469 0.44922-1 1-1s1 0.44531 1 1c0 4.9609-4.0391 9-9 9"/>
  <path d="m11 20c-0.55078 0-1-0.44531-1-1 0-4.9648 4.0391-9 9-9 0.55078 0 1 0.44531 1 1s-0.44922 1-1 1c-3.8594 0-7 3.1406-7 7 0 0.55469-0.44922 1-1 1"/>
  <path d="m18 31c-0.55078 0-1-0.44531-1-1s0.44922-1 1-1c6.0664 0 11-4.9336 11-11 0-0.55469 0.44922-1 1-1s1 0.44531 1 1c0 7.168-5.832 13-13 13"/>
  <path d="m6 19c-0.55078 0-1-0.44531-1-1 0-7.168 5.832-13 13-13 0.55078 0 1 0.44531 1 1s-0.44922 1-1 1c-6.0664 0-11 4.9336-11 11 0 0.55469-0.44922 1-1 1"/>
  <path d="m82 21c-1.6562 0-3-1.3438-3-3s1.3438-3 3-3 3 1.3438 3 3-1.3438 3-3 3"/>
  <path d="m81 26c-0.55078 0-1-0.44531-1-1s0.44922-1 1-1c3.8594 0 7-3.1406 7-7 0-0.55469 0.44922-1 1-1s1 0.44531 1 1c0 4.9609-4.0391 9-9 9"/>
  <path d="m75 20c-0.55078 0-1-0.44531-1-1 0-4.9648 4.0391-9 9-9 0.55078 0 1 0.44531 1 1s-0.44922 1-1 1c-3.8594 0-7 3.1406-7 7 0 0.55469-0.44922 1-1 1"/>
  <path d="m82 31c-0.55078 0-1-0.44531-1-1s0.44922-1 1-1c6.0664 0 11-4.9336 11-11 0-0.55469 0.44922-1 1-1s1 0.44531 1 1c0 7.168-5.832 13-13 13"/>
  <path d="m70 19c-0.55078 0-1-0.44531-1-1 0-7.168 5.832-13 13-13 0.55078 0 1 0.44531 1 1s-0.44922 1-1 1c-6.0664 0-11 4.9336-11 11 0 0.55469-0.44922 1-1 1"/>
  <path d="m18 85c-1.6562 0-3-1.3438-3-3s1.3438-3 3-3 3 1.3438 3 3-1.3438 3-3 3"/>
  <path d="m17 90c-0.55078 0-1-0.44531-1-1s0.44922-1 1-1c3.8594 0 7-3.1406 7-7 0-0.55469 0.44922-1 1-1s1 0.44531 1 1c0 4.9609-4.0391 9-9 9"/>
  <path d="m11 84c-0.55078 0-1-0.44531-1-1 0-4.9648 4.0391-9 9-9 0.55078 0 1 0.44531 1 1s-0.44922 1-1 1c-3.8594 0-7 3.1406-7 7 0 0.55469-0.44922 1-1 1"/>
  <path d="m18 95c-0.55078 0-1-0.44531-1-1s0.44922-1 1-1c6.0664 0 11-4.9336 11-11 0-0.55469 0.44922-1 1-1s1 0.44531 1 1c0 7.168-5.832 13-13 13"/>
  <path d="m6 83c-0.55078 0-1-0.44531-1-1 0-7.168 5.832-13 13-13 0.55078 0 1 0.44531 1 1s-0.44922 1-1 1c-6.0664 0-11 4.9336-11 11 0 0.55469-0.44922 1-1 1"/>
 </g>
</svg>
