<?xml version="1.0" encoding="utf-8"?>
<svg width="100pt" height="100pt" version="1.1" viewBox="0 0 100 100" xmlns="http://www.w3.org/2000/svg">
  <defs>
    <linearGradient id="gradient-0" gradientUnits="userSpaceOnUse" x1="28.401" y1="52.199" x2="28.401" y2="53.399">
      <stop offset="0" style="stop-color: rgba(0, 0, 0, 1)"/>
      <stop offset="1" style="stop-color: rgba(0, 0, 0, 1)"/>
    </linearGradient>
    <linearGradient id="gradient-1" gradientUnits="userSpaceOnUse" x1="50.426" y1="33.04" x2="50.426" y2="79.5" gradientTransform="matrix(1, 0, 0, 0.990099, 0, 0.78713)">
      <stop offset="0" style="stop-color: rgb(34, 151, 222);"/>
      <stop offset="1" style="stop-color: rgb(255, 111, 88);"/>
    </linearGradient>
    <linearGradient id="gradient-2" gradientUnits="userSpaceOnUse" x1="53.468" y1="33.5" x2="53.468" y2="61.417">
      <stop offset="0" style="stop-color: rgba(0, 0, 0, 1)"/>
      <stop offset="1" style="stop-color: rgba(0, 0, 0, 1)"/>
    </linearGradient>
    <linearGradient id="gradient-3" gradientUnits="userSpaceOnUse" x1="58.148" y1="34.575" x2="58.148" y2="55.75">
      <stop offset="0" style="stop-color: rgba(0, 0, 0, 1)"/>
      <stop offset="1" style="stop-color: rgba(0, 0, 0, 1)"/>
    </linearGradient>
    <linearGradient id="gradient-4" gradientUnits="userSpaceOnUse" x1="35.618" y1="42.545" x2="35.618" y2="56.102">
      <stop offset="0" style="stop-color: rgba(0, 0, 0, 1)"/>
      <stop offset="1" style="stop-color: rgba(0, 0, 0, 1)"/>
    </linearGradient>
  </defs>
  <g>
    <path d="m29.352 52.801l-0.95312-0.60156-0.94922 0.60156 0.94922 0.59766z" style="fill: url(#gradient-0);"/>
    <path d="m75.352 55.551c0-0.89844-0.44922-1.6992-1.1484-2.1484l-0.89844-0.60156 0.89844-0.55078c0.75-0.44922 1.1992-1.3008 1.1992-2.1484 0-0.89844-0.44922-1.6992-1.1484-2.1484l-22.449-14.5c-0.85156-0.55078-1.9492-0.55078-2.8008 0l-22.449 14.5c-0.75 0.5-1.1484 1.3008-1.1484 2.1484 0 0.89844 0.44922 1.6992 1.1992 2.1484l0.89844 0.60156 0.94922-0.60156-1.3008-0.85156c-0.44922-0.30078-0.69922-0.75-0.69922-1.3008 0-0.55078 0.25-1 0.69922-1.3008l22.449-14.5c0.25-0.14844 0.55078-0.25 0.85156-0.25s0.60156 0.10156 0.85156 0.25l22.449 14.5c0.44922 0.30078 0.69922 0.75 0.69922 1.3008 0 0.55078-0.25 1-0.69922 1.3008l-1.3008 0.85156-0.94922 0.60156-4.4492 2.8516-0.94922 0.60156-14.75 9.4492c-0.5 0.30078-1.1484 0.30078-1.6484 0l-14.75-9.4492-0.94922-0.60156-4.4492-2.8516-0.94922 0.60156 4.4492 2.8516 0.94922 0.60156 14.992 9.6953c0.39844 0.25 0.89844 0.39844 1.3984 0.39844s0.94922-0.14844 1.3984-0.39844l15.148-9.6992 0.94922-0.60156 4.4492-2.8516 1.3008 0.85156c0.44922 0.30078 0.69922 0.75 0.69922 1.3008 0 0.55078-0.25 1-0.69922 1.3008l-2.4492 1.6016-0.94922 0.60156-19 12.199c-0.5 0.30078-1.1484 0.30078-1.6484 0l-19-12.199-0.94922-0.60156-2.4492-1.6016c-0.44922-0.30078-0.69922-0.75-0.69922-1.3008 0-0.55078 0.25-1 0.69922-1.3008l1.3008-0.85156-0.94922-0.60156-0.89844 0.60156c-0.75 0.5-1.1484 1.3008-1.1484 2.1484 0 0.89844 0.44922 1.6992 1.1992 2.1484l2.0508 1.3516-2.1016 1.3516c-0.75 0.5-1.1484 1.3008-1.1484 2.1484 0 0.89844 0.44922 1.6992 1.1992 2.1484l22.297 14.355c0.39844 0.25 0.89844 0.39844 1.3984 0.39844s0.94922-0.14844 1.3984-0.39844l22.449-14.398c0.75-0.44922 1.1992-1.3008 1.1992-2.1484 0-0.89844-0.44922-1.6992-1.1484-2.1484l-2.1016-1.3516 2.0508-1.3516c0.70312-0.45312 1.1055-1.2539 1.1055-2.1523zm-1.7031 5.6992c0.44922 0.30078 0.69922 0.75 0.69922 1.3008s-0.25 1-0.69922 1.3008l-22.449 14.398c-0.5 0.30078-1.1484 0.30078-1.6484 0l-22.449-14.398c-0.44922-0.30078-0.69922-0.75-0.69922-1.3008s0.25-1 0.69922-1.3008l2.4492-1.6016 19.449 12.453c0.39844 0.25 0.89844 0.39844 1.3984 0.39844s0.94922-0.14844 1.3984-0.39844l19.398-12.449z" style="fill: url(#gradient-1);"/>
    <path d="m65.25 57.949l-20.699-10.648c-0.25-0.10156-0.35156-0.35156-0.39844-0.60156l-0.80078-12.551c0-0.34766-0.35156-0.64844-0.75-0.64844-0.39844 0.050781-0.69922 0.35156-0.64844 0.75l0.85156 13.199v0.14844l-1.5 8.8008c-0.050782 0.39844 0.19922 0.75 0.60156 0.85156 0.39844 0.050781 0.75-0.19922 0.85156-0.60156l1.1992-7c0.10156-0.5 0.60156-0.75 1.0508-0.5l8.3984 4.3516c0.39844 0.19922 0.5 0.69922 0.25 1.0508l-3.8516 5.75c-0.19922 0.35156-0.14844 0.80078 0.19922 1 0.35156 0.19922 0.80078 0.14844 1-0.19922l4.0508-6.0508c0.19922-0.30078 0.60156-0.39844 0.94922-0.25l8.6484 4.4492c0.35156 0.19922 0.80078 0.050781 0.94922-0.30078 0.097657-0.34766 0-0.80078-0.35156-1z" style="fill: url(#gradient-2);"/>
    <path d="m63.551 55.75c-0.19922 0-0.39844-0.050781-0.55078-0.14844l-1.0508-0.55078c-0.25-0.14844-0.35156-0.44922-0.19922-0.69922 0.14844-0.25 0.44922-0.35156 0.69922-0.19922l1.0508 0.55078c0.050781 0.050781 0.10156 0.050781 0.14844 0 0.25-0.14844 0.60156-0.35156 1.0508-0.60156 0.25-0.14844 0.55078-0.050781 0.69922 0.19922 0.14844 0.25 0.050781 0.55078-0.19922 0.69922-0.44922 0.25-0.80078 0.44922-1.0508 0.60156-0.19922 0.097657-0.39844 0.14844-0.59766 0.14844zm-4.1016-2.1484c-0.10156 0-0.14844 0-0.25-0.050781l-2.6992-1.4492c-0.25-0.14844-0.35156-0.44922-0.19922-0.69922 0.14844-0.25 0.44922-0.35156 0.69922-0.19922l2.6992 1.4492c0.25 0.14844 0.35156 0.44922 0.19922 0.69922-0.046876 0.14844-0.25 0.25-0.44922 0.25zm8.1523-0.10156c-0.19922 0-0.35156-0.10156-0.44922-0.25-0.14844-0.25-0.050782-0.55078 0.19922-0.69922 0.80078-0.44922 1.6016-0.94922 2.3516-1.3984 0.10156-0.050782 0.14844-0.10156 0.25-0.14844 0.19922-0.19922 0.55078-0.14844 0.69922 0.050782 0.19922 0.19922 0.14844 0.55078-0.050782 0.69922-0.10156 0.10156-0.25 0.19922-0.35156 0.25-0.75 0.44922-1.5508 0.89844-2.3516 1.3984-0.097657 0.046875-0.19922 0.097656-0.29688 0.097656zm-13.551-2.8516c-0.10156 0-0.14844 0-0.25-0.050782l-2.6992-1.4492c-0.25-0.14844-0.35156-0.44922-0.19922-0.69922 0.14844-0.25 0.44922-0.35156 0.69922-0.19922l2.6992 1.4492c0.25 0.14844 0.35156 0.44922 0.19922 0.69922-0.10156 0.15234-0.25 0.25-0.44922 0.25zm16.449-1.5469c-0.14844 0-0.30078-0.050781-0.39844-0.19922-0.10156-0.14844-0.25-0.25-0.39844-0.35156l-2-1.3008c-0.25-0.14844-0.30078-0.5-0.14844-0.69922 0.14844-0.25 0.5-0.30078 0.69922-0.14844l2 1.3008c0.25 0.14844 0.44922 0.35156 0.64844 0.60156 0.14844 0.25 0.14844 0.55078-0.10156 0.69922-0.050781 0.046875-0.19922 0.097656-0.30078 0.097656zm-21.852-1.4023c-0.10156 0-0.14844 0-0.25-0.050781l-1.1484-0.64844c-0.64844-0.35156-1.1016-0.94922-1.3008-1.6992-0.050781-0.30078 0.10156-0.55078 0.39844-0.60156 0.30078-0.050781 0.55078 0.10156 0.60156 0.39844 0.10156 0.44922 0.39844 0.80078 0.75 1l1.1484 0.64844c0.25 0.14844 0.35156 0.44922 0.19922 0.69922-0.046875 0.20313-0.24609 0.25391-0.39844 0.25391zm16.801-2.0977c-0.10156 0-0.19922-0.050781-0.30078-0.10156l-2.5508-1.6992c-0.25-0.14844-0.30078-0.5-0.14844-0.69922 0.14844-0.25 0.5-0.30078 0.69922-0.14844l2.5508 1.6992c0.25 0.14844 0.30078 0.5 0.14844 0.69922-0.097656 0.14844-0.24609 0.25-0.39844 0.25zm-19.348-2.9531c-0.25 0-0.5-0.19922-0.5-0.44922l-0.30078-3.0508c-0.050781-0.30078 0.19922-0.55078 0.44922-0.55078 0.30078-0.050781 0.55078 0.19922 0.55078 0.44922l0.30078 3.0508c0.050782 0.30078-0.19922 0.55078-0.44922 0.55078h-0.050782zm14.199-0.44922c-0.10156 0-0.19922-0.050781-0.30078-0.10156l-2.5508-1.6992c-0.25-0.14844-0.30078-0.5-0.14844-0.69922 0.14844-0.25 0.5-0.30078 0.69922-0.14844l2.5508 1.6992c0.25 0.14844 0.30078 0.5 0.14844 0.69922-0.050781 0.15234-0.25 0.25-0.39844 0.25zm-5.1523-3.3984c-0.10156 0-0.19922-0.050781-0.30078-0.10156l-2.5508-1.6992c-0.25-0.14844-0.30078-0.5-0.14844-0.69922 0.14844-0.25 0.5-0.30078 0.69922-0.14844l2.5508 1.6992c0.25 0.14844 0.30078 0.5 0.14844 0.69922-0.046875 0.14844-0.24609 0.25-0.39844 0.25zm-7.7969-1.5508c-0.14844 0-0.35156-0.10156-0.44922-0.25-0.14844-0.25-0.10156-0.55078 0.14844-0.69922l2.3984-1.5508c0.10156-0.050781 0.19922-0.10156 0.35156-0.14844 0.25-0.10156 0.55078 0.10156 0.64844 0.35156 0.10156 0.25-0.10156 0.55078-0.35156 0.64844h-0.050781l-2.3984 1.5508c-0.097657 0.097656-0.19922 0.097656-0.29688 0.097656z" style="fill: url(#gradient-3);"/>
    <path d="m37.5 56.102h-0.10156c-0.35156-0.050781-0.69922-0.19922-1-0.39844l-1.8516-1.1992c-0.25-0.14844-0.30078-0.44922-0.14844-0.69922 0.14844-0.25 0.44922-0.30078 0.69922-0.14844l1.8516 1.1992c0.19922 0.10156 0.39844 0.19922 0.60156 0.25 0.30078 0.050781 0.44922 0.30078 0.44922 0.60156-0.050781 0.19141-0.25 0.39453-0.5 0.39453zm2.3008-1.6016h-0.10156c-0.25-0.050781-0.44922-0.30078-0.39844-0.60156v-0.050782l0.64844-3c0.050781-0.30078 0.35156-0.44922 0.60156-0.39844 0.30078 0.050781 0.44922 0.35156 0.39844 0.60156l-0.64844 3c-0.050781 0.30078-0.25 0.44922-0.5 0.44922zm-7.5508-1.6484c-0.10156 0-0.19922-0.050781-0.30078-0.10156l-1.3008-0.85156c-0.55078-0.35156-0.94922-0.89844-1.1016-1.5508-0.050781-0.30078 0.10156-0.55078 0.39844-0.60156 0.30078-0.050782 0.55078 0.10156 0.60156 0.39844 0.050781 0.25 0.25 0.64844 0.64844 0.89844l1.3008 0.85156c0.25 0.14844 0.30078 0.44922 0.14844 0.69922-0.042969 0.20703-0.19531 0.25781-0.39453 0.25781zm8.8984-4.3516h-0.10156c-0.30078-0.050781-0.44922-0.35156-0.39844-0.60156l0.050781-0.19922c0-0.10156 0.050781-0.19922 0.050781-0.35156v-0.14844l-0.25-2.25c-0.050781-0.30078 0.19922-0.55078 0.44922-0.55078 0.30078-0.050782 0.55078 0.19922 0.55078 0.44922l0.19922 2.1992v0.25c0 0.19922 0 0.35156-0.050781 0.55078l-0.050782 0.19922c0.003906 0.30469-0.24609 0.45312-0.44922 0.45312zm-9.75-0.19922c-0.14844 0-0.35156-0.10156-0.39844-0.19922-0.14844-0.25-0.10156-0.55078 0.14844-0.69922l2.5508-1.75c0.25-0.14844 0.55078-0.10156 0.69922 0.14844 0.14844 0.25 0.10156 0.55078-0.14844 0.69922l-2.5508 1.75c-0.097657 0-0.19922 0.050781-0.30078 0.050781zm5.1016-3.5c-0.14844 0-0.35156-0.10156-0.39844-0.19922-0.14844-0.25-0.10156-0.55078 0.14844-0.69922l1.3008-0.89844c0.55078-0.35156 1.1484-0.5 1.8008-0.44922 0.30078 0.050781 0.5 0.30078 0.44922 0.60156s-0.30078 0.5-0.60156 0.44922c-0.35156-0.050781-0.75 0.050781-1.0508 0.25l-1.3008 0.89844c-0.14844 0.046875-0.24609 0.046875-0.34766 0.046875z" style="fill: url(#gradient-4);"/>
  </g>
</svg>