<?xml version="1.0" encoding="UTF-8"?>
<svg width="100pt" height="100pt" version="1.1" viewBox="0 0 100 100" xmlns="http://www.w3.org/2000/svg">
 <g>
  <path d="m80.785 17.777l-30.789-17.777-30.777 17.754 0.023438 35.523 10.777 6.2227-2.7461 4.7539 0.089843 0.15625-5.8203-0.011718-15 25.992 5.5898 9.6445 11.145 0.023438 15-25.977-2.9219-5.0469h0.1875l2.7461-4.7539 11.746 6.7773 30.773-17.746zm-30.758 46.855l-25.234-14.566-0.023438-29.109 25.223-14.535 25.234 14.566 0.011719 29.109z"/>
  <path d="m34.145 20.629l0.23438 0.41406h-6.3555l4.9336-2.5469 0.63281 1.4336h0.96875z"/>
  <path d="m36.645 16.266v2.5547h-1.0781l-0.63281-1.3125z"/>
  <path d="m29.879 26.598l-1.4102 2.5664 0.49609 0.93359-0.85547 1.4102 1.7344 2.8672h-3.1992v-11.109h3.0664l-0.67578 0.74219 1.7539 2.5898z"/>
  <path d="m36.645 23.266v3.332h-2.2305l1.7109-2.5469-0.64453-0.78516z"/>
  <path d="m31.414 46.344l0.78516 1.3633h-5.5547v-11.109h2.168l-0.22266 0.45312 0.60156 0.65625h1.2305l0.56641 1.0117-0.67578 1.2031 0.39844 0.70703-0.65625 0.96875 1.0703 1.668h2.0547z"/>
  <path d="m36.645 38.82v3.332h-2.3555l-1.9453-3.1992 0.67969-1.3359-0.51172-1.0195h3.2656l-0.38672 1.0117 0.5 1.2109z"/>
  <path d="m35.324 52.152l-0.78906 1.3906-6.2773-3.6133h4.707l1.3242 2.2227z"/>
  <path d="m48.867 8.957v12.086h-3.7344l0.37891-0.51172-1.0664-1.7109h-2.125l-1.0664 1.7109 0.37891 0.51172h-2.8438l-1.0352-1.8008v-3.7461z"/>
  <path d="m48.867 23.266v11.109h-11.113l1.5039-2.7109-1.5039-2.8438h2.5586l1.168-2.2227-1.168-2.2227h-2.5586v-1.1094h4.668l-0.27734 0.38672 0.46875 0.72266h0.92969l0.52344-0.69531-0.15234-0.41406z"/>
  <path d="m48.867 36.598v11.109h-2.5117l0.15625-0.28516-0.46875-0.82422h-0.92969l-0.40234 0.86719-1.2539-1.9766h-1.2656l-2.1445-3.3359h-2.293v-5.5547z"/>
  <path d="m48.867 49.93v11.648l-11.113-6.5469 2.9375-2.8789h2.7656l1.2891-2.2227z"/>
  <path d="m61.426 14.375l-1.4336 2.1562-0.53516-1.043h-1.3555l-1.375 2.8203 0.67578 1.6211h1.043l1.0664 1.1133h-8.4219v-12.09z"/>
  <path d="m61.512 31.043l-0.875-1.8125-0.98828 1.8125h-2.3125l-0.67578 1.1094h-1.3555l-0.67578-1.1094 0.67578-1.1094h1.3242l-0.46875-0.80078 0.69922-1.1992-0.5-0.66797 0.46484-0.66797h0.93359l0.46484 1.1094h1.2578l1.668-2.9453-0.87891-1.5h-1.6094l-0.35156 0.33203 0.63281 0.91016-0.67969 0.97656h-1.3555l-0.67969-1.1211 0.43359-0.44531-0.55469-0.65625h-0.54297l0.46875 0.55469-0.46875 0.55469h-0.93359l-0.46484-0.55469 0.46484-0.55469-3.5391 0.007813v11.109h2.2109l0.69922-1.1094h8.1992v-1.832z"/>
  <path d="m52.523 36.578l-0.75391 1.2344v-1.2344z"/>
  <path d="m58.133 47.711h-7.043v-8.2109l2.9102 3.7656h2.4102l1.2227 2.1328-0.48828 0.8125z"/>
  <path d="m62.047 55.488l-10.957 6.0977v-11.656h7.8359l-0.95703 1.5664 2.0898 3.9922z"/>
  <path d="m72.957 49.934l-9.6445 4.4883v-3.2227l0.73047-1.2656z"/>
  <path d="m73.191 21.043h-2.2344l-1.0977-1.9336z"/>
  <path d="m67.801 29.93l-0.80859 1.1133h-0.86719l-0.46875 0.60938 0.41406 0.5h-1.168l-0.67578 1.1133 0.6875 1.1094h-1.6016v-4.4453z"/>
  <path d="m73.66 25.488l-2.293 3.332h-1.3984l2.7695-4.3008-1.0117-1.2539h1.5859z"/>
  <path d="m73.68 33.266v1.1094h-1.8984l1.4531-2.168 0.42578 1.0586z"/>
  <path d="m67.426 36.598l-0.28906 1.1094h-1.168l-0.71094-1.1094z"/>
  <path d="m73.312 36.598v11.109h-8.6992l0.5-1.4648-0.6875-2.2578v-0.71875h0.54297l2.9102-4.4453h0.47656l0.46875-1.1133-0.46875-1.1094z"/>
 </g>
</svg>
