<?xml version="1.0" encoding="UTF-8"?>
<svg fill="#FFFFFF" width="100pt" height="100pt" version="1.1" viewBox="0 0 100 100" xmlns="http://www.w3.org/2000/svg">
 <g>
  <path d="m94.574 92.523h-67.898v-5.5312h1.7812v3.7539h64.34v-65.168l-16.324-16.324h-48.016v11.086h-1.7812v-12.863h50.531l17.367 17.367z"/>
  <path d="m43.062 91.301c-20.754 0-37.637-16.883-37.637-37.637 0-20.754 16.883-37.637 37.637-37.637s37.637 16.883 37.637 37.637c0 8.2227-2.6055 16.035-7.5312 22.594l-1.4219-1.0703c4.6914-6.2422 7.1758-13.688 7.1758-21.523 0-19.77-16.086-35.855-35.859-35.855-19.77 0-35.859 16.086-35.859 35.855 0 19.773 16.086 35.855 35.859 35.855 7.6289 0 14.91-2.3633 21.059-6.832l1.0469 1.4375c-6.457 4.6953-14.102 7.1758-22.105 7.1758z"/>
  <path d="m37.387 65.02c-9.8711 0-17.898-8.0273-17.898-17.902 0-9.8711 8.0312-17.902 17.898-17.902 9.8711 0 17.902 8.0312 17.902 17.902 0 9.875-8.0312 17.902-17.902 17.902zm0-34.914c-9.3789 0-17.012 7.6328-17.012 17.012 0 9.3789 7.6328 17.012 17.012 17.012 9.3828 0 17.012-7.6328 17.012-17.012 0-9.3789-7.6289-17.012-17.012-17.012z"/>
  <path d="m88.32 61.855h-9.2422v-1.7773h7.4609v-35.93h-9.0742v-9.3086h-43.566v3.4727h-1.7773v-5.25h47.121v9.3086h9.0781z"/>
  <path d="m88.32 86.301h-10.449v-1.7812h8.668v-18.168h-8.668v-1.7773h10.449z"/>
  <path d="m73.602 89.867c-7.0234-0.003907-18.645-18.379-19.137-19.164-1.0703-1.4531-6.4453-8.9453-5.3945-11.023 0.14453-0.28516 0.46094-0.62891 1.1484-0.62891 1.5898 0 4.9492 1.9805 10.27 6.0586 15.633 11.984 17.98 16.512 17.988 18.145 0.003907 0.35156-0.097656 0.57812-0.1875 0.71484-0.72656 3.9141-2.3047 5.8984-4.6875 5.8984zm-23.379-29.926c-0.28516 0-0.33594 0.097656-0.35547 0.14062-0.59375 1.1719 2.7656 6.625 5.3359 10.125 0.13672 0.21484 11.863 18.77 18.398 18.773 1.9102 0 3.1992-1.7734 3.832-5.2773l0.027344-0.16797 0.13281-0.10547c-0.015625 0 1.5-2.9297-17.648-17.609-6.332-4.8594-8.7812-5.8789-9.7227-5.8789z"/>
  <path d="m57.012 62.973l1.3281 1.1836-4.2969 4.8125-1.3281-1.1836z"/>
  <path d="m58.906 64.395l1.3477 1.1602-4.7305 5.4961-1.3477-1.1602z"/>
  <path d="m14.332 72.449c-0.53906 0-1.168-0.11719-1.875-0.35156l0.28125-0.84375c0.89062 0.29688 2.0781 0.53125 2.6641-0.050781 0.76953-0.76562 0.36719-2.6758 0.14844-3.3477l-0.18359-0.5625 0.59375-0.019531c0.84766-0.023438 1.8984-0.18359 2.0898-0.76953 0.45703-1.4102-3.125-4.832-5.4883-6.6562l-0.25-0.19531 0.10156-0.30078c2.582-7.6992-3.2773-17.727-3.3359-17.828l0.76562-0.45313c0.24609 0.41797 5.9805 10.227 3.5117 18.262 1.4961 1.1836 6.2773 5.1797 5.5469 7.4453-0.24609 0.76562-1.0352 1.2188-2.3516 1.3516 0.20703 0.91016 0.46484 2.7344-0.51562 3.7031-0.41797 0.41406-0.98828 0.61719-1.7031 0.61719z"/>
  <path d="m28.012 31.059h-0.89062v-2.9102c0.007812-0.32031-0.097656-0.55078-0.33203-0.73828-1.3438-1.0664-5.9141-0.1875-7.5625 0.23438l-0.22266-0.85938c0.65234-0.16797 6.4062-1.6016 8.3398-0.070312 0.44922 0.35547 0.68359 0.85547 0.66797 1.4453z"/>
  <path d="m62.004 40.293l-0.28906-0.84375c2.0703-0.70703 3.2148-1.5938 3.3086-2.5625 0.12891-1.3125-1.6055-2.75-2.6523-3.4414-1.6719 3.5469-2.457 3.9062-3.0586 3.7656-0.92969-0.23047-0.96094-2.0742-0.89844-3.1523 0.22266-2.418 1.0078-3.9062 2.3398-4.4375 2.4023-0.95312 5.6562 1.6562 6.2773 2.1836 0.40234 0.050781 0.60938-0.078126 0.73047-0.19141 0.64844-0.58203 0.65625-2.2695 0.60938-2.8125l0.88672-0.078125c0.023438 0.26172 0.19531 2.5703-0.90234 3.5547-0.29297 0.26172-0.8125 0.53906-1.6094 0.38672l-0.11719-0.023437-0.089844-0.078125c-0.92969-0.82031-3.7188-2.8008-5.457-2.1055-0.99609 0.39453-1.5938 1.6328-1.7812 3.6758-0.058593 0.99609 0.066407 2.0703 0.26172 2.2383-0.003906-0.03125 0.61328-0.24609 2.2109-3.7422l0.20312-0.44141 0.42188 0.24219c0.15234 0.089843 3.7383 2.1641 3.5117 4.5547-0.13281 1.3516-1.4453 2.4688-3.9062 3.3086z"/>
  <path d="m68.09 58.297l-4.1484-0.58984c-0.85547 0.55859-1.7539 0.71094-2.6758 0.44531-2.9375-0.84766-5.0039-5.7656-5.0898-5.9766l0.82422-0.33984c0.019531 0.046874 1.9844 4.7344 4.5117 5.4609 0.71094 0.19922 1.3828 0.070313 2.0625-0.41797l0.14453-0.10156 4.1719 0.59375c0.55859-0.37109 2.7266-1.9336 2.5469-3.6055-0.13672-1.25-1.6367-2.4062-4.3359-3.3438l-0.17969-0.0625-0.078125-0.17188c-0.019531-0.039062-1.8945-4.0664-4.4375-4.8594-0.79688-0.25-1.5664-0.14844-2.3398 0.3125l-0.24219 0.14453-0.23047-0.15625c-0.375-0.25391-3.6523-2.5234-3.5078-4.3594l0.015624-0.17969 0.13281-0.11719c0.11719-0.10156 2.8633-2.5273 5.2305-2.2578 0.85547 0.10156 1.5547 0.53516 2.0742 1.2891l-0.73047 0.50391c-0.375-0.53906-0.85156-0.83984-1.4492-0.91016-1.7148-0.21094-3.8047 1.4297-4.3828 1.9062 0.11719 0.95312 1.7188 2.3984 2.8906 3.2305 0.91406-0.46875 1.8594-0.55078 2.8086-0.25781 2.625 0.81641 4.4844 4.3281 4.8945 5.1602 2.9805 1.0664 4.5781 2.4219 4.7539 4.0273 0.26172 2.4688-2.9609 4.4609-3.0977 4.5469z"/>
  <path d="m37.387 62.648c-8.5625 0-15.527-6.9648-15.527-15.527s6.9648-15.527 15.527-15.527 15.527 6.9648 15.527 15.527-6.9648 15.527-15.527 15.527zm0-30.168c-8.0703 0-14.637 6.5664-14.637 14.641 0 8.0703 6.5664 14.641 14.637 14.641 8.0703 0 14.641-6.5664 14.641-14.641-0.003906-8.0742-6.5703-14.641-14.641-14.641z"/>
 </g>
</svg>
