<?xml version="1.0" encoding="UTF-8"?>
<svg width="100pt" height="100pt" version="1.1" viewBox="0 0 100 100" xmlns="http://www.w3.org/2000/svg">
 <g>
  <path d="m82.688 57.195c-0.24609-0.57422-0.8125-0.94531-1.4375-0.94531h-21.984c5.2148-8.2969 11.047-18.934 11.047-25 0-7.2578-3.8711-13.961-10.156-17.59s-14.027-3.6289-20.312 0-10.156 10.332-10.156 17.59c0 6.0664 5.832 16.703 11.047 25h-21.984c-0.625 0-1.1914 0.37109-1.4375 0.94531l-14.062 32.812c-0.20703 0.48438-0.15625 1.0391 0.13281 1.4766 0.28906 0.4375 0.78125 0.70312 1.3047 0.70312h90.625c0.52344 0 1.0156-0.26562 1.3047-0.70312 0.28906-0.4375 0.33984-0.99219 0.13281-1.4766zm-12.812 2.1797h10.344l1.6562 3.8711-2.0703 0.69141-2.5469-1.2734c-0.33594-0.16797-0.71875-0.21094-1.0781-0.11719l-5.3906 1.3477-1.8164-1.8203zm-37.062-28.125c0-6.1406 3.2773-11.816 8.5938-14.887 5.3164-3.0664 11.871-3.0664 17.188 0 5.3164 3.0703 8.5938 8.7461 8.5938 14.887 0 7.4766-11.426 25.137-17.188 33.262-5.7617-8.125-17.188-25.785-17.188-33.262zm21.039 33.203c3.4648 0.71875 5.5234 2.2852 5.5234 3.5156 0 1.6328-3.5664 3.9062-9.375 3.9062s-9.375-2.2734-9.375-3.9062c0-1.2305 2.0586-2.7969 5.5234-3.5156 1.4375 2.0781 2.4219 3.4258 2.5898 3.6562 0.29688 0.40234 0.76172 0.64062 1.2617 0.64062s0.96484-0.23828 1.2617-0.64062c0.16797-0.22656 1.1523-1.5781 2.5898-3.6562zm-34.07-5.0781h10.113l-1.1719 1.7578-5.2852 1.3203-4.4961-1.125zm30.297 26.07-1.2031 3.6172h-41.816l10.641-24.824 5.3594 1.3398c0.25 0.0625 0.50781 0.0625 0.75781 0l6.25-1.5625c0.37891-0.09375 0.70703-0.32422 0.92188-0.64844l2.6602-3.9922h9.0859c0.53125 0.8125 1.0469 1.5898 1.5352 2.3203-4.1719 1.1484-6.7695 3.4805-6.7695 6.2734 0 4.0078 5.375 7.0312 12.5 7.0312s12.5-3.0234 12.5-7.0312c0-2.793-2.5977-5.125-6.7695-6.2734 0.48828-0.73047 1.0039-1.5039 1.5352-2.3203h9.3164l-0.875 2.6328h-0.003906c-0.18359 0.55859-0.039063 1.1797 0.37891 1.5977l3.125 3.125c0.39062 0.38672 0.95312 0.54297 1.4844 0.41016l5.6875-1.4219 2.6094 1.3047c0.37109 0.1875 0.80078 0.21875 1.1914 0.082031l2.9336-0.97656 2.3047 5.375-7.0312-1.1719v0.003907c-0.32422-0.054688-0.66016-0.003907-0.95703 0.14062l-9.2188 4.6133-6.0859 1.5195h0.003906c-0.44531 0.10938-0.81641 0.41016-1.0195 0.81641l-2.7812 5.5664-7.0625 1.4141c-0.55469 0.10547-1.0078 0.50391-1.1875 1.0391zm2.0898 3.6172 0.58984-1.7695 6.9297-1.3867c0.47266-0.09375 0.87891-0.40234 1.0938-0.83203l2.8047-5.6094 5.5547-1.3867h-0.003906c0.10938-0.027344 0.21484-0.066406 0.3125-0.11719l8.9219-4.4609 8.5117 1.418 6.0586 14.145z"/>
  <path d="m62.5 31.25c0-5.0547-3.0469-9.6133-7.7148-11.547-4.6719-1.9375-10.051-0.86719-13.625 2.707-3.5742 3.5742-4.6445 8.9531-2.707 13.625 1.9336 4.668 6.4922 7.7148 11.547 7.7148 6.8984-0.007812 12.492-5.6016 12.5-12.5zm-21.875 0c0-3.793 2.2852-7.2109 5.7891-8.6602 3.5-1.4531 7.5352-0.64844 10.215 2.0312 2.6797 2.6797 3.4844 6.7148 2.0312 10.215-1.4492 3.5039-4.8672 5.7891-8.6602 5.7891-5.1758-0.003906-9.3711-4.1992-9.375-9.375z"/>
  <path d="m42.031 77.426c-0.12109-0.24219-0.30469-0.44922-0.53125-0.60156l-4.4297-2.9531-2.9531-4.4297 0.003906 0.003906c-0.29297-0.4375-0.78516-0.69922-1.3086-0.69531h-4.6875c-0.41406 0-0.8125 0.16406-1.1055 0.45703l-2.5 2.5-5.3906-1.3477c-0.40234-0.10156-0.82812-0.039063-1.1836 0.17578-0.35547 0.21484-0.60937 0.55859-0.71094 0.96094l-1.5625 6.25c-0.10938 0.42969-0.03125 0.88281 0.21484 1.25l3.125 4.6875c0.21484 0.32422 0.54297 0.55469 0.92188 0.64844l6.25 1.5625c0.125 0.03125 0.25 0.042969 0.37891 0.042969h4.6875c0.24219 0.003906 0.48047-0.050781 0.69922-0.15625l2.5469-1.2734 4.0742 1.3555c0.15625 0.050781 0.32422 0.078125 0.49219 0.074219 0.41406 0 0.8125-0.16406 1.1055-0.45703l3.125-3.125c0.47656-0.47656 0.59375-1.2031 0.29297-1.8047zm-3.3828 5.1562-3.7734-1.25c-0.39062-0.13281-0.82031-0.10156-1.1914 0.082031l-2.7969 1.4062h-4.1328l-5.4766-1.3672-2.4062-3.6094 1.0156-4.0625 4.7344 1.1836v-0.003906c0.53125 0.13672 1.0938-0.019532 1.4844-0.41016l2.668-2.6758h3.2031l2.6562 3.9922c0.11328 0.17187 0.26172 0.32031 0.43359 0.43359l4.3438 2.8945 0.875 1.7461z"/>
 </g>
</svg>
