<?xml version="1.0" encoding="UTF-8"?>
<svg fill="#FFFFFF" width="100pt" height="100pt" version="1.1" viewBox="0 0 100 100" xmlns="http://www.w3.org/2000/svg">
 <path d="m21.875 9.375v14.062h-9.375v54.688h26.562v10.938h-10.938v1.5625h43.75v-1.5625h-10.938v-10.938h26.562v-54.688h-29.688v-5.793l-0.23047-0.22656-7.8125-7.8125-0.22656-0.23047zm1.5625 1.5625h25v7.8125h7.8125v25.344l-0.38672-0.53516-4.0352 1.6094 0.28516 2.1328-2.1211-0.34375-1.7148 3.9922 1.7148 1.3047-1.7461 1.2578 0.46875 1.1758h-25.277zm26.562 1.1055l5.1445 5.1445h-5.1445zm-10.156 3.9453l-8.5938 4.957v9.6484l8.5938 4.9609 8.5938-4.9609v-9.6484zm0 1.8047l6.168 3.5625-6.168 3.5586-6.168-3.5586zm-7.0312 4.8672l6.25 3.6094v7.0312l-6.25-3.6094zm14.062 0v7.0312l-6.25 3.6094v-7.0312zm-32.812 2.3398h7.8125v3.125h-4.6875v35.938h65.625v-21.309l0.81641-0.81641-0.83984-1.4023 1.5859-0.39453v-3.7188l-1.582-0.39453 0.83594-1.4023-0.81641-0.81641v-5.6836h-25v-3.125h28.125v42.168h-71.875zm4.6875 4.6875h3.125v26.562h27.461l0.51953 1.2969 2.1328-0.28906-0.34375 2.125 3.9961 1.7148 1.3008-1.7148 1.2578 1.7461 4.0352-1.6094-0.28516-2.1328 2.1211 0.34375 1.7148-3.9922-1.7148-1.3047 1.7461-1.2617-1.6094-4.0352-2.1328 0.28906 0.34375-2.1211-3.9961-1.7148-0.60938 0.80469v-14.707h23.438v2.5547l-0.25-0.25-1.4023 0.83984-0.39453-1.582h-3.7188l-0.39453 1.582-1.4023-0.83594-2.6289 2.6289 0.83984 1.4023-1.5859 0.39453v3.7227l1.582 0.39062-0.83594 1.4023 2.625 2.6328 1.4023-0.83984 0.39844 1.582h3.7188l0.39453-1.582 1.4023 0.83594 0.25-0.25v18.184h-62.5zm57.953 3.125h1.2773l0.61328 2.4492 2.1641-1.3008 0.90625 0.90625-1.3008 2.1641 2.4492 0.61328v1.2734l-2.4492 0.61328 1.3008 2.1641-0.90625 0.90625-2.1641-1.3008-0.60938 2.4492h-1.2812l-0.61328-2.4492-2.1602 1.3008-0.90625-0.90625 1.2969-2.1641-2.4453-0.61328v-1.2734l2.4492-0.61719-1.3008-2.1602 0.90625-0.90625 2.1641 1.3008zm-6.8906 1.6523l-0.90234 0.54297 0.80469 1.3438 0.90234-0.54297zm-2.2461 1.3555l-1.3398 0.80469 0.80078 1.3398 1.3398-0.80859zm9.7773 0.11719c-1.293 0-2.3438 1.0508-2.3438 2.3438s1.0508 2.3438 2.3438 2.3438 2.3438-1.0508 2.3438-2.3438-1.0508-2.3438-2.3438-2.3438zm-12.457 1.4922l-1.3398 0.80469 0.80078 1.3359 1.3398-0.80078zm12.457 0.070312c0.42969 0 0.78125 0.35156 0.78125 0.78125s-0.35156 0.78125-0.78125 0.78125-0.78125-0.35156-0.78125-0.78125 0.35156-0.78125 0.78125-0.78125zm-15.137 1.5391l-1.3398 0.80078 0.80469 1.3398 1.3398-0.80078zm-22.363 0.023438c-0.49219 0-0.98438 0.050781-1.4609 0.15625l0.32422 1.5273c0.37109-0.082032 0.75391-0.12109 1.1367-0.12109 1.4375 0 2.8477 0.58594 3.8672 1.6016 1.0156 1.0195 1.6016 2.4297 1.6016 3.8672 0 0.45703-0.058594 0.91016-0.17188 1.3477l1.5156 0.39062c0.14453-0.56641 0.21875-1.1523 0.21875-1.7383 0-1.8516-0.75-3.6602-2.0586-4.9727-1.3125-1.3086-3.1211-2.0586-4.9727-2.0586zm-3.1172 0.73438c-0.51953 0.26172-1.0117 0.58984-1.457 0.97266l1.0234 1.1836c0.34375-0.30078 0.72266-0.55469 1.1289-0.75781zm22.809 0.84766l-1.3398 0.80469 0.80469 1.3398 1.3398-0.80469zm-19.691 1.4141l-2.8945 2.8984 1.1016 1.1016 1.0117-1.0078v3.9727h1.5625v-3.9727l1.0117 1.0078 1.1016-1.1016zm-5.75 0.007812c-0.33984 0.48047-0.61719 1.0039-0.82422 1.5469l1.4609 0.55859c0.16016-0.42578 0.375-0.82812 0.64062-1.207zm-1.2383 3.2539c-0.027344 0.25781-0.042969 0.51172-0.042969 0.77344 0 0.33594 0.023438 0.66016 0.070312 0.98047l1.543-0.21875c-0.035156-0.25-0.050781-0.50391-0.050781-0.76172 0-0.20312 0.011719-0.40234 0.035156-0.60547zm22.453 0.14063l1.7812 2.4688 1.8438-2.4258 1.7461 0.75391-0.48438 3 3.0117-0.41016 0.70703 1.7734-2.4688 1.7773 2.4258 1.8438-0.75391 1.75-3-0.48828 0.40625 3.0156-1.7695 0.70703-1.7773-2.4688-1.8438 2.4258-1.75-0.75391 0.48828-3-3.0156 0.41016-0.70703-1.7734 2.4688-1.7773-2.4219-1.8438 0.75-1.75 3.0039 0.48828-0.41016-3.0156zm21.543 0.023437l-1.2148 0.98047 0.98438 1.2148 1.2148-0.98047zm-2.4297 1.9648l-1.2148 0.98047 0.98438 1.2148 1.2148-0.98047zm-39.637 0.71484l-1.4375 0.60156c0.22266 0.54297 0.51562 1.0547 0.86719 1.5234l1.25-0.9375c-0.27344-0.36328-0.50391-0.76562-0.67969-1.1875zm9.8516 0.54688c-0.21875 0.39844-0.49219 0.77344-0.80078 1.1055l1.1406 1.0664c0.39844-0.42578 0.74609-0.90625 1.0273-1.4219zm27.355 0.70312l-1.2109 0.98438 0.98047 1.2148 1.2148-0.98047zm-14.961 0.58594c-1.293 0-2.3438 1.0508-2.3438 2.3438s1.0508 2.3438 2.3438 2.3438 2.3438-1.0508 2.3438-2.3438-1.0508-2.3438-2.3438-2.3438zm-20.621 0.33984l-0.98047 1.2109c0.45703 0.37109 0.95312 0.6875 1.4805 0.92969l0.66016-1.418c-0.41016-0.19141-0.80078-0.42969-1.1602-0.72266zm6.375 0.35156c-0.38281 0.25-0.79688 0.44922-1.2227 0.58984l0.49219 1.4844c0.55078-0.18359 1.0859-0.44531 1.5781-0.76562zm26.781 0.69141l-1.2148 0.98047 0.98047 1.2148 1.2148-0.98047zm-30.699 0.089844l-0.28516 1.5352c0.41406 0.078126 0.83984 0.11719 1.2617 0.11719 0.16406 0 0.33203-0.003906 0.49609-0.019531l-0.11719-1.5586c-0.45703 0.03125-0.91797 0.003906-1.3555-0.074219zm18.164 0.089844c0.42969 0 0.78125 0.35156 0.78125 0.78125s-0.35156 0.78125-0.78125 0.78125-0.78125-0.35156-0.78125-0.78125 0.35156-0.78125 0.78125-0.78125zm10.105 1.7852l-0.97266 0.78516 0.98438 1.2148 0.96875-0.78516zm-53.074 15.383h71.875v7.832h-71.875zm31.25 1.582v4.6875h9.375v-4.6875zm1.5625 1.5625h6.25v1.5625h-6.25zm-6.25 6.25h18.75v10.938h-18.75z"/>
</svg>
