<?xml version="1.0" encoding="UTF-8"?>
<svg fill="#FFFFFF" width="100pt" height="100pt" version="1.1" viewBox="0 0 100 100" xmlns="http://www.w3.org/2000/svg">
 <path d="m16.812 7.0039c-0.47656 0.089844-0.82031 0.51562-0.8125 1v71.996c0 0.55469 0.44922 1 1 1h9v11c0 0.55078 0.44922 1 1 1h56c0.55078 0 1-0.44922 1-1v-71.996c0-0.55078-0.44922-1-1-1h-9v-11c0-0.55078-0.44922-1-1-1h-56c-0.0625-0.003906-0.125-0.003906-0.1875 0zm1.1875 2h54v69.996h-54zm27 6c-11.035 0-20 8.9648-20 20s8.9648 20 20 20 20-8.9648 20-20-8.9648-20-20-20zm0 2c9.9531 0 18 8.0469 18 18s-8.0469 18-18 18-18-8.0469-18-18 8.0469-18 18-18zm29 4h8v69.996h-54v-10h45c0.55078 0 1-0.44531 1-1zm-29.125 1.9688c-0.51562 0.0625-0.89453 0.51172-0.875 1.0312v2c-2.9453 0-5 2.3203-5 5 0 2.8125 2.5898 5 6 5 2.625 0 4 1.3789 4 3 0 1.7539-1.0195 3-3 3h-6c-0.26953-0.003906-0.52734 0.097656-0.71484 0.28516-0.19141 0.1875-0.30078 0.44531-0.30078 0.71484 0 0.26562 0.10938 0.52344 0.30078 0.71094 0.1875 0.1875 0.44531 0.29297 0.71484 0.28906h4v2c-0.003906 0.26562 0.10156 0.52344 0.28906 0.71484s0.44141 0.29688 0.71094 0.29688 0.52344-0.10547 0.71094-0.29688 0.29297-0.44922 0.28906-0.71484v-2c2.9453 0 5-2.3203 5-5 0-2.8125-2.5898-5-6-5-2.625 0-4-1.3789-4-3 0-1.7539 1.0195-3 3-3h6c0.26953 0.003906 0.52734-0.10156 0.71484-0.28906 0.19141-0.1875 0.30078-0.44531 0.30078-0.71094 0-0.26953-0.10938-0.52344-0.30078-0.71094-0.1875-0.19141-0.44531-0.29297-0.71484-0.28906h-4v-2c0.011719-0.29297-0.10547-0.57812-0.32422-0.77734-0.21484-0.19922-0.50781-0.29297-0.80078-0.25391zm-18.062 40.027c-0.55078 0.054688-0.95703 0.54297-0.90625 1.0938 0.050781 0.55469 0.54297 0.96094 1.0938 0.90625h36c0.26953 0.003906 0.52734-0.097656 0.71484-0.28516 0.19141-0.1875 0.30078-0.44531 0.30078-0.71484 0-0.26562-0.10938-0.52344-0.30078-0.71094-0.1875-0.1875-0.44531-0.29297-0.71484-0.28906h-36c-0.0625-0.003906-0.125-0.003906-0.1875 0zm0 8c-0.55078 0.054688-0.95703 0.54297-0.90625 1.0938 0.050781 0.55469 0.54297 0.96094 1.0938 0.90625h36c0.26953 0.003906 0.52734-0.097656 0.71484-0.28516 0.19141-0.19141 0.30078-0.44531 0.30078-0.71484 0-0.26562-0.10938-0.52344-0.30078-0.71094-0.1875-0.1875-0.44531-0.29297-0.71484-0.28906h-36c-0.0625-0.003906-0.125-0.003906-0.1875 0z"/>
</svg>
