<?xml version="1.0" encoding="UTF-8"?>
<svg width="100pt" height="100pt" version="1.1" viewBox="0 0 100 100" xmlns="http://www.w3.org/2000/svg">
 <g>
  <path d="m65.91 62.121 8.4883-8.4805-8.4883-8.4883-8.4805 8.4883zm5.6602-8.4805-5.6602 5.6602-5.6602-5.6602 5.6602-5.6406z"/>
  <path d="m34.449 75.852 11.82-11.852-17.668-17.648-6 6 4.9297 4.9297-5.832 5.8203zm-9-23.5 3.1797-3.1719 14.812 14.82-9 9-9.9102-9.8984 5.8203-5.8203z"/>
  <path d="m49.289 52.488 0.71094 0.71094 0.71094-0.71094c7.6016-7.6016 8.4414-10.891 8.4414-16.109h-0.003906c0-5.0508-4.0938-9.1484-9.1484-9.1484s-9.1484 4.0977-9.1484 9.1484c0 5.2227 0.83984 8.5117 8.4375 16.109zm0.71094-23.258c1.9102-0.042969 3.75 0.69922 5.1016 2.0469 1.3516 1.3516 2.0898 3.1953 2.0469 5.1016 0 4.2305-0.35156 7-7.1484 14-6.8008-7-7.1484-9.75-7.1484-14-0.042968-1.9062 0.69531-3.75 2.0469-5.1016 1.3516-1.3477 3.1914-2.0898 5.1016-2.0469z"/>
  <path d="m50 41c2.0234 0 3.8438-1.2188 4.6211-3.0859 0.77344-1.8672 0.34375-4.0195-1.0859-5.4492-1.4297-1.4297-3.582-1.8594-5.4492-1.0859-1.8672 0.77734-3.0859 2.5977-3.0859 4.6211 0 1.3242 0.52734 2.5977 1.4648 3.5352s2.2109 1.4648 3.5352 1.4648zm0-8c1.2148 0 2.3086 0.73047 2.7734 1.8516 0.46094 1.1211 0.20703 2.4102-0.65234 3.2695s-2.1484 1.1133-3.2695 0.65234c-1.1211-0.46484-1.8516-1.5586-1.8516-2.7734 0-1.6562 1.3438-3 3-3z"/>
  <path d="m81 36c0-1.6562-1.3438-3-3-3h-16v2h5.3008l-3.8398 3.8398 12.867 12.871 2.6719-2.7109v3.6914l-23.602 24.309h-4.3984l6.8086-7.0781-6.1484-6.1484-12.949 13.227h-7.8594l-9.8516-9.8516v-18l14.199-14.148h2.8008v-2h-16c-1.6562 0-3 1.3438-3 3v41h-5v5c0 1.6562 1.3438 3 3 3h66c1.6562 0 3-1.3438 3-3v-5h-5zm-2 33.77-2.6016-2.6094 2.6016-2.6914zm-2.6719-20.891-10-10 3.8008-3.8789h7.8711c0.26562 0 0.51953 0.10547 0.70703 0.29297s0.29297 0.44141 0.29297 0.70703v10.211zm2.6719 6.7227v6l-5.4102 5.5898 5.4102 5.3984v4.4102h-0.33984l-7.4219-7.4297-7.1602 7.4297h-5.8867zm-3.1602 21.398h-9l4.4102-4.5703zm-24.18-10.379 3.3398 3.3789-6.8008 7h-6.6875zm-23.66 10.379h-2l-5-5v-2zm-7-30.629v-3.8125l7.4805-7.4805-0.089844-0.078125h4zm1-11.371h3.7305l-4.7305 4.7305v-3.7305c0-0.55078 0.44922-1 1-1zm-1 39.809 2.1914 2.1914h-2.1914zm63 4.1914v3c0 0.26562-0.10547 0.51953-0.29297 0.70703s-0.44141 0.29297-0.70703 0.29297h-66c-0.55078 0-1-0.44922-1-1v-3h31v1h6v-1z"/>
  <path d="m49 20h2v4h-2z"/>
  <path d="m58.551 26.789 2.8281-2.8281 1.4141 1.4141-2.8281 2.8281z"/>
  <path d="m37.211 25.375 1.4141-1.4141 2.8281 2.8281-1.4141 1.4141z"/>
 </g>
</svg>
