<?xml version="1.0" encoding="UTF-8"?>
<svg width="100pt" height="100pt" version="1.1" viewBox="0 0 100 100" xmlns="http://www.w3.org/2000/svg">
 <g>
  <path d="m65.117 11.77h-60.168v76.469h77.789l12.312-0.007812v-76.461zm-1.4883 1.5625c-0.1875 0.20312-0.35547 0.41016-0.53906 0.61719-0.32422 0.35938-0.64062 0.72266-0.95312 1.0859-0.38281 0.44922-0.75781 0.90234-1.125 1.3555-0.29297 0.36719-0.58594 0.73438-0.86719 1.1016-0.35156 0.46094-0.69141 0.92578-1.0273 1.3945-0.26563 0.36719-0.52734 0.73828-0.78125 1.1094-0.32422 0.47656-0.62891 0.95703-0.92969 1.4375-0.23047 0.36719-0.46875 0.73828-0.6875 1.1094-0.29297 0.49609-0.56641 0.99609-0.83984 1.4961-0.19922 0.36328-0.40234 0.72266-0.58984 1.0898-0.26953 0.52734-0.51562 1.0586-0.76172 1.5938-0.16016 0.34375-0.32812 0.6875-0.48047 1.0312-0.25781 0.59375-0.48438 1.1953-0.71094 1.793-0.10938 0.28906-0.23438 0.57422-0.33594 0.86719-0.31641 0.89453-0.60547 1.793-0.85547 2.6992-0.15625 0.56641-0.33984 1.1211-0.54297 1.6719-0.066406 0.17969-0.14844 0.35547-0.21875 0.53516-0.14453 0.36328-0.28906 0.73047-0.45312 1.0859-0.097657 0.21094-0.21094 0.41406-0.3125 0.625-0.15625 0.31641-0.30859 0.63672-0.48047 0.94922-0.12109 0.21875-0.25781 0.42969-0.38281 0.64453-0.17578 0.29297-0.33984 0.58984-0.52734 0.87891-0.14062 0.21875-0.29687 0.43359-0.44531 0.64844-0.19141 0.27734-0.375 0.55469-0.57422 0.82812-0.16016 0.21484-0.33203 0.42578-0.49609 0.64062-0.20703 0.26172-0.41016 0.52734-0.625 0.78906-0.17578 0.21484-0.36719 0.42188-0.55078 0.63281-0.21875 0.25-0.4375 0.50391-0.66406 0.75-0.19531 0.20703-0.39453 0.41016-0.59375 0.61719-0.23438 0.24219-0.46484 0.48047-0.70703 0.71875-0.20703 0.20312-0.42187 0.39844-0.63281 0.59766-0.24609 0.23047-0.49609 0.46484-0.75 0.69141-0.21875 0.19531-0.44531 0.38672-0.66797 0.57812-0.26172 0.22266-0.51953 0.44531-0.78516 0.66406-0.23047 0.19141-0.46875 0.375-0.70703 0.5625-0.26953 0.21094-0.53906 0.42578-0.8125 0.63281-0.24219 0.18359-0.48828 0.36328-0.73828 0.54297-0.27734 0.20312-0.55859 0.41016-0.84375 0.60937-0.25 0.17578-0.50781 0.35156-0.76172 0.52344-0.28906 0.19531-0.57422 0.39062-0.86719 0.58203-0.26172 0.17188-0.52344 0.33594-0.78516 0.50391-0.29297 0.1875-0.58984 0.375-0.88672 0.55859-0.26562 0.16406-0.53516 0.32422-0.80469 0.48438-0.30078 0.17969-0.60156 0.35547-0.90234 0.53125-0.27344 0.15625-0.54297 0.3125-0.82031 0.46484-0.30469 0.17188-0.61328 0.34375-0.91797 0.50781-0.27734 0.14844-0.55469 0.30078-0.83203 0.44531-0.30859 0.16406-0.61719 0.32422-0.92969 0.48438-0.28125 0.14453-0.55859 0.28516-0.83984 0.42578-0.30859 0.15625-0.62109 0.30859-0.93359 0.46094-0.28516 0.13672-0.56641 0.27344-0.85156 0.41016-0.30859 0.14844-0.62109 0.29297-0.93359 0.4375-0.28516 0.13281-0.57031 0.26172-0.85547 0.39062-0.30859 0.14062-0.61719 0.27734-0.92578 0.41406-0.28516 0.125-0.57031 0.25-0.85547 0.37109-0.30859 0.13281-0.61719 0.26172-0.92578 0.39062-0.28125 0.11719-0.5625 0.23438-0.84375 0.35156-0.30859 0.125-0.61328 0.25-0.91797 0.37109-0.28125 0.11328-0.55859 0.22266-0.83984 0.33203-0.30078 0.11719-0.60156 0.23438-0.90234 0.34766-0.27734 0.10547-0.55469 0.21094-0.82812 0.31641-0.29688 0.10938-0.58984 0.21875-0.88281 0.32422-0.27344 0.10156-0.54687 0.19922-0.81641 0.29688-0.28906 0.10547-0.57422 0.20703-0.86328 0.30469-0.26562 0.09375-0.53125 0.1875-0.79688 0.27734-0.27734 0.097656-0.55469 0.19141-0.82812 0.28125-0.26172 0.089844-0.52734 0.17969-0.78516 0.26172-0.26562 0.085937-0.52344 0.17188-0.78516 0.25781-0.26172 0.085937-0.52344 0.16797-0.77734 0.25-0.24219 0.078124-0.48047 0.15234-0.72266 0.22656-0.26172 0.082031-0.52344 0.16406-0.78125 0.24219-0.22656 0.070312-0.44531 0.13281-0.66406 0.19922-0.25781 0.078125-0.51562 0.15625-0.76562 0.23047-0.20312 0.058594-0.39844 0.11719-0.59766 0.17578-0.25391 0.074219-0.51172 0.14844-0.75781 0.21875-0.17969 0.050782-0.34766 0.097656-0.51953 0.14844-0.25391 0.070312-0.50781 0.14453-0.75 0.21094-0.023437 0.007813-0.046875 0.011719-0.074219 0.019531l0.003906-11.078c0.066407-0.019532 0.13672-0.039063 0.20313-0.058594 0.19531-0.054688 0.39062-0.11328 0.58594-0.17188 0.15625-0.046875 0.3125-0.09375 0.47266-0.14062 0.20312-0.0625 0.40625-0.125 0.61328-0.1875 0.16406-0.050782 0.32813-0.10156 0.49219-0.15234 0.20703-0.066406 0.41016-0.12891 0.62109-0.19531 0.17578-0.054688 0.34766-0.11328 0.52344-0.16797 0.20703-0.066407 0.41406-0.13281 0.62109-0.20312 0.17969-0.058594 0.36328-0.12109 0.54688-0.18359 0.21094-0.070312 0.41797-0.14453 0.63281-0.21484 0.1875-0.066406 0.375-0.13281 0.56641-0.19922 0.21094-0.074219 0.42188-0.14844 0.63281-0.22656 0.19141-0.070313 0.38672-0.14062 0.57812-0.21094 0.21484-0.078126 0.42969-0.16016 0.64844-0.24219 0.19531-0.074219 0.39062-0.14844 0.58594-0.22266 0.21484-0.082032 0.42969-0.16406 0.64453-0.25 0.20313-0.082032 0.40625-0.16016 0.61328-0.24219 0.21484-0.085937 0.42578-0.17188 0.64062-0.26172 0.20312-0.082032 0.40234-0.16797 0.60547-0.25391 0.21875-0.089843 0.43359-0.18359 0.65234-0.27734 0.20312-0.085938 0.41016-0.17578 0.61328-0.26563 0.21484-0.09375 0.42969-0.1875 0.64453-0.28516 0.21094-0.09375 0.41797-0.19141 0.62891-0.28906s0.42188-0.19531 0.63281-0.29688c0.21094-0.097657 0.41797-0.19922 0.62891-0.30078 0.21094-0.10156 0.41797-0.20313 0.625-0.30469 0.21094-0.10547 0.41797-0.21094 0.62891-0.31641 0.20703-0.10547 0.41406-0.21094 0.62109-0.32031s0.41406-0.21875 0.61719-0.33203c0.20703-0.10938 0.41406-0.22266 0.61719-0.33594 0.20703-0.11328 0.41016-0.23047 0.61328-0.34766 0.19922-0.11328 0.40234-0.23047 0.60156-0.34766 0.20312-0.12109 0.40625-0.24219 0.60547-0.36328 0.19531-0.11719 0.39453-0.23828 0.58984-0.35938 0.19922-0.125 0.39844-0.25391 0.59766-0.37891 0.19141-0.125 0.38281-0.24609 0.57422-0.37109 0.19531-0.12891 0.39062-0.26172 0.58594-0.39844 0.18359-0.12891 0.37109-0.25391 0.55469-0.38281 0.19531-0.13672 0.38281-0.27734 0.57031-0.41406 0.17969-0.12891 0.35938-0.26172 0.53516-0.39453 0.1875-0.14453 0.37109-0.28906 0.55859-0.43359 0.17188-0.13281 0.34375-0.26953 0.51172-0.40625 0.18359-0.15234 0.36328-0.30469 0.54297-0.45703 0.16016-0.13672 0.32422-0.27344 0.48438-0.41406 0.17969-0.15625 0.34766-0.31641 0.52344-0.47656 0.15234-0.14062 0.30859-0.28125 0.45703-0.42578 0.17188-0.16406 0.33203-0.33203 0.5-0.49609 0.14453-0.14453 0.28906-0.28906 0.42969-0.43359 0.16406-0.16797 0.31641-0.34375 0.47266-0.51953 0.13281-0.14844 0.27344-0.29688 0.40234-0.44531 0.15234-0.17578 0.29297-0.35547 0.44141-0.53516 0.12891-0.15234 0.25781-0.30469 0.37891-0.46484 0.14453-0.18359 0.27734-0.37109 0.41406-0.55859 0.11328-0.15625 0.23438-0.30859 0.34375-0.46875 0.13281-0.19531 0.25781-0.39453 0.38672-0.58984 0.10156-0.15625 0.20703-0.30859 0.30078-0.46875 0.125-0.20703 0.23828-0.41797 0.35547-0.62891 0.085937-0.15234 0.17969-0.30469 0.26172-0.46484 0.11719-0.22266 0.22266-0.44922 0.32812-0.67578 0.070312-0.14844 0.14844-0.29688 0.21484-0.44922 0.11328-0.25781 0.21094-0.51953 0.3125-0.78125 0.050782-0.125 0.10547-0.25 0.14844-0.375 0.14062-0.39062 0.26953-0.78906 0.38281-1.1914 0.20703-0.74609 0.44922-1.4883 0.71875-2.2227 0.10156-0.27344 0.22656-0.54297 0.33594-0.8125 0.18359-0.46094 0.36328-0.92188 0.57031-1.375 0.14453-0.30859 0.3125-0.61328 0.46484-0.92188 0.20703-0.41016 0.39844-0.82422 0.625-1.2305 0.17578-0.32031 0.38281-0.63281 0.57031-0.94922 0.23047-0.38672 0.45312-0.77734 0.70703-1.1641 0.21094-0.32031 0.44531-0.63281 0.66797-0.94922 0.26172-0.375 0.51172-0.75 0.79297-1.1211 0.23828-0.31641 0.50391-0.625 0.75391-0.93359 0.29297-0.36328 0.57812-0.73047 0.88672-1.0898 0.26953-0.30859 0.55859-0.61328 0.83984-0.91797 0.32422-0.35547 0.64062-0.71484 0.98438-1.0664 0.29297-0.30078 0.60938-0.59375 0.91797-0.89063 0.32422-0.31641 0.64453-0.63281 0.98047-0.94141l13.586-0.011718zm-28.836 0.58594c0.17578-0.19531 0.35156-0.39453 0.53516-0.58984h12.441c-0.11719 0.11719-0.22656 0.23828-0.33984 0.35547-0.28516 0.28516-0.55469 0.57031-0.82813 0.85938-0.35547 0.375-0.70703 0.75391-1.043 1.1328-0.26172 0.29297-0.51562 0.58984-0.76172 0.88672-0.32031 0.38281-0.63281 0.76562-0.9375 1.1523-0.23438 0.30078-0.46875 0.60156-0.69141 0.90625-0.28906 0.39062-0.56641 0.78516-0.83594 1.1836-0.20703 0.30469-0.41406 0.60937-0.61328 0.91406-0.26172 0.40625-0.50391 0.82031-0.74609 1.2305-0.17578 0.30078-0.35547 0.60156-0.52344 0.90625-0.23828 0.43359-0.45312 0.87109-0.66406 1.3086-0.14062 0.28906-0.28906 0.57422-0.42188 0.86719-0.22266 0.49219-0.41797 0.98438-0.61328 1.4805-0.097656 0.24609-0.20703 0.48828-0.29297 0.73047-0.27344 0.74609-0.51562 1.4961-0.72656 2.2539-0.10938 0.39062-0.23438 0.77734-0.375 1.1562-0.046875 0.12891-0.10547 0.25391-0.15625 0.38281-0.097657 0.24609-0.19531 0.49609-0.30469 0.74219-0.070312 0.15234-0.14844 0.30078-0.22266 0.44922-0.10547 0.21484-0.21094 0.42969-0.32422 0.64063-0.085937 0.16016-0.18359 0.3125-0.27344 0.46875-0.11719 0.19531-0.22656 0.39453-0.35156 0.58984-0.10156 0.16016-0.21094 0.31641-0.31641 0.47266-0.125 0.1875-0.25 0.375-0.38281 0.55859-0.11328 0.15625-0.23438 0.30859-0.35547 0.46484-0.13672 0.17969-0.27344 0.35547-0.41406 0.53125-0.125 0.15234-0.25781 0.30469-0.39062 0.45703-0.14844 0.16797-0.29297 0.33984-0.44531 0.50781-0.13672 0.15234-0.28125 0.30078-0.42188 0.44922-0.15234 0.16406-0.30859 0.32422-0.46875 0.48437-0.14844 0.14844-0.30078 0.29297-0.45703 0.44141-0.16406 0.15625-0.32422 0.30859-0.49219 0.46484-0.15625 0.14453-0.31641 0.28516-0.47656 0.42578-0.17187 0.14844-0.34375 0.30078-0.51953 0.44922-0.16406 0.13672-0.33203 0.27344-0.5 0.41016-0.17969 0.14453-0.35547 0.28906-0.53906 0.42969-0.17578 0.13281-0.34766 0.26953-0.52344 0.39844-0.18359 0.13672-0.36719 0.27734-0.55469 0.41016-0.17969 0.12891-0.36328 0.25781-0.54297 0.38672-0.19141 0.13281-0.37891 0.26172-0.57031 0.39453-0.1875 0.125-0.37109 0.25-0.5625 0.375-0.19531 0.12891-0.39062 0.25391-0.58594 0.37891-0.19141 0.12109-0.38281 0.24219-0.57422 0.35938-0.19922 0.12109-0.39844 0.24219-0.60156 0.36328-0.19141 0.11328-0.38672 0.23047-0.58203 0.34375-0.20312 0.11719-0.40625 0.23438-0.61328 0.35156-0.19531 0.10938-0.39062 0.21875-0.58594 0.32812-0.20703 0.11328-0.41406 0.22266-0.62109 0.33594-0.19531 0.10547-0.39453 0.21094-0.59375 0.31641-0.20703 0.10938-0.41406 0.21484-0.62109 0.32031-0.19922 0.10156-0.39844 0.20312-0.59766 0.30078-0.21094 0.10547-0.41797 0.20703-0.62891 0.30469-0.19922 0.097656-0.39453 0.19141-0.59375 0.28516-0.21094 0.10156-0.42578 0.19531-0.63672 0.29297-0.19531 0.089844-0.39062 0.17969-0.58594 0.26953-0.21484 0.097657-0.42969 0.19141-0.64063 0.28516-0.19141 0.085937-0.38281 0.16797-0.57422 0.25391-0.21484 0.089844-0.42578 0.17969-0.63672 0.26953-0.19141 0.078125-0.37891 0.16016-0.56641 0.23828-0.21094 0.085938-0.42188 0.17188-0.63281 0.25391-0.18359 0.074219-0.37109 0.15234-0.55859 0.22266-0.21094 0.082031-0.41797 0.16016-0.625 0.24219-0.17969 0.070313-0.36328 0.14062-0.54297 0.21094-0.24219 0.089844-0.47656 0.17578-0.71484 0.26562-0.14062 0.050781-0.28125 0.10547-0.42188 0.15625-0.375 0.13672-0.74219 0.26953-1.1055 0.39453-0.058594 0.019531-0.11719 0.039062-0.17578 0.058594-0.30469 0.10547-0.60547 0.21094-0.89844 0.30859-0.15234 0.050781-0.29297 0.097656-0.44141 0.14844-0.19531 0.066406-0.39844 0.13281-0.58984 0.19531-0.16016 0.050781-0.31641 0.10156-0.47266 0.15234-0.17578 0.046875-0.35156 0.10547-0.51953 0.15625-0.15234 0.046875-0.30078 0.09375-0.45312 0.14062-0.16406 0.050782-0.32812 0.10156-0.48828 0.14844-0.14453 0.042968-0.28125 0.085937-0.42188 0.125-0.12891 0.039062-0.25391 0.074218-0.37891 0.11328v-9.793c0.19531-0.066406 0.39844-0.14062 0.59375-0.21094 0.27734-0.097657 0.55469-0.19141 0.83594-0.29297 0.29297-0.10547 0.58984-0.21875 0.88672-0.32812 0.28516-0.10547 0.57031-0.21094 0.85547-0.32422 0.29687-0.11328 0.59375-0.23828 0.89062-0.35547 0.29297-0.11719 0.58203-0.23438 0.87109-0.35547 0.29688-0.125 0.59375-0.25391 0.89062-0.38672 0.29297-0.12891 0.58594-0.25391 0.875-0.38672 0.29688-0.13672 0.58984-0.27734 0.88672-0.41797 0.28906-0.13672 0.57812-0.27344 0.86328-0.41406 0.29297-0.14844 0.58594-0.30078 0.875-0.45312 0.28125-0.14844 0.56641-0.29297 0.84766-0.44531 0.28906-0.15625 0.57031-0.32422 0.85547-0.48828 0.27344-0.15625 0.55078-0.3125 0.82031-0.47656 0.28125-0.17188 0.55469-0.34766 0.83203-0.52344 0.26172-0.16797 0.52734-0.33203 0.78516-0.50391 0.27344-0.18359 0.53516-0.375 0.80078-0.56641 0.24609-0.17578 0.49609-0.34766 0.73828-0.53125 0.26172-0.19922 0.51172-0.40625 0.76172-0.60938 0.22656-0.18359 0.46094-0.36328 0.67969-0.55469 0.24609-0.21484 0.48047-0.4375 0.71484-0.65625 0.20703-0.19141 0.42188-0.38281 0.62109-0.57812 0.23047-0.23047 0.44531-0.47266 0.66406-0.71094 0.18359-0.19922 0.375-0.39453 0.55078-0.59766 0.21484-0.25391 0.40625-0.51563 0.60547-0.77344 0.15625-0.20312 0.32031-0.39844 0.46875-0.60547 0.19531-0.28125 0.36719-0.57031 0.54688-0.85938 0.12109-0.19922 0.25781-0.39062 0.37109-0.59375 0.18359-0.32812 0.33594-0.66797 0.49219-1.0078 0.082031-0.17578 0.17969-0.34375 0.25391-0.52344 0.21875-0.52344 0.40625-1.0586 0.55859-1.6094 0.13672-0.49219 0.29297-0.98047 0.46484-1.4688 0.058594-0.16016 0.12891-0.32031 0.1875-0.48047 0.12109-0.32422 0.24219-0.64844 0.38281-0.97266 0.085937-0.19531 0.18359-0.38672 0.27344-0.58203 0.13281-0.28516 0.25781-0.57031 0.40234-0.85156 0.10547-0.20703 0.22656-0.41406 0.33984-0.62109 0.14453-0.26172 0.28516-0.52734 0.4375-0.78906 0.125-0.21094 0.26172-0.41797 0.39453-0.625 0.16016-0.25391 0.31641-0.51172 0.48828-0.76562 0.14453-0.21094 0.29688-0.41797 0.44531-0.625 0.17578-0.24609 0.35156-0.49609 0.53906-0.74219 0.16016-0.20703 0.33203-0.41406 0.49609-0.62109 0.19531-0.24219 0.38672-0.48438 0.58984-0.72656 0.18359-0.19922 0.36719-0.40234 0.55078-0.60547zm-13.516-0.12891c0.14453-0.15234 0.28906-0.30469 0.4375-0.45703h11.496c-0.011719 0.011719-0.023438 0.027344-0.035157 0.042969-0.10156 0.11719-0.19531 0.23828-0.29297 0.35547-0.27734 0.33203-0.55078 0.66406-0.8125 0.99609-0.13281 0.16797-0.25391 0.33984-0.37891 0.51172-0.21484 0.28906-0.42969 0.57812-0.63281 0.87109-0.12891 0.18359-0.25 0.37109-0.37109 0.55859-0.1875 0.28125-0.36719 0.56641-0.54297 0.85156-0.11719 0.19141-0.23047 0.38672-0.34375 0.57812-0.16406 0.28516-0.32422 0.57422-0.47656 0.86328-0.10156 0.19141-0.20312 0.38672-0.30078 0.58203-0.14844 0.30078-0.28906 0.60156-0.42578 0.90234-0.085937 0.1875-0.17188 0.37109-0.25 0.55859-0.14062 0.33203-0.26953 0.66406-0.39453 0.99609-0.058594 0.16016-0.125 0.31641-0.17969 0.47656-0.17578 0.49609-0.33203 0.99219-0.47266 1.4922-0.14844 0.52734-0.33594 1.043-0.55078 1.5469-0.074219 0.17188-0.17188 0.33203-0.25391 0.50391-0.16016 0.32422-0.3125 0.65234-0.5 0.96875-0.11328 0.19531-0.25 0.37891-0.375 0.57031-0.17969 0.27734-0.35547 0.55859-0.55859 0.82812-0.14844 0.19531-0.30859 0.38672-0.46484 0.57812-0.20312 0.25-0.40625 0.50391-0.625 0.74609-0.17578 0.19141-0.36328 0.375-0.54297 0.5625-0.22656 0.23047-0.44922 0.46094-0.68359 0.6875-0.19531 0.18359-0.40234 0.36328-0.60938 0.54297-0.24219 0.21484-0.48828 0.42969-0.73828 0.63281-0.21484 0.17578-0.4375 0.34766-0.66016 0.51562-0.25781 0.19922-0.51953 0.39844-0.78516 0.58984-0.23047 0.16406-0.46484 0.32422-0.69922 0.48437-0.27344 0.1875-0.54688 0.37109-0.82422 0.55078-0.24219 0.15234-0.48438 0.30469-0.73047 0.45703-0.28125 0.17188-0.56641 0.34375-0.85156 0.50781-0.25 0.14453-0.5 0.28516-0.75 0.42578-0.28516 0.16016-0.57422 0.31641-0.86328 0.46875-0.25391 0.13281-0.50781 0.26562-0.76172 0.39453-0.28906 0.14844-0.58203 0.28906-0.87109 0.42969-0.25391 0.12109-0.50391 0.24219-0.75781 0.36328-0.28906 0.13672-0.57812 0.26562-0.86719 0.39453-0.25 0.11328-0.5 0.22266-0.75 0.33203-0.28516 0.12109-0.56641 0.24219-0.84766 0.35547-0.24609 0.10156-0.48828 0.20312-0.73047 0.30078-0.27734 0.11328-0.55469 0.21875-0.82422 0.32422-0.23438 0.089844-0.46875 0.17969-0.69531 0.26562-0.26562 0.097656-0.52344 0.19141-0.78125 0.28516-0.22266 0.082031-0.44922 0.16406-0.66406 0.23828-0.058594 0.019532-0.11328 0.039063-0.16797 0.058594v-7.3203c0.28906-0.15625 0.54688-0.32031 0.82422-0.48047 0.30469-0.17578 0.61719-0.35156 0.90625-0.53125 0.32812-0.20312 0.63281-0.41406 0.94141-0.625 0.26953-0.17969 0.54688-0.35938 0.80469-0.54688 0.29687-0.21484 0.56641-0.4375 0.84766-0.66016 0.23438-0.18359 0.47656-0.36719 0.69531-0.55469 0.26562-0.23047 0.50391-0.46484 0.75-0.69922 0.19531-0.1875 0.40625-0.37109 0.58984-0.55859 0.23828-0.24609 0.44141-0.49609 0.65234-0.74609 0.16016-0.1875 0.33203-0.36719 0.47656-0.55859 0.20703-0.26562 0.38281-0.54297 0.5625-0.8125 0.11719-0.17969 0.25391-0.35156 0.36328-0.53516 0.18359-0.30469 0.33203-0.61719 0.48047-0.92969 0.074219-0.15234 0.16797-0.30469 0.23828-0.46094 0.20312-0.46875 0.375-0.94531 0.51172-1.4297 0.11328-0.40625 0.24219-0.8125 0.38672-1.2148 0.050781-0.14062 0.11328-0.27734 0.16406-0.41406 0.10156-0.26172 0.19922-0.52344 0.31641-0.78516 0.070312-0.16016 0.15234-0.31641 0.23047-0.47656 0.11328-0.23828 0.22266-0.47266 0.34375-0.70703 0.085938-0.16797 0.1875-0.33203 0.28125-0.49609 0.125-0.22266 0.25-0.44922 0.38672-0.66797 0.10156-0.16797 0.21875-0.33203 0.32812-0.5 0.14062-0.21484 0.27734-0.42969 0.42969-0.64453 0.11719-0.16797 0.25-0.33594 0.37109-0.5 0.15625-0.20703 0.30859-0.41797 0.47266-0.625 0.13672-0.16797 0.28125-0.33594 0.42188-0.50391 0.16797-0.19922 0.33594-0.40234 0.51172-0.59766 0.14844-0.16797 0.3125-0.33594 0.47266-0.50781zm-14.766-0.45703h13.055c-0.30078 0.33594-0.58984 0.67578-0.86719 1.0195-0.003907 0.003907-0.003907 0.007813-0.007813 0.011719-0.30078 0.375-0.58594 0.75391-0.85547 1.1328-0.089844 0.125-0.17188 0.25391-0.26172 0.37891-0.17969 0.26172-0.35156 0.51953-0.51953 0.78125-0.09375 0.15234-0.18359 0.30469-0.27344 0.45312-0.14453 0.24609-0.28906 0.48828-0.42188 0.73828-0.085937 0.15625-0.16797 0.31641-0.25 0.47656-0.12891 0.25-0.25 0.5-0.36719 0.75391-0.070313 0.15234-0.14453 0.30859-0.21094 0.46484-0.12109 0.27734-0.23047 0.55469-0.33594 0.83594-0.050781 0.12891-0.10156 0.25781-0.14844 0.39062-0.14844 0.41406-0.28125 0.82812-0.39844 1.2461-0.007813 0.027344-0.019532 0.054687-0.027344 0.078125-0.11328 0.39062-0.25391 0.78125-0.41797 1.1641-0.0625 0.14063-0.14453 0.27734-0.21484 0.41797-0.13281 0.26953-0.26172 0.53516-0.42188 0.79688-0.097656 0.16016-0.21484 0.31641-0.32031 0.47656-0.16016 0.23828-0.32031 0.47656-0.5 0.71094-0.12891 0.16406-0.27344 0.32812-0.41406 0.49219-0.19141 0.22266-0.38281 0.44531-0.59375 0.66406-0.16016 0.16406-0.33203 0.32812-0.5 0.49219-0.22266 0.21094-0.44922 0.42578-0.69141 0.63281-0.1875 0.16406-0.38672 0.32422-0.58594 0.48438-0.25391 0.20703-0.51953 0.41016-0.79297 0.60938-0.21484 0.15625-0.43359 0.3125-0.66016 0.46875-0.28906 0.19922-0.59375 0.39844-0.90234 0.59375-0.23828 0.15234-0.48047 0.30078-0.73047 0.44922-0.11719 0.070313-0.24609 0.13672-0.36719 0.21094v-17.426zm4.5859 73.336c0-0.015625 0-0.03125 0.003906-0.050781 0.003907-0.10156 0.011719-0.20313 0.019532-0.30469 0.011718-0.19531 0.023437-0.38672 0.042968-0.58594 0.011719-0.11719 0.023438-0.23828 0.039063-0.35547 0.019531-0.18359 0.039063-0.37109 0.066406-0.55859 0.019531-0.12891 0.039063-0.26172 0.058594-0.39453 0.027344-0.17969 0.054687-0.35938 0.089844-0.53906 0.023437-0.13672 0.054687-0.27344 0.082031-0.41406 0.035156-0.17969 0.074219-0.35938 0.11719-0.53906 0.03125-0.14062 0.070312-0.28125 0.10547-0.42188 0.046875-0.17969 0.09375-0.35938 0.14844-0.53906 0.042968-0.14453 0.085937-0.28516 0.13281-0.42969 0.054688-0.17969 0.11719-0.35547 0.17969-0.53516 0.050781-0.14453 0.10547-0.28906 0.16406-0.43359 0.070313-0.17578 0.14062-0.35156 0.21484-0.53125 0.0625-0.14453 0.125-0.28906 0.19141-0.43359 0.082032-0.17578 0.16797-0.35156 0.25781-0.52344 0.074219-0.14453 0.14844-0.28516 0.22656-0.42969 0.09375-0.17188 0.19531-0.34766 0.30078-0.51563 0.085938-0.14062 0.16797-0.28125 0.25781-0.41797 0.10938-0.17188 0.22656-0.33984 0.34766-0.50781 0.097657-0.13672 0.19141-0.27344 0.29297-0.40625 0.12891-0.16797 0.26172-0.33203 0.40234-0.5 0.10547-0.12891 0.21094-0.26172 0.32422-0.38672 0.14844-0.16797 0.30859-0.33203 0.46484-0.49219 0.11719-0.12109 0.23047-0.24219 0.35156-0.36328 0.17578-0.16797 0.36328-0.33203 0.54688-0.49219 0.12109-0.10938 0.23828-0.21875 0.36719-0.32422 0.21484-0.17578 0.44141-0.34375 0.67188-0.51172 0.11719-0.085938 0.22266-0.17578 0.34375-0.26172 0.35547-0.25 0.72656-0.49219 1.1211-0.72266 8.5625-5.0664 10.84-7.8125 12.848-10.238 0.85156-1.0234 1.6523-1.9922 2.8906-3.0625 0.28906-0.24609 0.61328-0.53125 0.96875-0.84766 1.8438-1.6133 4.5742-4.0508 7.6211-6.7695 1.0977-0.98047 2.2305-1.9922 3.3828-3.0234 3.0742-2.7461 6.1875-5.5312 8.7461-7.8008 0.85156-0.75781 1.6445-1.457 2.3516-2.0781 2.1797-1.918 4.25-4.6328 6.4375-7.5078 1.5391-2.0234 3.1016-4.0703 4.7344-5.8906 1.0195-1.1367 2.0703-2.1836 3.1641-3.082 1.8203-1.4922 3.7539-2.5664 5.8672-2.9258 2.5039-0.42969 4.8086-0.89453 7.0391-1.3438 0.75781-0.15234 1.5039-0.30469 2.2461-0.44922 0.18359-0.035156 0.36719-0.070312 0.55078-0.10547 0.55859-0.10938 1.1133-0.21484 1.6641-0.31641 0.26172-0.046876 0.52344-0.09375 0.78125-0.13672 0.47266-0.085938 0.94531-0.16797 1.418-0.24609 0.29297-0.046875 0.58984-0.089844 0.88281-0.13672 0.28906-0.042968 0.57812-0.085937 0.86719-0.125v17.309c-0.089844-0.003906-0.1875-0.003906-0.27734-0.007812-0.71094-0.035157-1.4414-0.058594-2.1992-0.058594-11.715 0-26.805 3.8438-35.094 8.9414-0.80078 0.49219-1.5508 0.99609-2.2617 1.5156-4.9648 3.625-7.8594 7.8594-10.902 12.312-2.2852 3.3438-4.6523 6.8047-8.0664 10.27-0.33203 0.33594-0.63281 0.68359-0.91016 1.043-0.09375 0.12109-0.16797 0.25-0.25781 0.375-0.17188 0.24219-0.34766 0.48438-0.49609 0.73438-0.089844 0.15234-0.16797 0.31641-0.25 0.47266-0.12109 0.23047-0.25 0.46094-0.35547 0.69531-0.078125 0.17188-0.14062 0.34766-0.20703 0.52344-0.089844 0.23047-0.18359 0.46094-0.26172 0.69531-0.058594 0.18359-0.10938 0.37109-0.16016 0.55859-0.066407 0.23438-0.12891 0.46484-0.17969 0.70313-0.042969 0.19531-0.074219 0.39062-0.10938 0.58594-0.042968 0.23828-0.082031 0.47266-0.11328 0.71094-0.023437 0.19922-0.042969 0.40234-0.0625 0.60547-0.023437 0.23828-0.039063 0.47656-0.050781 0.71875-0.007813 0.20703-0.011719 0.41016-0.015625 0.61719-0.003907 0.24219-0.003907 0.48438 0.003906 0.72656 0.003906 0.20703 0.015625 0.41406 0.027344 0.625 0.015625 0.24609 0.03125 0.49219 0.054687 0.73828 0.019532 0.20703 0.039063 0.41406 0.066406 0.625 0.027344 0.24609 0.0625 0.49219 0.097657 0.73828 0.03125 0.20703 0.0625 0.41406 0.097656 0.62109 0.042969 0.24609 0.089844 0.49219 0.13672 0.73828 0.042968 0.20703 0.082031 0.41406 0.12891 0.61719 0.054688 0.24609 0.11328 0.48828 0.17188 0.73047 0.050781 0.20312 0.097656 0.40625 0.15234 0.60547 0.066406 0.24219 0.13281 0.48438 0.20312 0.72656 0.058594 0.19531 0.11328 0.39453 0.17188 0.58984 0.074219 0.24219 0.15234 0.47656 0.23047 0.71484 0.0625 0.19141 0.12109 0.38281 0.1875 0.57031 0.082031 0.23438 0.16406 0.46484 0.25 0.69531 0.066406 0.18359 0.13281 0.37109 0.19922 0.55078 0.007813 0.023438 0.019532 0.046875 0.027344 0.070312zm24.039 0c-0.046875-0.11719-0.089844-0.23438-0.13672-0.35156-0.066406-0.17578-0.13281-0.35156-0.19922-0.52734-0.078125-0.21094-0.15234-0.42187-0.22656-0.63672-0.066407-0.18359-0.12891-0.37109-0.19141-0.55859-0.070312-0.21484-0.14062-0.42969-0.21094-0.64844-0.058594-0.19141-0.12109-0.38281-0.17969-0.57422-0.066407-0.21875-0.12891-0.44141-0.1875-0.66016-0.054688-0.19531-0.10938-0.39063-0.16016-0.58594-0.058593-0.22266-0.10938-0.44531-0.16406-0.66797-0.046875-0.19922-0.09375-0.39844-0.13672-0.59766-0.046875-0.22266-0.089844-0.44531-0.12891-0.66797-0.039063-0.20312-0.078125-0.40234-0.10938-0.60547-0.035157-0.22266-0.066407-0.44531-0.097657-0.66797-0.027343-0.20312-0.054687-0.40234-0.078124-0.60547-0.023438-0.22266-0.039063-0.44531-0.058594-0.67188-0.015625-0.19922-0.03125-0.39844-0.042969-0.59766-0.011719-0.22266-0.007813-0.44141-0.011719-0.66406 0-0.19922-0.007812-0.39844-0.003906-0.59375 0.003906-0.21875 0.023438-0.4375 0.039062-0.65625 0.011719-0.19141 0.019532-0.38672 0.039063-0.57812 0.023437-0.21875 0.058594-0.43359 0.09375-0.64844 0.027344-0.18359 0.050781-0.37109 0.085937-0.55469 0.042969-0.21484 0.10156-0.42578 0.15625-0.64062 0.042969-0.17578 0.082032-0.35547 0.13281-0.52734 0.066406-0.21484 0.14844-0.42188 0.22656-0.63281 0.0625-0.16406 0.11328-0.33203 0.18359-0.49219 0.09375-0.21484 0.20703-0.42188 0.3125-0.62891 0.074219-0.14844 0.14062-0.29688 0.22266-0.44141 0.13281-0.22656 0.28906-0.44531 0.4375-0.66406 0.082031-0.11328 0.14844-0.23828 0.23437-0.34766 0.24609-0.32422 0.51953-0.64062 0.81641-0.94531 3.5117-3.5625 5.918-7.082 8.2422-10.48 3.3789-4.9453 6.5742-9.6172 12.691-13.379 7.9453-4.8828 23.004-8.707 34.277-8.707 0.50781 0 1 0.011718 1.4883 0.027343 0.14844 0.003907 0.29297 0.011719 0.44141 0.019531 0.1875 0.007813 0.36719 0.019532 0.55078 0.03125v11.195c-0.050781-0.019531-0.10547-0.039063-0.16016-0.058594-0.16016-0.058593-0.32031-0.11719-0.48047-0.17578-0.30469-0.10938-0.60938-0.21875-0.92188-0.32031-0.14453-0.046876-0.29297-0.089844-0.4375-0.13281-0.33594-0.10156-0.67188-0.20312-1.0117-0.29688-0.13672-0.039062-0.27344-0.070312-0.41406-0.10547-0.35547-0.089843-0.71484-0.17969-1.0781-0.26172-0.13281-0.027343-0.26562-0.058593-0.39844-0.085937-0.37109-0.078125-0.74609-0.15234-1.1289-0.22266-0.13281-0.023438-0.26562-0.042969-0.39844-0.066407-0.38281-0.066406-0.76953-0.12109-1.1602-0.17578-0.13672-0.019531-0.26953-0.035156-0.40625-0.050781-0.39062-0.046875-0.78125-0.089844-1.1758-0.12891-0.14062-0.011719-0.28516-0.027344-0.42578-0.039063-0.39062-0.03125-0.78125-0.058593-1.1758-0.078125-0.14844-0.007812-0.30078-0.015625-0.44922-0.023437-0.38672-0.015625-0.77734-0.027344-1.168-0.03125-0.16016-0.003907-0.32031-0.003907-0.48047-0.003907-0.38281 0-0.76953 0.003907-1.1523 0.015626-0.17188 0.003906-0.33984 0.007812-0.51172 0.011718-0.375 0.011719-0.75391 0.035156-1.1289 0.058594-0.18359 0.011719-0.36719 0.019531-0.55078 0.035156-0.36719 0.027344-0.73047 0.0625-1.0977 0.097656-0.19531 0.019532-0.39062 0.035157-0.58594 0.058594-0.35938 0.039063-0.71484 0.085938-1.0742 0.13672-0.20312 0.027344-0.40625 0.050781-0.60938 0.082031-0.35547 0.054688-0.71484 0.11719-1.0742 0.17578-0.20312 0.035156-0.40625 0.066406-0.60547 0.10547-0.37891 0.070313-0.75781 0.15234-1.1367 0.23047-0.17969 0.039063-0.35938 0.070313-0.53906 0.11328-0.55469 0.125-1.1094 0.26172-1.6641 0.40625-5.3984 1.4258-10.23 3.7109-14.23 6.5391-0.80078 0.56641-1.5664 1.1523-2.2969 1.7578s-1.4258 1.2344-2.0859 1.875c-4.6055 4.5-7.3633 9.8164-7.5352 15.098-0.050781 1.5078 0.11328 3.0117 0.50391 4.4922 0 0.003906 0 0.003906 0.003907 0.007813 0.13281 0.5 0.29687 0.99219 0.48047 1.4727 0.035156 0.097656 0.070313 0.19141 0.10938 0.28906 0.18359 0.46484 0.39062 0.91797 0.61719 1.3633 0.042969 0.089843 0.09375 0.17578 0.14062 0.26172 0.23438 0.43359 0.48047 0.85938 0.75781 1.2734 0.019532 0.027344 0.035156 0.058594 0.054688 0.085937 0.28906 0.42969 0.60547 0.84766 0.9375 1.2539 0.070312 0.085937 0.13672 0.17187 0.21094 0.25781 0.33203 0.39453 0.68359 0.77734 1.0586 1.1523 0.066406 0.066406 0.14062 0.13281 0.21094 0.19922 0.36719 0.35156 0.74609 0.69922 1.1484 1.0273 0.042969 0.035156 0.085938 0.074219 0.12891 0.10938 0.42969 0.34766 0.88281 0.67969 1.3516 1.0039 0.097656 0.066406 0.19531 0.13281 0.29297 0.19922 0.47266 0.31641 0.96094 0.61719 1.4688 0.90625 0.023437 0.011719 0.046874 0.03125 0.070312 0.042969h-17.145zm20.766 0c-0.17969-0.074219-0.35547-0.14844-0.53516-0.22656-0.16406-0.070312-0.32813-0.13672-0.48828-0.21094-0.19531-0.085938-0.38281-0.17969-0.57031-0.27344-0.15625-0.074219-0.31641-0.14844-0.47266-0.22656-0.1875-0.09375-0.36719-0.19531-0.54688-0.29297-0.14844-0.082031-0.30078-0.16016-0.44922-0.24219-0.17578-0.10156-0.34766-0.20703-0.51953-0.3125-0.14062-0.085937-0.28906-0.17187-0.42578-0.26172-0.16797-0.10547-0.32812-0.21875-0.48828-0.33203-0.13672-0.09375-0.27344-0.18359-0.40625-0.27734-0.16016-0.11328-0.3125-0.23438-0.46484-0.35156-0.125-0.097656-0.25781-0.19141-0.37891-0.28906-0.15234-0.12109-0.29688-0.25-0.44531-0.375-0.11719-0.097656-0.23438-0.19531-0.34766-0.29688-0.14453-0.12891-0.27734-0.26172-0.41797-0.39844-0.10547-0.10156-0.21875-0.20312-0.32031-0.30859-0.13672-0.13672-0.26172-0.27734-0.39062-0.41797-0.097656-0.10547-0.19922-0.21094-0.29297-0.31641-0.125-0.14453-0.24219-0.29297-0.36328-0.4375-0.089844-0.10937-0.18359-0.21484-0.26953-0.32422-0.11719-0.15234-0.22656-0.30859-0.33984-0.46484-0.078125-0.10938-0.16016-0.21484-0.23438-0.32422-0.10938-0.16406-0.21094-0.33203-0.31641-0.49609-0.066407-0.10938-0.13672-0.21094-0.20312-0.32031-0.097656-0.16797-0.1875-0.33984-0.27734-0.51172-0.058594-0.10938-0.125-0.21875-0.17969-0.33203-0.09375-0.1875-0.17578-0.38281-0.26172-0.57422-0.042969-0.097656-0.09375-0.19531-0.13672-0.29297-0.089844-0.21484-0.16797-0.4375-0.25-0.66016-0.027344-0.078125-0.0625-0.15625-0.089844-0.23438-0.10156-0.30078-0.19531-0.60547-0.27734-0.91406-2.9102-11.016 8.0938-23.508 24.531-27.852 0.53906-0.14453 1.082-0.27344 1.6211-0.39453 0.19531-0.042969 0.39062-0.078125 0.58594-0.12109 0.34766-0.074218 0.69531-0.14844 1.0391-0.21484 0.22266-0.042968 0.44531-0.074218 0.66797-0.11328 0.32031-0.054687 0.64453-0.11328 0.96484-0.16016 0.21875-0.03125 0.43359-0.054687 0.65234-0.085937 0.32422-0.042969 0.65234-0.089844 0.98047-0.125 0.21094-0.023438 0.41797-0.039063 0.62891-0.058594 0.33594-0.03125 0.66797-0.066406 1.0039-0.089844 0.19531-0.015625 0.39062-0.023438 0.58594-0.035156 0.34766-0.019532 0.69141-0.042969 1.0352-0.054688 0.1875-0.007812 0.37109-0.007812 0.55859-0.011718 0.34766-0.007813 0.69922-0.015626 1.0469-0.015626 0.17969 0 0.35938 0.007813 0.53906 0.011719 0.35156 0.007813 0.69922 0.011719 1.0508 0.027344 0.17578 0.007813 0.34766 0.019531 0.51953 0.03125 0.34766 0.019531 0.69531 0.039063 1.043 0.066406 0.17188 0.015625 0.33984 0.035157 0.51172 0.050781 0.34375 0.035157 0.6875 0.066407 1.0273 0.10938 0.16797 0.023437 0.33594 0.046874 0.50781 0.070312 0.33594 0.046875 0.66797 0.09375 0.99609 0.14844 0.17188 0.027343 0.33984 0.0625 0.51172 0.09375 0.32031 0.058593 0.64063 0.11719 0.95703 0.18359 0.17578 0.039063 0.35156 0.078125 0.52344 0.12109 0.30078 0.070313 0.60156 0.14062 0.89844 0.21875 0.18359 0.046875 0.36328 0.10156 0.54297 0.15234 0.28125 0.078125 0.55859 0.16016 0.83594 0.24219 0.19141 0.058594 0.37891 0.125 0.56641 0.1875 0.25781 0.085938 0.51172 0.17188 0.76172 0.26562 0.19922 0.074219 0.39844 0.15234 0.59375 0.23047 0.15234 0.058594 0.30469 0.12109 0.45312 0.18359v32.777c-0.44141 0.30859-0.89844 0.59766-1.3516 0.89062-0.35156 0.22656-0.69141 0.46484-1.0547 0.67969-0.58203 0.34766-1.1914 0.66406-1.793 0.98438-0.31641 0.16797-0.61719 0.34766-0.9375 0.50781-0.85938 0.42969-1.7461 0.82422-2.6484 1.1992-0.082031 0.035156-0.15625 0.074219-0.23828 0.10938-0.97266 0.39844-1.9688 0.76172-2.9883 1.0938l-26.57-0.003906zm37.586 0h-6.5977c0.70312-0.30469 1.3867-0.62891 2.0664-0.96094 0.14062-0.070312 0.27734-0.14453 0.41797-0.21484 0.89062-0.45313 1.7617-0.92578 2.6055-1.4297 0.042969-0.023438 0.082031-0.054688 0.125-0.078125 0.46875-0.28125 0.92969-0.57031 1.3828-0.87109zm0-73.336v1.7383c-0.32031 0.042969-0.64062 0.097657-0.96094 0.14844-0.32422 0.050781-0.65234 0.097656-0.98047 0.14844-0.44141 0.070312-0.88281 0.14844-1.3242 0.22656-0.3125 0.054688-0.62109 0.10547-0.93359 0.16406-0.47266 0.085938-0.94531 0.17969-1.418 0.27344-0.28516 0.054688-0.57031 0.10938-0.85938 0.16406-0.74219 0.14844-1.4883 0.29688-2.2461 0.44922-2.2188 0.44922-4.5156 0.91016-6.9922 1.3359-6.0117 1.0312-10.449 6.8594-14.742 12.496-2.1406 2.8086-4.1641 5.4648-6.2266 7.2812-2.832 2.4922-7.0039 6.2227-11.105 9.8867-4.9727 4.4453-9.668 8.6406-11.957 10.621-1.3359 1.1562-2.1797 2.1719-3.0703 3.2461-1.9258 2.3242-4.1133 4.9609-12.441 9.8867-0.42969 0.25391-0.83984 0.51953-1.2305 0.79687-0.13672 0.09375-0.25781 0.19531-0.38672 0.29297-0.24609 0.18359-0.49609 0.36719-0.73047 0.55859-0.14453 0.11719-0.27344 0.24219-0.41406 0.36328-0.19922 0.17578-0.40234 0.35156-0.58984 0.53125-0.13672 0.13281-0.26562 0.26953-0.39453 0.40625-0.16797 0.17578-0.34375 0.35156-0.5 0.53125-0.12891 0.14453-0.24219 0.28906-0.36328 0.43359-0.14844 0.17969-0.29688 0.35547-0.43359 0.53516-0.11328 0.15234-0.21875 0.30469-0.32812 0.45703-0.12891 0.17969-0.25391 0.36328-0.375 0.54297-0.10156 0.15625-0.19531 0.31641-0.28906 0.47266-0.10937 0.18359-0.21875 0.36719-0.32031 0.55078-0.089844 0.16016-0.17188 0.32031-0.25391 0.48438-0.09375 0.18359-0.1875 0.37109-0.27344 0.55469-0.074218 0.16406-0.14844 0.32422-0.21484 0.48828-0.082031 0.1875-0.15625 0.375-0.23047 0.5625-0.066406 0.16406-0.125 0.32812-0.18359 0.49219-0.066406 0.1875-0.12891 0.375-0.19141 0.5625-0.0625 0.16406-0.10938 0.32812-0.16016 0.49219-0.054688 0.1875-0.10547 0.375-0.15234 0.5625-0.042969 0.16406-0.082032 0.32422-0.12109 0.48438-0.042969 0.1875-0.082031 0.375-0.12109 0.55859-0.03125 0.16016-0.066406 0.32031-0.09375 0.47656-0.035156 0.1875-0.0625 0.37109-0.089844 0.55469-0.023437 0.15625-0.050781 0.3125-0.070312 0.46875-0.023438 0.17969-0.042969 0.35938-0.0625 0.53906-0.015625 0.15234-0.035156 0.30859-0.046875 0.46094-0.015625 0.17578-0.027344 0.34766-0.039063 0.51953-0.007812 0.15234-0.023437 0.30078-0.027343 0.44922 0 0.027344-0.003907 0.058594-0.003907 0.085938l-3.0273 0.003906v-21.02c0.10938-0.027344 0.22656-0.0625 0.33984-0.09375 0.19141-0.050782 0.38281-0.10547 0.58203-0.16016 0.23047-0.066407 0.46484-0.12891 0.70703-0.19922 0.20703-0.058594 0.41406-0.11719 0.62891-0.17969 0.24219-0.070312 0.48828-0.14453 0.73828-0.21484 0.22656-0.066407 0.44922-0.13281 0.67969-0.19922 0.25391-0.074219 0.51172-0.15234 0.77344-0.23438 0.23828-0.070313 0.47266-0.14453 0.71484-0.21875 0.26562-0.082032 0.53516-0.16797 0.80859-0.25391 0.25-0.078126 0.5-0.16016 0.75391-0.24219 0.27344-0.085938 0.55078-0.17969 0.82812-0.26953 0.26562-0.085938 0.52734-0.17578 0.79688-0.26562 0.27734-0.09375 0.55859-0.19141 0.83984-0.28516 0.27734-0.097657 0.55469-0.19141 0.83594-0.28906 0.28516-0.10156 0.57031-0.20312 0.85938-0.30469 0.28516-0.10156 0.56641-0.20313 0.85547-0.30859 0.29297-0.10547 0.58984-0.21875 0.88672-0.32812 0.28906-0.10938 0.57812-0.21484 0.87109-0.32812 0.29688-0.11328 0.59766-0.23047 0.89844-0.34766 0.29297-0.11719 0.58984-0.23047 0.88672-0.35156 0.30469-0.12109 0.60938-0.24609 0.91797-0.37109 0.29688-0.12109 0.58984-0.24219 0.88672-0.36719 0.30859-0.12891 0.62109-0.26172 0.92969-0.39844 0.29688-0.12891 0.59766-0.25781 0.89453-0.38672 0.30859-0.13672 0.61719-0.27734 0.92578-0.41406 0.30078-0.13672 0.60547-0.27344 0.90625-0.41406 0.30859-0.14453 0.62109-0.29297 0.92969-0.44141 0.30078-0.14453 0.60156-0.28516 0.90234-0.43359 0.30859-0.15234 0.61719-0.30859 0.92578-0.46094 0.30078-0.15234 0.60156-0.30078 0.89844-0.45703 0.30859-0.16016 0.61328-0.32422 0.92188-0.48828 0.29687-0.15625 0.59375-0.31641 0.88672-0.47656 0.30469-0.16797 0.60938-0.33984 0.91016-0.51172 0.29297-0.16406 0.58594-0.32812 0.87891-0.5 0.30078-0.17578 0.59766-0.35547 0.89844-0.53516 0.28906-0.17188 0.57422-0.34375 0.86328-0.51953 0.29687-0.18359 0.58984-0.37109 0.88281-0.55859 0.28125-0.17969 0.5625-0.35547 0.83984-0.54297 0.29297-0.19141 0.57812-0.39062 0.86328-0.58594 0.27344-0.1875 0.54297-0.37109 0.8125-0.55859 0.28516-0.19922 0.5625-0.41016 0.84375-0.61328 0.26172-0.19531 0.52734-0.38281 0.78516-0.58203 0.27734-0.21094 0.54297-0.42578 0.81641-0.64063 0.25-0.19922 0.50391-0.39844 0.75391-0.60156 0.26562-0.21875 0.52344-0.44531 0.78125-0.66797 0.24219-0.20703 0.48438-0.41406 0.71875-0.62109 0.25391-0.22656 0.5-0.46484 0.74609-0.69531 0.22656-0.21484 0.45703-0.42578 0.67969-0.64453 0.24219-0.23828 0.47656-0.48828 0.71094-0.73047 0.21094-0.21875 0.42969-0.43359 0.63281-0.66016 0.23047-0.25 0.44922-0.51172 0.67188-0.76562 0.19531-0.22266 0.39844-0.44531 0.58594-0.67578 0.21875-0.26172 0.42187-0.53516 0.62891-0.80469 0.17578-0.23047 0.36328-0.45312 0.53125-0.6875 0.20312-0.27734 0.39062-0.5625 0.58203-0.84766 0.16016-0.23047 0.32422-0.46094 0.47266-0.69531 0.19141-0.29688 0.35938-0.60156 0.53906-0.90234 0.13281-0.23047 0.27734-0.45703 0.40625-0.6875 0.17578-0.32422 0.33594-0.65625 0.49609-0.98828 0.10937-0.21875 0.22656-0.43359 0.32812-0.65625 0.16797-0.36719 0.3125-0.74609 0.46094-1.1211 0.078125-0.19531 0.16406-0.38281 0.23828-0.57813 0.21094-0.57422 0.39844-1.1562 0.56641-1.75 0.25-0.89844 0.53516-1.7891 0.85156-2.6758 0.10938-0.30859 0.24609-0.60938 0.36328-0.91406 0.22266-0.57812 0.43359-1.1523 0.68359-1.7266 0.15625-0.35547 0.33984-0.70703 0.50391-1.0586 0.24219-0.51562 0.47266-1.0352 0.73828-1.543 0.19531-0.375 0.41797-0.74609 0.625-1.1211 0.26953-0.48047 0.52344-0.96875 0.8125-1.4453 0.23047-0.38281 0.48828-0.75781 0.73047-1.1367 0.29688-0.46484 0.58203-0.92969 0.89844-1.3867 0.26172-0.37891 0.55078-0.75391 0.82812-1.1328 0.32812-0.44922 0.64844-0.90234 0.99609-1.3516 0.29297-0.375 0.61328-0.74609 0.91797-1.1172 0.36328-0.44141 0.71484-0.88281 1.0938-1.3164 0.32422-0.36719 0.67188-0.73047 1.0078-1.0977 0.35938-0.39062 0.71094-0.78516 1.0859-1.1719z"/>
  <path d="m88.176 72.578c2.5977-2.9844 3.582-6.3281 2.7617-9.418-1.2578-4.7617-6.4883-7.8359-13.328-7.8359-2 0-4.0391 0.26953-6.0586 0.80469-4.3242 1.1445-8.0977 3.3672-10.621 6.2695-2.5977 2.9844-3.582 6.3281-2.7617 9.418 0.33203 1.2578 0.94922 2.3945 1.793 3.3906 0.29297 0.34766 0.61719 0.67578 0.96484 0.98828 2.4375 2.1797 6.168 3.457 10.57 3.457 2 0 4.0391-0.26953 6.0586-0.80469 4.3242-1.1445 8.0977-3.3711 10.621-6.2695zm-11.02 4.7578c-1.8906 0.5-3.7969 0.75391-5.6602 0.75391-6.0117 0-10.762-2.6836-11.816-6.6719-0.67969-2.5742 0.18359-5.4141 2.4297-7.9961 2.3203-2.668 5.8164-4.7188 9.8438-5.7852 1.8906-0.5 3.793-0.75391 5.6602-0.75391 6.0117 0 10.762 2.6797 11.816 6.6719 0.67969 2.5742-0.18359 5.4141-2.4297 7.9961-2.3242 2.668-5.8203 4.7188-9.8438 5.7852z"/>
  <path d="m76.328 60.098c-1.1875 0-2.3984 0.16016-3.6016 0.47656-2.5742 0.67969-4.8203 2.0078-6.3281 3.7383-1.582 1.8164-2.1758 3.8633-1.6719 5.7656 0.76953 2.9102 3.9297 4.793 8.0508 4.793 0.89062 0 1.7969-0.089844 2.6992-0.26953 0.30078-0.058593 0.60156-0.12891 0.90234-0.20703 2.5742-0.67969 4.8203-2.0078 6.3281-3.7383 1.582-1.8164 2.1758-3.8633 1.6719-5.7656-0.76562-2.9102-3.9297-4.793-8.0508-4.793zm5.1992 9.5312c-1.3047 1.4961-3.2734 2.6523-5.5508 3.2539-1.0703 0.28125-2.1484 0.42578-3.1992 0.42578-3.3398 0-5.9688-1.457-6.5391-3.6289-0.36719-1.3867 0.10938-2.9297 1.3398-4.3398 1.3047-1.4961 3.2773-2.6523 5.5508-3.2539 1.0703-0.28125 2.1484-0.42578 3.1992-0.42578 3.3398 0 5.9688 1.457 6.543 3.6289 0.36719 1.3867-0.10938 2.9258-1.3438 4.3398z"/>
 </g>
</svg>
